<svg width="914" height="305" viewBox="0 0 914 305" fill="none" xmlns="http://www.w3.org/2000/svg">
<g id="application_baseline">
<path id="Line-17" opacity="0.501023" d="M336.156 2V285.594" stroke="#A989F5" stroke-width="2.57812" stroke-linecap="square" stroke-dasharray="2.58 5.16"/>
<path id="Line-17_2" opacity="0.501023" d="M360.552 289.171L311.89 289.106" stroke="#A989F5" stroke-width="2.57812" stroke-linecap="square" stroke-dasharray="2.58 5.16"/>
<path id="Rectangle" d="M294.777 43.3789H47.5352V290.621H294.777V43.3789Z" fill="#A989F5" fill-opacity="0.2"/>
<path id="Rectangle_2" d="M501.027 43.3789H377.535V290.621H501.027V43.3789Z" fill="#A989F5" fill-opacity="0.2"/>
<path id="Rectangle_3" d="M707.148 43.5078H583.914V290.492H707.148V43.5078Z" fill="#A989F5" fill-opacity="0.2"/>
<path id="Rectangle_4" d="M913.527 43.3789H790.035V290.621H913.527V43.3789Z" fill="#A989F5" fill-opacity="0.2"/>
<path id="Rectangle_5" d="M166.516 74H93.2969C92.1578 74 91.2344 74.9234 91.2344 76.0625V97.7188C91.2344 98.8578 92.1578 99.7812 93.2969 99.7812H166.516C167.655 99.7812 168.578 98.8578 168.578 97.7188V76.0625C168.578 74.9234 167.655 74 166.516 74Z" fill="white" stroke="#4E515D" stroke-width="1.54688"/>
<path id="Rectangle_6" d="M29.6172 74H3.0625C1.92341 74 1 74.9234 1 76.0625V97.7188C1 98.8578 1.92341 99.7812 3.0625 99.7812H29.6172C30.7563 99.7812 31.6797 98.8578 31.6797 97.7188V76.0625C31.6797 74.9234 30.7563 74 29.6172 74Z" fill="white" stroke="#4E515D" stroke-width="1.54688"/>
<path id="Rectangle_7" d="M146.148 239H113.664C112.525 239 111.602 239.923 111.602 241.062V262.719C111.602 263.858 112.525 264.781 113.664 264.781H146.148C147.288 264.781 148.211 263.858 148.211 262.719V241.062C148.211 239.923 147.288 239 146.148 239Z" fill="white" stroke="#E24329" stroke-width="1.54688"/>
<path id="Rectangle_8" d="M274.539 239H201.32C200.181 239 199.258 239.923 199.258 241.062V262.719C199.258 263.858 200.181 264.781 201.32 264.781H274.539C275.678 264.781 276.602 263.858 276.602 262.719V241.062C276.602 239.923 275.678 239 274.539 239Z" fill="white" stroke="#4E515D" stroke-width="1.54688"/>
<path id="Rectangle_9" d="M274.797 154H201.578C200.439 154 199.516 154.923 199.516 156.062V177.719C199.516 178.858 200.439 179.781 201.578 179.781H274.797C275.936 179.781 276.859 178.858 276.859 177.719V156.062C276.859 154.923 275.936 154 274.797 154Z" fill="white" stroke="#4E515D" stroke-width="1.54688"/>
<path id="Rectangle_10" d="M475.891 74H402.672C401.533 74 400.609 74.9234 400.609 76.0625V97.7188C400.609 98.8578 401.533 99.7812 402.672 99.7812H475.891C477.03 99.7812 477.953 98.8578 477.953 97.7188V76.0625C477.953 74.9234 477.03 74 475.891 74Z" fill="white" stroke="#4E515D" stroke-width="1.54688"/>
<path id="Rectangle_11" d="M475.633 155H402.414C401.275 155 400.352 155.923 400.352 157.062V178.719C400.352 179.858 401.275 180.781 402.414 180.781H475.633C476.772 180.781 477.695 179.858 477.695 178.719V157.062C477.695 155.923 476.772 155 475.633 155Z" fill="white" stroke="#4E515D" stroke-width="1.54688"/>
<path id="Rectangle_12" d="M682.141 74H608.922C607.783 74 606.859 74.9234 606.859 76.0625V97.7188C606.859 98.8578 607.783 99.7812 608.922 99.7812H682.141C683.28 99.7812 684.203 98.8578 684.203 97.7188V76.0625C684.203 74.9234 683.28 74 682.141 74Z" fill="white" stroke="#4E515D" stroke-width="1.54688"/>
<path id="Rectangle_13" d="M682.141 154H608.922C607.783 154 606.859 154.923 606.859 156.062V177.719C606.859 178.858 607.783 179.781 608.922 179.781H682.141C683.28 179.781 684.203 178.858 684.203 177.719V156.062C684.203 154.923 683.28 154 682.141 154Z" fill="white" stroke="#4E515D" stroke-width="1.54688"/>
<path id="Rectangle_14" d="M888.391 74H815.172C814.033 74 813.109 74.9234 813.109 76.0625V97.7188C813.109 98.8578 814.033 99.7812 815.172 99.7812H888.391C889.53 99.7812 890.453 98.8578 890.453 97.7188V76.0625C890.453 74.9234 889.53 74 888.391 74Z" fill="white" stroke="#4E515D" stroke-width="1.54688"/>
<path id="Rectangle_15" d="M682.141 239H608.922C607.783 239 606.859 239.923 606.859 241.062V262.719C606.859 263.858 607.783 264.781 608.922 264.781H682.141C683.28 264.781 684.203 263.858 684.203 262.719V241.062C684.203 239.923 683.28 239 682.141 239Z" fill="white" stroke="#4E515D" stroke-width="1.54688"/>
<path id="Oval" d="M75.7656 179.781C82.8849 179.781 88.6562 174.01 88.6562 166.891C88.6562 159.771 82.8849 154 75.7656 154C68.6463 154 62.875 159.771 62.875 166.891C62.875 174.01 68.6463 179.781 75.7656 179.781Z" fill="white" stroke="#E24329" stroke-width="1.54688"/>
<path id="Oval_2" d="M129.906 231.453C133.466 231.453 136.352 228.567 136.352 225.008C136.352 221.448 133.466 218.562 129.906 218.562C126.347 218.562 123.461 221.448 123.461 225.008C123.461 228.567 126.347 231.453 129.906 231.453Z" fill="white" stroke="#E24329" stroke-width="1.54688"/>
<path id="Rectangle_16" d="M148.136 167.23L129.906 149L111.676 167.23L129.906 185.46L148.136 167.23Z" fill="white" stroke="#4E515D" stroke-width="1.54688"/>
<path id="Line-4" d="M189.57 163.43L197.066 167.128L189.61 170.906L189.593 167.812L173.724 167.896C172.66 167.902 171.801 168.766 171.801 169.83V249.248C171.801 250.312 172.66 251.176 173.724 251.182L189.593 251.266L189.61 248.172L197.066 251.95L189.57 255.649L189.586 252.555L173.717 252.471C171.944 252.462 170.512 251.021 170.512 249.248V169.83C170.512 168.057 171.944 166.617 173.717 166.607L189.586 166.523L189.57 163.43Z" fill="#7759C2"/>
<path id="Line-2" d="M98.3525 163.318L98.3289 166.411L107.868 166.484L108.513 166.489L108.503 167.778L107.858 167.773L98.3188 167.7L98.2955 170.794L90.8477 166.999L98.3525 163.318Z" fill="#66A2FF"/>
<path id="Line-5" d="M151.434 167.129L165 167" stroke="#66A2FF" stroke-width="1.25" stroke-linecap="square"/>
<path id="Line-7" d="M598.199 83.646L604.41 86.6914L598.247 89.8333L598.227 87.2552L524.343 87.8316C523.211 87.8404 522.297 88.7612 522.297 89.894V164.43C522.297 166.135 520.918 167.518 519.213 167.524L480.662 167.645L480.146 167.646L480.143 166.615L480.659 166.613L519.21 166.492C520.346 166.489 521.266 165.567 521.266 164.43V89.894C521.266 88.1948 522.636 86.8136 524.335 86.8004L598.219 86.224L598.199 83.646Z" fill="#66A2FF"/>
<path id="Line-7_2" d="M803.418 83.1279L810.918 86.8195L803.465 90.6043L803.446 87.5105L730.597 87.9645C729.534 87.9711 728.676 88.8348 728.676 89.898V164.438C728.676 166.21 727.245 167.649 725.473 167.66L686.27 167.902L685.625 167.906L685.617 166.617L686.262 166.613L725.465 166.371C726.528 166.365 727.387 165.501 727.387 164.438V89.898C727.387 88.1261 728.817 86.6865 730.589 86.6754L803.437 86.2214L803.418 83.1279Z" fill="#66A2FF"/>
<path id="Line-12" d="M238.703 231.969V235.836H237.414V231.969H238.703ZM238.703 226.812V230.68H237.414V226.812H238.703ZM238.703 221.656V225.523H237.414V221.656H238.703ZM238.703 216.5V220.367H237.414V216.5H238.703ZM238.703 211.344V215.211H237.414V211.344H238.703ZM238.703 206.188V210.055H237.414V206.188H238.703ZM238.703 201.031V204.898H237.414V201.031H238.703ZM238.703 195.875V199.742H237.414V195.875H238.703ZM238.059 185.047L241.797 192.523H238.703V194.586H237.414V192.523H234.32L238.059 185.047Z" fill="#7759C2"/>
<path id="Line" d="M44.4511 82.8433L44.443 85.937L79.3765 86.0275L79.3847 82.9341L86.8516 86.6917L79.3653 90.4106L79.3732 87.3166L44.4396 87.2261L44.4317 90.3199L36.9648 86.5622L44.4511 82.8433Z" fill="#66A2FF"/>
<path id="Line-7_3" d="M439.795 103.061L439.797 103.705L439.905 143.151L442.999 143.142L439.282 150.629L435.523 143.163L438.616 143.154L438.508 103.709L438.506 103.064L439.795 103.061Z" fill="#66A2FF"/>
<path id="Line-8" d="M646.047 103.062V143.281H649.141L645.402 150.758L641.664 143.281H644.758V103.062H646.047Z" fill="#66A2FF"/>
<path id="Line-6" d="M130.551 102.418V136.707H133.645L129.906 144.184L126.168 136.707H129.262V102.418H130.551Z" fill="#66A2FF"/>
<path id="Line-3" d="M130.551 189.301V206.832H133.645L129.906 214.309L126.168 206.832H129.262V189.301H130.551Z" fill="#66A2FF"/>
<path id="Line-9" d="M645.789 184.789V228.102H648.367L645.273 234.289L642.18 228.102H644.758V184.789H645.789Z" fill="#66A2FF"/>
<path id="Rectangle_17" d="M294.777 2.12891H47.5352V43.1211H294.777V2.12891Z" fill="#7759C2" fill-opacity="0.2"/>
<path id="Rectangle_18" d="M707.277 2.12891H583.785V43.1211H707.277V2.12891Z" fill="#7759C2" fill-opacity="0.2"/>
<path id="Rectangle_19" d="M501.027 2.12891H377.535V43.1211H501.027V2.12891Z" fill="#7759C2" fill-opacity="0.2"/>
<path id="Rectangle_20" d="M913.527 2H790.035V42.9922H913.527V2Z" fill="#7759C2" fill-opacity="0.2"/>
<path id="FRONT" d="M145.656 16.9553H153.421V18.9972H148.085V21.5495H152.71V23.4367H148.085V28H145.656V16.9553ZM157.254 21.9517H159.915C160.472 21.9517 160.889 21.828 161.168 21.5805C161.446 21.333 161.585 20.9308 161.585 20.3739C161.585 19.8377 161.446 19.4509 161.168 19.2137C160.889 18.9662 160.472 18.8425 159.915 18.8425H157.254V21.9517ZM154.825 16.9553H160.781C161.276 16.9553 161.719 17.0378 162.111 17.2028C162.513 17.3575 162.854 17.5741 163.132 17.8525C163.421 18.1309 163.638 18.4558 163.782 18.827C163.937 19.188 164.014 19.5798 164.014 20.0027C164.014 20.6523 163.875 21.2144 163.596 21.6887C163.328 22.1631 162.885 22.5241 162.266 22.7716V22.8025C162.565 22.885 162.813 23.0139 163.008 23.1892C163.204 23.3542 163.364 23.5553 163.488 23.7925C163.612 24.0194 163.699 24.272 163.751 24.5505C163.813 24.8289 163.854 25.1073 163.875 25.3858C163.885 25.5611 163.895 25.7673 163.906 26.0045C163.916 26.2417 163.931 26.4841 163.952 26.7316C163.983 26.9791 164.024 27.2162 164.076 27.4431C164.138 27.6597 164.225 27.8453 164.339 28H161.91C161.776 27.6494 161.694 27.2317 161.663 26.747C161.632 26.2623 161.585 25.7983 161.523 25.3548C161.441 24.7773 161.266 24.3545 160.998 24.0864C160.729 23.8183 160.291 23.6842 159.683 23.6842H157.254V28H154.825V16.9553ZM167.938 22.5241C167.938 22.9881 167.99 23.4419 168.093 23.8853C168.206 24.3184 168.381 24.7103 168.619 25.0609C168.856 25.4116 169.165 25.6952 169.547 25.9117C169.928 26.118 170.392 26.2211 170.939 26.2211C171.486 26.2211 171.95 26.118 172.331 25.9117C172.713 25.6952 173.022 25.4116 173.259 25.0609C173.496 24.7103 173.667 24.3184 173.77 23.8853C173.883 23.4419 173.94 22.9881 173.94 22.5241C173.94 22.0394 173.883 21.5702 173.77 21.1164C173.667 20.6627 173.496 20.2605 173.259 19.9098C173.022 19.5489 172.713 19.2653 172.331 19.0591C171.95 18.8425 171.486 18.7342 170.939 18.7342C170.392 18.7342 169.928 18.8425 169.547 19.0591C169.165 19.2653 168.856 19.5489 168.619 19.9098C168.381 20.2605 168.206 20.6627 168.093 21.1164C167.99 21.5702 167.938 22.0394 167.938 22.5241ZM165.509 22.5241C165.509 21.6991 165.633 20.9359 165.881 20.2347C166.128 19.5231 166.484 18.9044 166.948 18.3784C167.412 17.8525 167.979 17.44 168.65 17.1409C169.33 16.8419 170.093 16.6923 170.939 16.6923C171.795 16.6923 172.558 16.8419 173.228 17.1409C173.899 17.44 174.466 17.8525 174.93 18.3784C175.394 18.9044 175.75 19.5231 175.997 20.2347C176.245 20.9359 176.369 21.6991 176.369 22.5241C176.369 23.3284 176.245 24.0812 175.997 24.7825C175.75 25.4734 175.394 26.0767 174.93 26.5923C174.466 27.108 173.899 27.5153 173.228 27.8144C172.558 28.1031 171.795 28.2475 170.939 28.2475C170.093 28.2475 169.33 28.1031 168.65 27.8144C167.979 27.5153 167.412 27.108 166.948 26.5923C166.484 26.0767 166.128 25.4734 165.881 24.7825C165.633 24.0812 165.509 23.3284 165.509 22.5241ZM178.029 16.9553H180.442L185.051 24.3648H185.082V16.9553H187.356V28H184.928L180.333 20.6059H180.303V28H178.029V16.9553ZM191.938 18.9972H188.628V16.9553H197.677V18.9972H194.367V28H191.938V18.9972Z" fill="#171321"/>
<g id="Group">
<path id="Oval_3" d="M171.156 174.469C175.428 174.469 178.891 171.006 178.891 166.734C178.891 162.463 175.428 159 171.156 159C166.885 159 163.422 162.463 163.422 166.734C163.422 171.006 166.885 174.469 171.156 174.469Z" fill="white" stroke="#F7F8FA" stroke-width="1.54688"/>
<path id="Oval_4" d="M171.156 173.18C174.716 173.18 177.602 170.294 177.602 166.734C177.602 163.175 174.716 160.289 171.156 160.289C167.597 160.289 164.711 163.175 164.711 166.734C164.711 170.294 167.597 173.18 171.156 173.18Z" fill="white" stroke="#7759C2" stroke-width="1.54688"/>
<path id="Line-15" d="M173.283 164.414L170.834 169.184" stroke="#7759C2" stroke-width="1.28906" stroke-linecap="square"/>
<path id="Line-15_2" d="M168.836 167.959L170.77 169.119" stroke="#7759C2" stroke-width="1.28906" stroke-linecap="square"/>
</g>
<path id="MIDDLE" d="M410.084 16.9553H413.503L416.086 24.5505H416.117L418.561 16.9553H421.979V28H419.706V20.1728H419.675L416.968 28H415.096L412.389 20.2502H412.358V28H410.084V16.9553ZM424.118 16.9553H426.546V28H424.118V16.9553ZM431.108 25.9581H433.274C433.625 25.9581 433.965 25.9014 434.295 25.788C434.625 25.6745 434.919 25.4889 435.177 25.2311C435.434 24.963 435.641 24.6175 435.795 24.1947C435.95 23.7719 436.027 23.2562 436.027 22.6478C436.027 22.0909 435.971 21.5908 435.857 21.1473C435.754 20.6936 435.579 20.3069 435.331 19.9872C435.084 19.6675 434.754 19.4252 434.341 19.2602C433.939 19.0848 433.439 18.9972 432.841 18.9972H431.108V25.9581ZM428.68 16.9553H433.444C434.156 16.9553 434.816 17.0687 435.424 17.2956C436.043 17.5225 436.574 17.8628 437.017 18.3166C437.471 18.7703 437.822 19.3375 438.069 20.0181C438.327 20.6987 438.456 21.498 438.456 22.4158C438.456 23.2202 438.353 23.9627 438.147 24.6433C437.94 25.3239 437.626 25.9117 437.203 26.4067C436.79 26.9017 436.27 27.2936 435.641 27.5823C435.022 27.8608 434.29 28 433.444 28H428.68V16.9553ZM442.574 25.9581H444.74C445.09 25.9581 445.43 25.9014 445.76 25.788C446.09 25.6745 446.384 25.4889 446.642 25.2311C446.9 24.963 447.106 24.6175 447.261 24.1947C447.416 23.7719 447.493 23.2562 447.493 22.6478C447.493 22.0909 447.436 21.5908 447.323 21.1473C447.22 20.6936 447.044 20.3069 446.797 19.9872C446.549 19.6675 446.219 19.4252 445.807 19.2602C445.405 19.0848 444.905 18.9972 444.306 18.9972H442.574V25.9581ZM440.145 16.9553H444.91C445.621 16.9553 446.281 17.0687 446.89 17.2956C447.508 17.5225 448.04 17.8628 448.483 18.3166C448.937 18.7703 449.287 19.3375 449.535 20.0181C449.793 20.6987 449.922 21.498 449.922 22.4158C449.922 23.2202 449.818 23.9627 449.612 24.6433C449.406 25.3239 449.091 25.9117 448.669 26.4067C448.256 26.9017 447.735 27.2936 447.106 27.5823C446.488 27.8608 445.755 28 444.91 28H440.145V16.9553ZM451.611 16.9553H454.04V25.9581H459.423V28H451.611V16.9553ZM460.78 16.9553H469.041V18.9972H463.209V21.3639H468.561V23.2511H463.209V25.9581H469.164V28H460.78V16.9553Z" fill="#171321"/>
<path id="BACK" d="M627.031 21.4258H629.49C629.923 21.4258 630.279 21.3227 630.557 21.1164C630.836 20.9102 630.975 20.575 630.975 20.1109C630.975 19.8531 630.929 19.6417 630.836 19.4767C630.743 19.3117 630.619 19.1828 630.465 19.09C630.31 18.9972 630.13 18.9353 629.923 18.9044C629.727 18.8631 629.521 18.8425 629.305 18.8425H627.031V21.4258ZM624.602 16.9553H629.8C630.325 16.9553 630.805 17.0017 631.238 17.0945C631.671 17.1873 632.042 17.342 632.352 17.5586C632.661 17.7648 632.898 18.0433 633.063 18.3939C633.239 18.7445 633.326 19.1777 633.326 19.6933C633.326 20.2502 633.197 20.7142 632.94 21.0855C632.692 21.4567 632.321 21.7609 631.826 21.9981C632.507 22.1941 633.012 22.5395 633.342 23.0345C633.682 23.5192 633.852 24.107 633.852 24.798C633.852 25.3548 633.744 25.8395 633.527 26.252C633.311 26.6542 633.017 26.9842 632.646 27.242C632.285 27.4998 631.867 27.6906 631.393 27.8144C630.929 27.9381 630.449 28 629.954 28H624.602V16.9553ZM627.031 26.1128H629.629C629.867 26.1128 630.093 26.0922 630.31 26.0509C630.527 25.9994 630.717 25.922 630.882 25.8189C631.047 25.7055 631.176 25.5559 631.269 25.3703C631.372 25.1847 631.424 24.9475 631.424 24.6587C631.424 24.0916 631.264 23.6894 630.944 23.4522C630.625 23.2047 630.202 23.0809 629.676 23.0809H627.031V26.1128ZM638.278 23.7306H641.14L639.747 19.6778H639.717L638.278 23.7306ZM638.51 16.9553H641L645.131 28H642.609L641.774 25.5405H637.644L636.777 28H634.333L638.51 16.9553ZM653.446 20.6678C653.405 20.3894 653.312 20.1367 653.168 19.9098C653.023 19.6727 652.843 19.4664 652.626 19.2911C652.41 19.1158 652.162 18.9817 651.884 18.8889C651.616 18.7858 651.332 18.7342 651.033 18.7342C650.486 18.7342 650.022 18.8425 649.641 19.0591C649.259 19.2653 648.95 19.5489 648.713 19.9098C648.476 20.2605 648.3 20.6627 648.187 21.1164C648.084 21.5702 648.032 22.0394 648.032 22.5241C648.032 22.9881 648.084 23.4419 648.187 23.8853C648.3 24.3184 648.476 24.7103 648.713 25.0609C648.95 25.4116 649.259 25.6952 649.641 25.9117C650.022 26.118 650.486 26.2211 651.033 26.2211C651.776 26.2211 652.353 25.9942 652.766 25.5405C653.188 25.0867 653.446 24.4886 653.539 23.7461H655.89C655.828 24.437 655.668 25.0609 655.411 25.6178C655.153 26.1747 654.813 26.6491 654.39 27.0409C653.967 27.4328 653.472 27.7319 652.905 27.9381C652.338 28.1444 651.714 28.2475 651.033 28.2475C650.187 28.2475 649.424 28.1031 648.744 27.8144C648.073 27.5153 647.506 27.108 647.042 26.5923C646.578 26.0767 646.222 25.4734 645.975 24.7825C645.727 24.0812 645.603 23.3284 645.603 22.5241C645.603 21.6991 645.727 20.9359 645.975 20.2347C646.222 19.5231 646.578 18.9044 647.042 18.3784C647.506 17.8525 648.073 17.44 648.744 17.1409C649.424 16.8419 650.187 16.6923 651.033 16.6923C651.641 16.6923 652.214 16.78 652.75 16.9553C653.297 17.1306 653.781 17.3884 654.204 17.7287C654.637 18.0587 654.993 18.4712 655.271 18.9662C655.55 19.4612 655.725 20.0284 655.797 20.6678H653.446ZM657.549 16.9553H659.977V21.5341L664.293 16.9553H667.325L663.009 21.3175L667.743 28H664.695L661.369 23.0345L659.977 24.4422V28H657.549V16.9553Z" fill="#171321"/>
<path id="DATA" d="M835.709 25.9581H837.875C838.226 25.9581 838.566 25.9014 838.896 25.788C839.226 25.6745 839.52 25.4889 839.778 25.2311C840.035 24.963 840.242 24.6175 840.396 24.1947C840.551 23.7719 840.628 23.2562 840.628 22.6478C840.628 22.0909 840.572 21.5908 840.458 21.1473C840.355 20.6936 840.18 20.3069 839.932 19.9872C839.685 19.6675 839.355 19.4252 838.942 19.2602C838.54 19.0848 838.04 18.9972 837.442 18.9972H835.709V25.9581ZM833.281 16.9553H838.045C838.757 16.9553 839.417 17.0687 840.025 17.2956C840.644 17.5225 841.175 17.8628 841.618 18.3166C842.072 18.7703 842.423 19.3375 842.67 20.0181C842.928 20.6987 843.057 21.498 843.057 22.4158C843.057 23.2202 842.954 23.9627 842.748 24.6433C842.541 25.3239 842.227 25.9117 841.804 26.4067C841.391 26.9017 840.871 27.2936 840.242 27.5823C839.623 27.8608 838.891 28 838.045 28H833.281V16.9553ZM847.531 23.7306H850.392L849 19.6778H848.969L847.531 23.7306ZM847.763 16.9553H850.253L854.383 28H851.862L851.027 25.5405H846.896L846.03 28H843.586L847.763 16.9553ZM856.36 18.9972H853.049V16.9553H862.099V18.9972H858.788V28H856.36V18.9972ZM864.737 23.7306H867.598L866.206 19.6778H866.175L864.737 23.7306ZM864.969 16.9553H867.459L871.589 28H869.068L868.233 25.5405H864.102L863.236 28H860.792L864.969 16.9553Z" fill="#171321"/>
<path id="UI" d="M17.8156 88.4941C17.8156 89.3912 17.565 90.0595 17.0638 90.4988C16.5626 90.9319 15.8696 91.1485 14.9848 91.1485C14.0876 91.1485 13.3915 90.9319 12.8965 90.4988C12.4077 90.0657 12.1633 89.3974 12.1633 88.4941V84.3732H13.6204V88.4941C13.6204 88.6735 13.6359 88.8498 13.6668 89.0231C13.6978 89.1963 13.7628 89.351 13.8618 89.4872C13.9608 89.6171 14.0969 89.7254 14.2701 89.812C14.4496 89.8924 14.6878 89.9327 14.9848 89.9327C15.5045 89.9327 15.8634 89.8182 16.0614 89.5892C16.2594 89.3541 16.3584 88.9891 16.3584 88.4941V84.3732H17.8156V88.4941ZM19.0705 84.3732H20.5276V91H19.0705V84.3732Z" fill="#373942"/>
<path id="ROUTER" d="M112.596 87.371H114.192C114.526 87.371 114.777 87.2968 114.944 87.1483C115.111 86.9998 115.194 86.7585 115.194 86.4243C115.194 86.1026 115.111 85.8706 114.944 85.7282C114.777 85.5797 114.526 85.5055 114.192 85.5055H112.596V87.371ZM111.139 84.3732H114.712C115.009 84.3732 115.275 84.4227 115.51 84.5217C115.751 84.6145 115.955 84.7444 116.123 84.9115C116.296 85.0786 116.426 85.2735 116.512 85.4962C116.605 85.7128 116.652 85.9479 116.652 86.2016C116.652 86.5914 116.568 86.9286 116.401 87.2132C116.24 87.4979 115.974 87.7144 115.603 87.8629V87.8815C115.782 87.931 115.931 88.0083 116.048 88.1135C116.166 88.2125 116.262 88.3332 116.336 88.4755C116.41 88.6116 116.463 88.7632 116.494 88.9303C116.531 89.0973 116.556 89.2644 116.568 89.4315C116.574 89.5367 116.58 89.6604 116.587 89.8027C116.593 89.945 116.602 90.0904 116.614 90.2389C116.633 90.3874 116.658 90.5297 116.689 90.6659C116.726 90.7958 116.778 90.9072 116.846 91H115.389C115.309 90.7896 115.259 90.539 115.241 90.2482C115.222 89.9574 115.194 89.679 115.157 89.4129C115.108 89.0664 115.003 88.8127 114.842 88.6518C114.681 88.491 114.418 88.4105 114.053 88.4105H112.596V91H111.139V84.3732ZM119.006 87.7144C119.006 87.9929 119.037 88.2651 119.099 88.5312C119.167 88.7911 119.272 89.0262 119.414 89.2366C119.557 89.4469 119.742 89.6171 119.971 89.747C120.2 89.8708 120.479 89.9327 120.807 89.9327C121.135 89.9327 121.413 89.8708 121.642 89.747C121.871 89.6171 122.056 89.4469 122.199 89.2366C122.341 89.0262 122.443 88.7911 122.505 88.5312C122.573 88.2651 122.607 87.9929 122.607 87.7144C122.607 87.4236 122.573 87.1421 122.505 86.8698C122.443 86.5976 122.341 86.3563 122.199 86.1459C122.056 85.9293 121.871 85.7592 121.642 85.6354C121.413 85.5055 121.135 85.4405 120.807 85.4405C120.479 85.4405 120.2 85.5055 119.971 85.6354C119.742 85.7592 119.557 85.9293 119.414 86.1459C119.272 86.3563 119.167 86.5976 119.099 86.8698C119.037 87.1421 119.006 87.4236 119.006 87.7144ZM117.549 87.7144C117.549 87.2194 117.623 86.7616 117.772 86.3408C117.92 85.9139 118.134 85.5426 118.412 85.2271C118.69 84.9115 119.031 84.664 119.433 84.4846C119.841 84.3051 120.299 84.2154 120.807 84.2154C121.32 84.2154 121.778 84.3051 122.18 84.4846C122.582 84.664 122.923 84.9115 123.201 85.2271C123.48 85.5426 123.693 85.9139 123.842 86.3408C123.99 86.7616 124.064 87.2194 124.064 87.7144C124.064 88.1971 123.99 88.6487 123.842 89.0695C123.693 89.4841 123.48 89.846 123.201 90.1554C122.923 90.4648 122.582 90.7092 122.18 90.8886C121.778 91.0619 121.32 91.1485 120.807 91.1485C120.299 91.1485 119.841 91.0619 119.433 90.8886C119.031 90.7092 118.69 90.4648 118.412 90.1554C118.134 89.846 117.92 89.4841 117.772 89.0695C117.623 88.6487 117.549 88.1971 117.549 87.7144ZM130.685 88.4941C130.685 89.3912 130.434 90.0595 129.933 90.4988C129.432 90.9319 128.739 91.1485 127.854 91.1485C126.957 91.1485 126.261 90.9319 125.766 90.4988C125.277 90.0657 125.033 89.3974 125.033 88.4941V84.3732H126.49V88.4941C126.49 88.6735 126.505 88.8498 126.536 89.0231C126.567 89.1963 126.632 89.351 126.731 89.4872C126.83 89.6171 126.966 89.7254 127.139 89.812C127.319 89.8924 127.557 89.9327 127.854 89.9327C128.374 89.9327 128.733 89.8182 128.931 89.5892C129.129 89.3541 129.228 88.9891 129.228 88.4941V84.3732H130.685V88.4941ZM133.406 85.5983H131.42V84.3732H136.85V85.5983H134.863V91H133.406V85.5983ZM137.614 84.3732H142.57V85.5983H139.071V87.0183H142.282V88.1507H139.071V89.7749H142.644V91H137.614V84.3732ZM145.089 87.371H146.685C147.02 87.371 147.27 87.2968 147.437 87.1483C147.604 86.9998 147.688 86.7585 147.688 86.4243C147.688 86.1026 147.604 85.8706 147.437 85.7282C147.27 85.5797 147.02 85.5055 146.685 85.5055H145.089V87.371ZM143.632 84.3732H147.205C147.502 84.3732 147.768 84.4227 148.003 84.5217C148.245 84.6145 148.449 84.7444 148.616 84.9115C148.789 85.0786 148.919 85.2735 149.006 85.4962C149.099 85.7128 149.145 85.9479 149.145 86.2016C149.145 86.5914 149.061 86.9286 148.894 87.2132C148.734 87.4979 148.467 87.7144 148.096 87.8629V87.8815C148.276 87.931 148.424 88.0083 148.542 88.1135C148.659 88.2125 148.755 88.3332 148.829 88.4755C148.904 88.6116 148.956 88.7632 148.987 88.9303C149.024 89.0973 149.049 89.2644 149.061 89.4315C149.068 89.5367 149.074 89.6604 149.08 89.8027C149.086 89.945 149.096 90.0904 149.108 90.2389C149.126 90.3874 149.151 90.5297 149.182 90.6659C149.219 90.7958 149.272 90.9072 149.34 91H147.883C147.802 90.7896 147.753 90.539 147.734 90.2482C147.716 89.9574 147.688 89.679 147.651 89.4129C147.601 89.0664 147.496 88.8127 147.335 88.6518C147.174 88.491 146.911 88.4105 146.546 88.4105H145.089V91H143.632V84.3732Z" fill="#373942"/>
<path id="CLIENT" d="M226.718 165.601C226.694 165.434 226.638 165.282 226.551 165.146C226.465 165.004 226.356 164.88 226.227 164.775C226.097 164.669 225.948 164.589 225.781 164.533C225.62 164.471 225.45 164.441 225.271 164.441C224.943 164.441 224.664 164.505 224.435 164.635C224.206 164.759 224.021 164.929 223.878 165.146C223.736 165.356 223.631 165.598 223.563 165.87C223.501 166.142 223.47 166.424 223.47 166.714C223.47 166.993 223.501 167.265 223.563 167.531C223.631 167.791 223.736 168.026 223.878 168.237C224.021 168.447 224.206 168.617 224.435 168.747C224.664 168.871 224.943 168.933 225.271 168.933C225.716 168.933 226.063 168.797 226.31 168.524C226.564 168.252 226.718 167.893 226.774 167.448H228.185C228.148 167.862 228.052 168.237 227.897 168.571C227.742 168.905 227.538 169.189 227.285 169.425C227.031 169.66 226.734 169.839 226.394 169.963C226.053 170.087 225.679 170.149 225.271 170.149C224.763 170.149 224.305 170.062 223.897 169.889C223.495 169.709 223.154 169.465 222.876 169.155C222.598 168.846 222.384 168.484 222.236 168.069C222.087 167.649 222.013 167.197 222.013 166.714C222.013 166.219 222.087 165.762 222.236 165.341C222.384 164.914 222.598 164.543 222.876 164.227C223.154 163.911 223.495 163.664 223.897 163.485C224.305 163.305 224.763 163.215 225.271 163.215C225.636 163.215 225.979 163.268 226.301 163.373C226.629 163.478 226.92 163.633 227.173 163.837C227.433 164.035 227.647 164.283 227.814 164.58C227.981 164.877 228.086 165.217 228.129 165.601H226.718ZM229.18 163.373H230.637V168.775H233.867V170H229.18V163.373ZM234.682 163.373H236.139V170H234.682V163.373ZM237.419 163.373H242.375V164.598H238.876V166.018H242.087V167.151H238.876V168.775H242.449V170H237.419V163.373ZM243.437 163.373H244.885L247.651 167.819H247.669V163.373H249.034V170H247.577L244.82 165.564H244.802V170H243.437V163.373ZM251.783 164.598H249.797V163.373H255.226V164.598H253.24V170H251.783V164.598Z" fill="#373942"/>
<path id="API-LIBRARY" d="M211.476 253.438H213.193L212.358 251.007H212.339L211.476 253.438ZM211.615 249.373H213.11L215.588 256H214.075L213.574 254.524H211.096L210.576 256H209.109L211.615 249.373ZM217.616 252.492H218.749C218.916 252.492 219.077 252.479 219.231 252.455C219.386 252.43 219.522 252.383 219.64 252.315C219.757 252.241 219.85 252.139 219.918 252.009C219.992 251.879 220.029 251.709 220.029 251.499C220.029 251.288 219.992 251.118 219.918 250.988C219.85 250.858 219.757 250.759 219.64 250.691C219.522 250.617 219.386 250.567 219.231 250.543C219.077 250.518 218.916 250.505 218.749 250.505H217.616V252.492ZM216.159 249.373H219.148C219.562 249.373 219.915 249.435 220.206 249.559C220.497 249.676 220.732 249.834 220.911 250.032C221.097 250.23 221.23 250.456 221.31 250.71C221.397 250.963 221.44 251.226 221.44 251.499C221.44 251.765 221.397 252.028 221.31 252.287C221.23 252.541 221.097 252.767 220.911 252.965C220.732 253.163 220.497 253.324 220.206 253.448C219.915 253.565 219.562 253.624 219.148 253.624H217.616V256H216.159V249.373ZM222.35 249.373H223.807V256H222.35V249.373ZM227.67 249.373H229.127V254.775H232.357V256H227.67V249.373ZM233.172 249.373H234.629V256H233.172V249.373ZM237.366 252.055H238.842C239.102 252.055 239.315 251.994 239.482 251.87C239.649 251.746 239.733 251.545 239.733 251.267C239.733 251.112 239.705 250.985 239.649 250.886C239.594 250.787 239.519 250.71 239.427 250.654C239.334 250.598 239.225 250.561 239.102 250.543C238.984 250.518 238.86 250.505 238.73 250.505H237.366V252.055ZM235.909 249.373H239.027C239.343 249.373 239.631 249.401 239.891 249.457C240.15 249.512 240.373 249.605 240.559 249.735C240.744 249.859 240.887 250.026 240.986 250.236C241.091 250.447 241.144 250.707 241.144 251.016C241.144 251.35 241.066 251.629 240.912 251.851C240.763 252.074 240.54 252.257 240.243 252.399C240.652 252.516 240.955 252.724 241.153 253.021C241.357 253.312 241.459 253.664 241.459 254.079C241.459 254.413 241.394 254.704 241.264 254.951C241.134 255.193 240.958 255.391 240.735 255.545C240.519 255.7 240.268 255.814 239.983 255.889C239.705 255.963 239.417 256 239.12 256H235.909V249.373ZM237.366 254.868H238.925C239.068 254.868 239.204 254.855 239.334 254.831C239.464 254.8 239.578 254.753 239.677 254.691C239.776 254.623 239.853 254.534 239.909 254.422C239.971 254.311 240.002 254.168 240.002 253.995C240.002 253.655 239.906 253.414 239.714 253.271C239.522 253.123 239.269 253.049 238.953 253.049H237.366V254.868ZM243.901 252.371H245.497C245.832 252.371 246.082 252.297 246.249 252.148C246.416 252 246.5 251.758 246.5 251.424C246.5 251.103 246.416 250.871 246.249 250.728C246.082 250.58 245.832 250.505 245.497 250.505H243.901V252.371ZM242.444 249.373H246.017C246.314 249.373 246.58 249.423 246.815 249.522C247.057 249.614 247.261 249.744 247.428 249.911C247.601 250.079 247.731 250.273 247.818 250.496C247.911 250.713 247.957 250.948 247.957 251.202C247.957 251.591 247.873 251.929 247.706 252.213C247.545 252.498 247.279 252.714 246.908 252.863V252.881C247.088 252.931 247.236 253.008 247.354 253.114C247.471 253.213 247.567 253.333 247.641 253.475C247.716 253.612 247.768 253.763 247.799 253.93C247.836 254.097 247.861 254.264 247.873 254.431C247.88 254.537 247.886 254.66 247.892 254.803C247.898 254.945 247.907 255.09 247.92 255.239C247.938 255.387 247.963 255.53 247.994 255.666C248.031 255.796 248.084 255.907 248.152 256H246.695C246.614 255.79 246.565 255.539 246.546 255.248C246.528 254.957 246.5 254.679 246.463 254.413C246.413 254.066 246.308 253.813 246.147 253.652C245.986 253.491 245.723 253.411 245.358 253.411H243.901V256H242.444V249.373ZM250.813 253.438H252.53L251.694 251.007H251.676L250.813 253.438ZM250.952 249.373H252.446L254.924 256H253.411L252.91 254.524H250.432L249.912 256H248.446L250.952 249.373ZM256.953 252.371H258.549C258.883 252.371 259.134 252.297 259.301 252.148C259.468 252 259.552 251.758 259.552 251.424C259.552 251.103 259.468 250.871 259.301 250.728C259.134 250.58 258.883 250.505 258.549 250.505H256.953V252.371ZM255.496 249.373H259.069C259.366 249.373 259.632 249.423 259.867 249.522C260.108 249.614 260.313 249.744 260.48 249.911C260.653 250.079 260.783 250.273 260.87 250.496C260.962 250.713 261.009 250.948 261.009 251.202C261.009 251.591 260.925 251.929 260.758 252.213C260.597 252.498 260.331 252.714 259.96 252.863V252.881C260.139 252.931 260.288 253.008 260.405 253.114C260.523 253.213 260.619 253.333 260.693 253.475C260.767 253.612 260.82 253.763 260.851 253.93C260.888 254.097 260.913 254.264 260.925 254.431C260.931 254.537 260.938 254.66 260.944 254.803C260.95 254.945 260.959 255.09 260.972 255.239C260.99 255.387 261.015 255.53 261.046 255.666C261.083 255.796 261.136 255.907 261.204 256H259.746C259.666 255.79 259.617 255.539 259.598 255.248C259.579 254.957 259.552 254.679 259.514 254.413C259.465 254.066 259.36 253.813 259.199 253.652C259.038 253.491 258.775 253.411 258.41 253.411H256.953V256H255.496V249.373ZM263.566 253.42L261.135 249.373H262.768L264.318 251.99L265.859 249.373H267.483L265.024 253.457V256H263.566V253.42Z" fill="#373942"/>
<path id="LISTENER" d="M417.224 83.3732H418.682V88.7749H421.911V90H417.224V83.3732ZM422.726 83.3732H424.183V90H422.726V83.3732ZM426.456 87.8003C426.456 88.0231 426.497 88.2118 426.577 88.3665C426.657 88.5212 426.763 88.648 426.893 88.747C427.029 88.8398 427.187 88.911 427.366 88.9605C427.545 89.0038 427.731 89.0255 427.923 89.0255C428.053 89.0255 428.192 89.0162 428.34 88.9976C428.489 88.9729 428.628 88.9296 428.758 88.8677C428.888 88.8058 428.996 88.7223 429.083 88.6171C429.17 88.5057 429.213 88.3665 429.213 88.1994C429.213 88.02 429.154 87.8746 429.037 87.7632C428.925 87.6518 428.777 87.559 428.591 87.4848C428.405 87.4105 428.195 87.3456 427.96 87.2899C427.725 87.2342 427.487 87.1723 427.245 87.1042C426.998 87.0424 426.756 86.9681 426.521 86.8815C426.286 86.7887 426.076 86.6711 425.89 86.5288C425.705 86.3865 425.553 86.2102 425.435 85.9998C425.324 85.7832 425.268 85.5233 425.268 85.2202C425.268 84.8798 425.34 84.5859 425.482 84.3384C425.63 84.0847 425.822 83.8744 426.057 83.7073C426.292 83.5402 426.558 83.4165 426.855 83.3361C427.152 83.2556 427.449 83.2154 427.746 83.2154C428.093 83.2154 428.424 83.2556 428.74 83.3361C429.061 83.4103 429.346 83.5341 429.593 83.7073C429.841 83.8806 430.036 84.1033 430.178 84.3756C430.327 84.6416 430.401 84.9665 430.401 85.3501H428.99C428.978 85.1521 428.934 84.9881 428.86 84.8582C428.792 84.7282 428.699 84.6262 428.582 84.5519C428.464 84.4777 428.328 84.4251 428.173 84.3941C428.025 84.3632 427.861 84.3477 427.682 84.3477C427.564 84.3477 427.446 84.3601 427.329 84.3848C427.211 84.4096 427.103 84.4529 427.004 84.5148C426.911 84.5767 426.834 84.654 426.772 84.7468C426.71 84.8396 426.679 84.9572 426.679 85.0995C426.679 85.2294 426.704 85.3346 426.753 85.4151C426.803 85.4955 426.899 85.5697 427.041 85.6378C427.19 85.7059 427.391 85.7739 427.644 85.842C427.904 85.9101 428.241 85.9967 428.656 86.1019C428.78 86.1266 428.95 86.173 429.167 86.2411C429.389 86.303 429.609 86.4051 429.825 86.5474C430.042 86.6897 430.228 86.8815 430.382 87.1228C430.543 87.3579 430.624 87.6611 430.624 88.0324C430.624 88.3356 430.565 88.6171 430.447 88.877C430.33 89.1368 430.153 89.3627 429.918 89.5545C429.689 89.7401 429.402 89.8855 429.055 89.9907C428.715 90.0959 428.319 90.1485 427.867 90.1485C427.502 90.1485 427.146 90.1021 426.8 90.0093C426.459 89.9227 426.156 89.7834 425.89 89.5916C425.63 89.3998 425.423 89.1554 425.268 88.8584C425.114 88.5614 425.039 88.2087 425.046 87.8003H426.456ZM432.957 84.5983H430.971V83.3732H436.4V84.5983H434.414V90H432.957V84.5983ZM437.165 83.3732H442.121V84.5983H438.622V86.0183H441.833V87.1507H438.622V88.7749H442.195V90H437.165V83.3732ZM443.183 83.3732H444.631L447.397 87.8189H447.415V83.3732H448.779V90H447.322L444.566 85.5636H444.547V90H443.183V83.3732ZM450.062 83.3732H455.018V84.5983H451.519V86.0183H454.731V87.1507H451.519V88.7749H455.093V90H450.062V83.3732ZM457.538 86.371H459.134C459.468 86.371 459.719 86.2968 459.886 86.1483C460.053 85.9998 460.136 85.7585 460.136 85.4243C460.136 85.1026 460.053 84.8706 459.886 84.7282C459.719 84.5797 459.468 84.5055 459.134 84.5055H457.538V86.371ZM456.081 83.3732H459.654C459.951 83.3732 460.217 83.4227 460.452 83.5217C460.693 83.6145 460.897 83.7444 461.065 83.9115C461.238 84.0786 461.368 84.2735 461.454 84.4962C461.547 84.7128 461.594 84.9479 461.594 85.2016C461.594 85.5914 461.51 85.9286 461.343 86.2132C461.182 86.4979 460.916 86.7144 460.545 86.8629V86.8815C460.724 86.931 460.873 87.0083 460.99 87.1135C461.108 87.2125 461.204 87.3332 461.278 87.4755C461.352 87.6116 461.405 87.7632 461.436 87.9303C461.473 88.0973 461.498 88.2644 461.51 88.4315C461.516 88.5367 461.522 88.6604 461.529 88.8027C461.535 88.945 461.544 89.0904 461.556 89.2389C461.575 89.3874 461.6 89.5297 461.631 89.6659C461.668 89.7958 461.72 89.9072 461.788 90H460.331C460.251 89.7896 460.201 89.539 460.183 89.2482C460.164 88.9574 460.136 88.679 460.099 88.4129C460.05 88.0664 459.945 87.8127 459.784 87.6518C459.623 87.491 459.36 87.4105 458.995 87.4105H457.538V90H456.081V83.3732Z" fill="#373942"/>
<path id="LISTENER_2" d="M623.474 83.3732H624.931V88.7749H628.161V90H623.474V83.3732ZM628.976 83.3732H630.433V90H628.976V83.3732ZM632.706 87.8003C632.706 88.0231 632.747 88.2118 632.827 88.3665C632.907 88.5212 633.013 88.648 633.143 88.747C633.279 88.8398 633.436 88.911 633.616 88.9605C633.795 89.0038 633.981 89.0255 634.173 89.0255C634.303 89.0255 634.442 89.0162 634.59 88.9976C634.739 88.9729 634.878 88.9296 635.008 88.8677C635.138 88.8058 635.246 88.7223 635.333 88.6171C635.42 88.5057 635.463 88.3665 635.463 88.1994C635.463 88.02 635.404 87.8746 635.287 87.7632C635.175 87.6518 635.027 87.559 634.841 87.4848C634.655 87.4105 634.445 87.3456 634.21 87.2899C633.975 87.2342 633.737 87.1723 633.495 87.1042C633.248 87.0424 633.006 86.9681 632.771 86.8815C632.536 86.7887 632.326 86.6711 632.14 86.5288C631.955 86.3865 631.803 86.2102 631.685 85.9998C631.574 85.7832 631.518 85.5233 631.518 85.2202C631.518 84.8798 631.59 84.5859 631.732 84.3384C631.88 84.0847 632.072 83.8744 632.307 83.7073C632.542 83.5402 632.808 83.4165 633.105 83.3361C633.402 83.2556 633.699 83.2154 633.996 83.2154C634.343 83.2154 634.674 83.2556 634.99 83.3361C635.311 83.4103 635.596 83.5341 635.843 83.7073C636.091 83.8806 636.286 84.1033 636.428 84.3756C636.577 84.6416 636.651 84.9665 636.651 85.3501H635.24C635.228 85.1521 635.184 84.9881 635.11 84.8582C635.042 84.7282 634.949 84.6262 634.832 84.5519C634.714 84.4777 634.578 84.4251 634.423 84.3941C634.275 84.3632 634.111 84.3477 633.931 84.3477C633.814 84.3477 633.696 84.3601 633.579 84.3848C633.461 84.4096 633.353 84.4529 633.254 84.5148C633.161 84.5767 633.084 84.654 633.022 84.7468C632.96 84.8396 632.929 84.9572 632.929 85.0995C632.929 85.2294 632.954 85.3346 633.003 85.4151C633.053 85.4955 633.149 85.5697 633.291 85.6378C633.44 85.7059 633.641 85.7739 633.894 85.842C634.154 85.9101 634.491 85.9967 634.906 86.1019C635.03 86.1266 635.2 86.173 635.416 86.2411C635.639 86.303 635.859 86.4051 636.075 86.5474C636.292 86.6897 636.478 86.8815 636.632 87.1228C636.793 87.3579 636.874 87.6611 636.874 88.0324C636.874 88.3356 636.815 88.6171 636.697 88.877C636.58 89.1368 636.403 89.3627 636.168 89.5545C635.939 89.7401 635.652 89.8855 635.305 89.9907C634.965 90.0959 634.569 90.1485 634.117 90.1485C633.752 90.1485 633.396 90.1021 633.05 90.0093C632.709 89.9227 632.406 89.7834 632.14 89.5916C631.88 89.3998 631.673 89.1554 631.518 88.8584C631.364 88.5614 631.289 88.2087 631.296 87.8003H632.706ZM639.207 84.5983H637.221V83.3732H642.65V84.5983H640.664V90H639.207V84.5983ZM643.415 83.3732H648.371V84.5983H644.872V86.0183H648.083V87.1507H644.872V88.7749H648.445V90H643.415V83.3732ZM649.433 83.3732H650.881L653.647 87.8189H653.665V83.3732H655.029V90H653.572L650.816 85.5636H650.797V90H649.433V83.3732ZM656.312 83.3732H661.268V84.5983H657.769V86.0183H660.981V87.1507H657.769V88.7749H661.343V90H656.312V83.3732ZM663.788 86.371H665.384C665.718 86.371 665.969 86.2968 666.136 86.1483C666.303 85.9998 666.386 85.7585 666.386 85.4243C666.386 85.1026 666.303 84.8706 666.136 84.7282C665.969 84.5797 665.718 84.5055 665.384 84.5055H663.788V86.371ZM662.331 83.3732H665.904C666.201 83.3732 666.467 83.4227 666.702 83.5217C666.943 83.6145 667.147 83.7444 667.315 83.9115C667.488 84.0786 667.618 84.2735 667.704 84.4962C667.797 84.7128 667.844 84.9479 667.844 85.2016C667.844 85.5914 667.76 85.9286 667.593 86.2132C667.432 86.4979 667.166 86.7144 666.795 86.8629V86.8815C666.974 86.931 667.123 87.0083 667.24 87.1135C667.358 87.2125 667.454 87.3332 667.528 87.4755C667.602 87.6116 667.655 87.7632 667.686 87.9303C667.723 88.0973 667.748 88.2644 667.76 88.4315C667.766 88.5367 667.772 88.6604 667.779 88.8027C667.785 88.945 667.794 89.0904 667.806 89.2389C667.825 89.3874 667.85 89.5297 667.881 89.6659C667.918 89.7958 667.97 89.9072 668.038 90H666.581C666.501 89.7896 666.451 89.539 666.433 89.2482C666.414 88.9574 666.386 88.679 666.349 88.4129C666.3 88.0664 666.195 87.8127 666.034 87.6518C665.873 87.491 665.61 87.4105 665.245 87.4105H663.788V90H662.331V83.3732Z" fill="#373942"/>
<path id="CLIENT_2" d="M427.554 166.601C427.53 166.434 427.474 166.282 427.387 166.146C427.301 166.004 427.192 165.88 427.062 165.775C426.933 165.669 426.784 165.589 426.617 165.533C426.456 165.471 426.286 165.441 426.107 165.441C425.779 165.441 425.5 165.505 425.271 165.635C425.042 165.759 424.857 165.929 424.714 166.146C424.572 166.356 424.467 166.598 424.399 166.87C424.337 167.142 424.306 167.424 424.306 167.714C424.306 167.993 424.337 168.265 424.399 168.531C424.467 168.791 424.572 169.026 424.714 169.237C424.857 169.447 425.042 169.617 425.271 169.747C425.5 169.871 425.779 169.933 426.107 169.933C426.552 169.933 426.899 169.797 427.146 169.524C427.4 169.252 427.554 168.893 427.61 168.448H429.021C428.984 168.862 428.888 169.237 428.733 169.571C428.578 169.905 428.374 170.189 428.121 170.425C427.867 170.66 427.57 170.839 427.23 170.963C426.889 171.087 426.515 171.149 426.107 171.149C425.599 171.149 425.141 171.062 424.733 170.889C424.331 170.709 423.99 170.465 423.712 170.155C423.434 169.846 423.22 169.484 423.072 169.069C422.923 168.649 422.849 168.197 422.849 167.714C422.849 167.219 422.923 166.762 423.072 166.341C423.22 165.914 423.434 165.543 423.712 165.227C423.99 164.911 424.331 164.664 424.733 164.485C425.141 164.305 425.599 164.215 426.107 164.215C426.472 164.215 426.815 164.268 427.137 164.373C427.465 164.478 427.755 164.633 428.009 164.837C428.269 165.035 428.483 165.283 428.65 165.58C428.817 165.877 428.922 166.217 428.965 166.601H427.554ZM430.016 164.373H431.473V169.775H434.703V171H430.016V164.373ZM435.518 164.373H436.975V171H435.518V164.373ZM438.255 164.373H443.211V165.598H439.712V167.018H442.923V168.151H439.712V169.775H443.285V171H438.255V164.373ZM444.273 164.373H445.721L448.487 168.819H448.505V164.373H449.87V171H448.413L445.656 166.564H445.637V171H444.273V164.373ZM452.619 165.598H450.633V164.373H456.062V165.598H454.076V171H452.619V165.598Z" fill="#373942"/>
<g id="DB-CONNECTOR">
<path id="DB" d="M640.942 163.775H642.241C642.451 163.775 642.656 163.741 642.854 163.673C643.052 163.605 643.228 163.493 643.383 163.339C643.537 163.178 643.661 162.97 643.754 162.717C643.847 162.463 643.893 162.154 643.893 161.789C643.893 161.455 643.859 161.154 643.791 160.888C643.729 160.616 643.624 160.384 643.475 160.192C643.327 160 643.129 159.855 642.881 159.756C642.64 159.651 642.34 159.598 641.981 159.598H640.942V163.775ZM639.485 158.373H642.343C642.77 158.373 643.166 158.441 643.531 158.577C643.902 158.713 644.221 158.918 644.487 159.19C644.759 159.462 644.97 159.802 645.118 160.211C645.273 160.619 645.35 161.099 645.35 161.649C645.35 162.132 645.288 162.578 645.165 162.986C645.041 163.394 644.852 163.747 644.598 164.044C644.351 164.341 644.039 164.576 643.661 164.749C643.29 164.916 642.851 165 642.343 165H639.485V158.373ZM647.821 161.055H649.297C649.557 161.055 649.77 160.994 649.937 160.87C650.104 160.746 650.188 160.545 650.188 160.267C650.188 160.112 650.16 159.985 650.104 159.886C650.049 159.787 649.974 159.71 649.881 159.654C649.789 159.598 649.68 159.561 649.557 159.543C649.439 159.518 649.315 159.505 649.185 159.505H647.821V161.055ZM646.364 158.373H649.482C649.798 158.373 650.086 158.401 650.346 158.457C650.605 158.512 650.828 158.605 651.014 158.735C651.199 158.859 651.342 159.026 651.441 159.236C651.546 159.447 651.599 159.707 651.599 160.016C651.599 160.35 651.521 160.629 651.366 160.851C651.218 161.074 650.995 161.257 650.698 161.399C651.107 161.516 651.41 161.724 651.608 162.021C651.812 162.312 651.914 162.664 651.914 163.079C651.914 163.413 651.849 163.704 651.719 163.951C651.589 164.193 651.413 164.391 651.19 164.545C650.974 164.7 650.723 164.814 650.438 164.889C650.16 164.963 649.872 165 649.575 165H646.364V158.373ZM647.821 163.868H649.38C649.523 163.868 649.659 163.855 649.789 163.831C649.919 163.8 650.033 163.753 650.132 163.691C650.231 163.623 650.308 163.534 650.364 163.422C650.426 163.311 650.457 163.168 650.457 162.995C650.457 162.655 650.361 162.414 650.169 162.271C649.977 162.123 649.724 162.049 649.408 162.049H647.821V163.868Z" fill="#373942"/>
<path id="CONNECTOR" d="M620.504 171.687C620.48 171.52 620.424 171.368 620.337 171.232C620.251 171.09 620.142 170.966 620.012 170.861C619.882 170.755 619.734 170.675 619.567 170.619C619.406 170.557 619.236 170.526 619.056 170.526C618.729 170.526 618.45 170.591 618.221 170.721C617.992 170.845 617.807 171.015 617.664 171.232C617.522 171.442 617.417 171.684 617.349 171.956C617.287 172.228 617.256 172.51 617.256 172.8C617.256 173.079 617.287 173.351 617.349 173.617C617.417 173.877 617.522 174.112 617.664 174.322C617.807 174.533 617.992 174.703 618.221 174.833C618.45 174.957 618.729 175.019 619.056 175.019C619.502 175.019 619.848 174.882 620.096 174.61C620.35 174.338 620.504 173.979 620.56 173.534H621.971C621.934 173.948 621.838 174.322 621.683 174.657C621.528 174.991 621.324 175.275 621.07 175.51C620.817 175.746 620.52 175.925 620.179 176.049C619.839 176.173 619.465 176.234 619.056 176.234C618.549 176.234 618.091 176.148 617.683 175.975C617.281 175.795 616.94 175.551 616.662 175.241C616.383 174.932 616.17 174.57 616.021 174.155C615.873 173.735 615.799 173.283 615.799 172.8C615.799 172.305 615.873 171.847 616.021 171.427C616.17 171 616.383 170.629 616.662 170.313C616.94 169.997 617.281 169.75 617.683 169.57C618.091 169.391 618.549 169.301 619.056 169.301C619.422 169.301 619.765 169.354 620.087 169.459C620.415 169.564 620.705 169.719 620.959 169.923C621.219 170.121 621.432 170.369 621.6 170.666C621.767 170.963 621.872 171.303 621.915 171.687H620.504ZM624.135 172.8C624.135 173.079 624.166 173.351 624.228 173.617C624.296 173.877 624.401 174.112 624.544 174.322C624.686 174.533 624.872 174.703 625.101 174.833C625.329 174.957 625.608 175.019 625.936 175.019C626.264 175.019 626.542 174.957 626.771 174.833C627 174.703 627.186 174.533 627.328 174.322C627.47 174.112 627.572 173.877 627.634 173.617C627.702 173.351 627.736 173.079 627.736 172.8C627.736 172.51 627.702 172.228 627.634 171.956C627.572 171.684 627.47 171.442 627.328 171.232C627.186 171.015 627 170.845 626.771 170.721C626.542 170.591 626.264 170.526 625.936 170.526C625.608 170.526 625.329 170.591 625.101 170.721C624.872 170.845 624.686 171.015 624.544 171.232C624.401 171.442 624.296 171.684 624.228 171.956C624.166 172.228 624.135 172.51 624.135 172.8ZM622.678 172.8C622.678 172.305 622.752 171.847 622.901 171.427C623.049 171 623.263 170.629 623.541 170.313C623.82 169.997 624.16 169.75 624.562 169.57C624.971 169.391 625.428 169.301 625.936 169.301C626.449 169.301 626.907 169.391 627.309 169.57C627.712 169.75 628.052 169.997 628.33 170.313C628.609 170.629 628.822 171 628.971 171.427C629.119 171.847 629.194 172.305 629.194 172.8C629.194 173.283 629.119 173.735 628.971 174.155C628.822 174.57 628.609 174.932 628.33 175.241C628.052 175.551 627.712 175.795 627.309 175.975C626.907 176.148 626.449 176.234 625.936 176.234C625.428 176.234 624.971 176.148 624.562 175.975C624.16 175.795 623.82 175.551 623.541 175.241C623.263 174.932 623.049 174.57 622.901 174.155C622.752 173.735 622.678 173.283 622.678 172.8ZM630.19 169.459H631.637L634.403 173.905H634.422V169.459H635.786V176.086H634.329L631.573 171.649H631.554V176.086H630.19V169.459ZM637.069 169.459H638.517L641.283 173.905H641.301V169.459H642.666V176.086H641.208L638.452 171.649H638.433V176.086H637.069V169.459ZM643.948 169.459H648.905V170.684H645.405V172.104H648.617V173.237H645.405V174.861H648.979V176.086H643.948V169.459ZM654.385 171.687C654.36 171.52 654.304 171.368 654.217 171.232C654.131 171.09 654.023 170.966 653.893 170.861C653.763 170.755 653.614 170.675 653.447 170.619C653.286 170.557 653.116 170.526 652.937 170.526C652.609 170.526 652.33 170.591 652.101 170.721C651.872 170.845 651.687 171.015 651.544 171.232C651.402 171.442 651.297 171.684 651.229 171.956C651.167 172.228 651.136 172.51 651.136 172.8C651.136 173.079 651.167 173.351 651.229 173.617C651.297 173.877 651.402 174.112 651.544 174.322C651.687 174.533 651.872 174.703 652.101 174.833C652.33 174.957 652.609 175.019 652.937 175.019C653.382 175.019 653.729 174.882 653.976 174.61C654.23 174.338 654.385 173.979 654.44 173.534H655.851C655.814 173.948 655.718 174.322 655.563 174.657C655.409 174.991 655.204 175.275 654.951 175.51C654.697 175.746 654.4 175.925 654.06 176.049C653.719 176.173 653.345 176.234 652.937 176.234C652.429 176.234 651.971 176.148 651.563 175.975C651.161 175.795 650.821 175.551 650.542 175.241C650.264 174.932 650.05 174.57 649.902 174.155C649.753 173.735 649.679 173.283 649.679 172.8C649.679 172.305 649.753 171.847 649.902 171.427C650.05 171 650.264 170.629 650.542 170.313C650.821 169.997 651.161 169.75 651.563 169.57C651.971 169.391 652.429 169.301 652.937 169.301C653.302 169.301 653.645 169.354 653.967 169.459C654.295 169.564 654.586 169.719 654.839 169.923C655.099 170.121 655.313 170.369 655.48 170.666C655.647 170.963 655.752 171.303 655.795 171.687H654.385ZM658.312 170.684H656.326V169.459H661.756V170.684H659.77V176.086H658.312V170.684ZM663.689 172.8C663.689 173.079 663.72 173.351 663.782 173.617C663.85 173.877 663.955 174.112 664.098 174.322C664.24 174.533 664.426 174.703 664.655 174.833C664.884 174.957 665.162 175.019 665.49 175.019C665.818 175.019 666.096 174.957 666.325 174.833C666.554 174.703 666.74 174.533 666.882 174.322C667.024 174.112 667.126 173.877 667.188 173.617C667.256 173.351 667.29 173.079 667.29 172.8C667.29 172.51 667.256 172.228 667.188 171.956C667.126 171.684 667.024 171.442 666.882 171.232C666.74 171.015 666.554 170.845 666.325 170.721C666.096 170.591 665.818 170.526 665.49 170.526C665.162 170.526 664.884 170.591 664.655 170.721C664.426 170.845 664.24 171.015 664.098 171.232C663.955 171.442 663.85 171.684 663.782 171.956C663.72 172.228 663.689 172.51 663.689 172.8ZM662.232 172.8C662.232 172.305 662.306 171.847 662.455 171.427C662.603 171 662.817 170.629 663.095 170.313C663.374 169.997 663.714 169.75 664.116 169.57C664.525 169.391 664.983 169.301 665.49 169.301C666.003 169.301 666.461 169.391 666.864 169.57C667.266 169.75 667.606 169.997 667.884 170.313C668.163 170.629 668.376 171 668.525 171.427C668.673 171.847 668.748 172.305 668.748 172.8C668.748 173.283 668.673 173.735 668.525 174.155C668.376 174.57 668.163 174.932 667.884 175.241C667.606 175.551 667.266 175.795 666.864 175.975C666.461 176.148 666.003 176.234 665.49 176.234C664.983 176.234 664.525 176.148 664.116 175.975C663.714 175.795 663.374 175.551 663.095 175.241C662.817 174.932 662.603 174.57 662.455 174.155C662.306 173.735 662.232 173.283 662.232 172.8ZM671.201 172.457H672.797C673.131 172.457 673.382 172.383 673.549 172.234C673.716 172.086 673.8 171.844 673.8 171.51C673.8 171.189 673.716 170.956 673.549 170.814C673.382 170.666 673.131 170.591 672.797 170.591H671.201V172.457ZM669.744 169.459H673.317C673.614 169.459 673.88 169.509 674.115 169.608C674.356 169.7 674.561 169.83 674.728 169.997C674.901 170.164 675.031 170.359 675.118 170.582C675.21 170.799 675.257 171.034 675.257 171.288C675.257 171.677 675.173 172.015 675.006 172.299C674.845 172.584 674.579 172.8 674.208 172.949V172.967C674.387 173.017 674.536 173.094 674.653 173.199C674.771 173.298 674.867 173.419 674.941 173.561C675.015 173.698 675.068 173.849 675.099 174.016C675.136 174.183 675.161 174.35 675.173 174.517C675.179 174.623 675.186 174.746 675.192 174.889C675.198 175.031 675.207 175.176 675.22 175.325C675.238 175.473 675.263 175.616 675.294 175.752C675.331 175.882 675.384 175.993 675.452 176.086H673.994C673.914 175.876 673.865 175.625 673.846 175.334C673.827 175.043 673.8 174.765 673.762 174.499C673.713 174.152 673.608 173.899 673.447 173.738C673.286 173.577 673.023 173.496 672.658 173.496H671.201V176.086H669.744V169.459Z" fill="#373942"/>
</g>
<path id="DATABASE" d="M829.71 88.7749H831.01C831.22 88.7749 831.424 88.7408 831.622 88.6728C831.82 88.6047 831.997 88.4933 832.151 88.3387C832.306 88.1778 832.43 87.9705 832.523 87.7168C832.616 87.4631 832.662 87.1537 832.662 86.7887C832.662 86.4546 832.628 86.1545 832.56 85.8884C832.498 85.6162 832.393 85.3841 832.244 85.1923C832.096 85.0005 831.898 84.8551 831.65 84.7561C831.409 84.6509 831.109 84.5983 830.75 84.5983H829.71V88.7749ZM828.253 83.3732H831.112C831.539 83.3732 831.935 83.4412 832.3 83.5774C832.671 83.7135 832.99 83.9177 833.256 84.1899C833.528 84.4622 833.739 84.8025 833.887 85.2109C834.042 85.6192 834.119 86.0988 834.119 86.6495C834.119 87.1321 834.057 87.5776 833.933 87.986C833.81 88.3943 833.621 88.747 833.367 89.044C833.12 89.341 832.807 89.5762 832.43 89.7494C832.059 89.9165 831.619 90 831.112 90H828.253V83.3732ZM836.803 87.4384H838.52L837.685 85.0067H837.666L836.803 87.4384ZM836.943 83.3732H838.437L840.915 90H839.402L838.901 88.5243H836.423L835.903 90H834.437L836.943 83.3732ZM842.101 84.5983H840.115V83.3732H845.544V84.5983H843.558V90H842.101V84.5983ZM847.127 87.4384H848.844L848.009 85.0067H847.99L847.127 87.4384ZM847.266 83.3732H848.76L851.238 90H849.726L849.224 88.5243H846.746L846.227 90H844.76L847.266 83.3732ZM853.267 86.0555H854.743C855.003 86.0555 855.216 85.9936 855.383 85.8698C855.55 85.7461 855.634 85.545 855.634 85.2666C855.634 85.1119 855.606 84.985 855.55 84.886C855.495 84.787 855.42 84.7097 855.328 84.654C855.235 84.5983 855.126 84.5612 855.003 84.5426C854.885 84.5179 854.761 84.5055 854.631 84.5055H853.267V86.0555ZM851.81 83.3732H854.928C855.244 83.3732 855.532 83.401 855.792 83.4567C856.051 83.5124 856.274 83.6052 856.46 83.7352C856.645 83.8589 856.788 84.026 856.887 84.2363C856.992 84.4467 857.045 84.7066 857.045 85.016C857.045 85.3501 856.967 85.6285 856.813 85.8513C856.664 86.074 856.441 86.2566 856.144 86.3989C856.553 86.5164 856.856 86.7237 857.054 87.0207C857.258 87.3115 857.36 87.6642 857.36 88.0788C857.36 88.4129 857.295 88.7037 857.165 88.9512C857.035 89.1925 856.859 89.3905 856.636 89.5452C856.42 89.6999 856.169 89.8144 855.884 89.8886C855.606 89.9629 855.318 90 855.021 90H851.81V83.3732ZM853.267 88.8677H854.826C854.969 88.8677 855.105 88.8553 855.235 88.8306C855.365 88.7996 855.479 88.7532 855.578 88.6913C855.677 88.6233 855.754 88.5336 855.81 88.4222C855.872 88.3108 855.903 88.1685 855.903 87.9952C855.903 87.6549 855.807 87.4136 855.615 87.2713C855.423 87.1228 855.17 87.0486 854.854 87.0486H853.267V88.8677ZM860.015 87.4384H861.733L860.897 85.0067H860.879L860.015 87.4384ZM860.155 83.3732H861.649L864.127 90H862.614L862.113 88.5243H859.635L859.115 90H857.649L860.155 83.3732ZM865.692 87.8003C865.692 88.0231 865.732 88.2118 865.812 88.3665C865.893 88.5212 865.998 88.648 866.128 88.747C866.264 88.8398 866.422 88.911 866.601 88.9605C866.781 89.0038 866.966 89.0255 867.158 89.0255C867.288 89.0255 867.427 89.0162 867.576 88.9976C867.724 88.9729 867.863 88.9296 867.993 88.8677C868.123 88.8058 868.232 88.7223 868.318 88.6171C868.405 88.5057 868.448 88.3665 868.448 88.1994C868.448 88.02 868.389 87.8746 868.272 87.7632C868.16 87.6518 868.012 87.559 867.826 87.4848C867.641 87.4105 867.43 87.3456 867.195 87.2899C866.96 87.2342 866.722 87.1723 866.481 87.1042C866.233 87.0424 865.992 86.9681 865.757 86.8815C865.521 86.7887 865.311 86.6711 865.125 86.5288C864.94 86.3865 864.788 86.2102 864.671 85.9998C864.559 85.7832 864.504 85.5233 864.504 85.2202C864.504 84.8798 864.575 84.5859 864.717 84.3384C864.866 84.0847 865.057 83.8744 865.293 83.7073C865.528 83.5402 865.794 83.4165 866.091 83.3361C866.388 83.2556 866.685 83.2154 866.982 83.2154C867.328 83.2154 867.659 83.2556 867.975 83.3361C868.297 83.4103 868.581 83.5341 868.829 83.7073C869.076 83.8806 869.271 84.1033 869.413 84.3756C869.562 84.6416 869.636 84.9665 869.636 85.3501H868.225C868.213 85.1521 868.17 84.9881 868.095 84.8582C868.027 84.7282 867.935 84.6262 867.817 84.5519C867.699 84.4777 867.563 84.4251 867.409 84.3941C867.26 84.3632 867.096 84.3477 866.917 84.3477C866.799 84.3477 866.682 84.3601 866.564 84.3848C866.447 84.4096 866.338 84.4529 866.239 84.5148C866.146 84.5767 866.069 84.654 866.007 84.7468C865.945 84.8396 865.914 84.9572 865.914 85.0995C865.914 85.2294 865.939 85.3346 865.989 85.4151C866.038 85.4955 866.134 85.5697 866.276 85.6378C866.425 85.7059 866.626 85.7739 866.88 85.842C867.14 85.9101 867.477 85.9967 867.891 86.1019C868.015 86.1266 868.185 86.173 868.402 86.2411C868.625 86.303 868.844 86.4051 869.061 86.5474C869.277 86.6897 869.463 86.8815 869.618 87.1228C869.778 87.3579 869.859 87.6611 869.859 88.0324C869.859 88.3356 869.8 88.6171 869.683 88.877C869.565 89.1368 869.389 89.3627 869.154 89.5545C868.925 89.7401 868.637 89.8855 868.29 89.9907C867.95 90.0959 867.554 90.1485 867.102 90.1485C866.737 90.1485 866.382 90.1021 866.035 90.0093C865.695 89.9227 865.392 89.7834 865.125 89.5916C864.866 89.3998 864.658 89.1554 864.504 88.8584C864.349 88.5614 864.275 88.2087 864.281 87.8003H865.692ZM870.726 83.3732H875.682V84.5983H872.183V86.0183H875.394V87.1507H872.183V88.7749H875.756V90H870.726V83.3732Z" fill="#373942"/>
<path id="DB-CONFIG" d="M621.586 253.775H622.885C623.095 253.775 623.3 253.741 623.498 253.673C623.696 253.605 623.872 253.493 624.027 253.339C624.181 253.178 624.305 252.97 624.398 252.717C624.491 252.463 624.537 252.154 624.537 251.789C624.537 251.455 624.503 251.154 624.435 250.888C624.373 250.616 624.268 250.384 624.119 250.192C623.971 250 623.773 249.855 623.525 249.756C623.284 249.651 622.984 249.598 622.625 249.598H621.586V253.775ZM620.128 248.373H622.987C623.414 248.373 623.81 248.441 624.175 248.577C624.546 248.713 624.865 248.918 625.131 249.19C625.403 249.462 625.614 249.802 625.762 250.211C625.917 250.619 625.994 251.099 625.994 251.649C625.994 252.132 625.932 252.578 625.809 252.986C625.685 253.394 625.496 253.747 625.242 254.044C624.995 254.341 624.682 254.576 624.305 254.749C623.934 254.916 623.494 255 622.987 255H620.128V248.373ZM628.465 251.055H629.941C630.201 251.055 630.414 250.994 630.581 250.87C630.748 250.746 630.832 250.545 630.832 250.267C630.832 250.112 630.804 249.985 630.748 249.886C630.692 249.787 630.618 249.71 630.525 249.654C630.433 249.598 630.324 249.561 630.201 249.543C630.083 249.518 629.959 249.505 629.829 249.505H628.465V251.055ZM627.008 248.373H630.126C630.442 248.373 630.73 248.401 630.989 248.457C631.249 248.512 631.472 248.605 631.658 248.735C631.843 248.859 631.986 249.026 632.085 249.236C632.19 249.447 632.242 249.707 632.242 250.016C632.242 250.35 632.165 250.629 632.01 250.851C631.862 251.074 631.639 251.257 631.342 251.399C631.751 251.516 632.054 251.724 632.252 252.021C632.456 252.312 632.558 252.664 632.558 253.079C632.558 253.413 632.493 253.704 632.363 253.951C632.233 254.193 632.057 254.391 631.834 254.545C631.617 254.7 631.367 254.814 631.082 254.889C630.804 254.963 630.516 255 630.219 255H627.008V248.373ZM628.465 253.868H630.024C630.167 253.868 630.303 253.855 630.433 253.831C630.563 253.8 630.677 253.753 630.776 253.691C630.875 253.623 630.952 253.534 631.008 253.422C631.07 253.311 631.101 253.168 631.101 252.995C631.101 252.655 631.005 252.414 630.813 252.271C630.621 252.123 630.368 252.049 630.052 252.049H628.465V253.868ZM640.544 250.601C640.519 250.434 640.463 250.282 640.377 250.146C640.29 250.004 640.182 249.88 640.052 249.775C639.922 249.669 639.773 249.589 639.606 249.533C639.446 249.471 639.275 249.441 639.096 249.441C638.768 249.441 638.49 249.505 638.261 249.635C638.032 249.759 637.846 249.929 637.704 250.146C637.561 250.356 637.456 250.598 637.388 250.87C637.326 251.142 637.295 251.424 637.295 251.714C637.295 251.993 637.326 252.265 637.388 252.531C637.456 252.791 637.561 253.026 637.704 253.237C637.846 253.447 638.032 253.617 638.261 253.747C638.49 253.871 638.768 253.933 639.096 253.933C639.541 253.933 639.888 253.797 640.135 253.524C640.389 253.252 640.544 252.893 640.599 252.448H642.01C641.973 252.862 641.877 253.237 641.723 253.571C641.568 253.905 641.364 254.189 641.11 254.425C640.856 254.66 640.559 254.839 640.219 254.963C639.879 255.087 639.504 255.149 639.096 255.149C638.589 255.149 638.131 255.062 637.722 254.889C637.32 254.709 636.98 254.465 636.701 254.155C636.423 253.846 636.209 253.484 636.061 253.069C635.912 252.649 635.838 252.197 635.838 251.714C635.838 251.219 635.912 250.762 636.061 250.341C636.209 249.914 636.423 249.543 636.701 249.227C636.98 248.911 637.32 248.664 637.722 248.485C638.131 248.305 638.589 248.215 639.096 248.215C639.461 248.215 639.804 248.268 640.126 248.373C640.454 248.478 640.745 248.633 640.999 248.837C641.258 249.035 641.472 249.283 641.639 249.58C641.806 249.877 641.911 250.217 641.955 250.601H640.544ZM644.175 251.714C644.175 251.993 644.206 252.265 644.268 252.531C644.336 252.791 644.441 253.026 644.583 253.237C644.725 253.447 644.911 253.617 645.14 253.747C645.369 253.871 645.647 253.933 645.975 253.933C646.303 253.933 646.582 253.871 646.811 253.747C647.04 253.617 647.225 253.447 647.367 253.237C647.51 253.026 647.612 252.791 647.674 252.531C647.742 252.265 647.776 251.993 647.776 251.714C647.776 251.424 647.742 251.142 647.674 250.87C647.612 250.598 647.51 250.356 647.367 250.146C647.225 249.929 647.04 249.759 646.811 249.635C646.582 249.505 646.303 249.441 645.975 249.441C645.647 249.441 645.369 249.505 645.14 249.635C644.911 249.759 644.725 249.929 644.583 250.146C644.441 250.356 644.336 250.598 644.268 250.87C644.206 251.142 644.175 251.424 644.175 251.714ZM642.718 251.714C642.718 251.219 642.792 250.762 642.94 250.341C643.089 249.914 643.302 249.543 643.581 249.227C643.859 248.911 644.199 248.664 644.602 248.485C645.01 248.305 645.468 248.215 645.975 248.215C646.489 248.215 646.947 248.305 647.349 248.485C647.751 248.664 648.091 248.911 648.37 249.227C648.648 249.543 648.862 249.914 649.01 250.341C649.159 250.762 649.233 251.219 649.233 251.714C649.233 252.197 649.159 252.649 649.01 253.069C648.862 253.484 648.648 253.846 648.37 254.155C648.091 254.465 647.751 254.709 647.349 254.889C646.947 255.062 646.489 255.149 645.975 255.149C645.468 255.149 645.01 255.062 644.602 254.889C644.199 254.709 643.859 254.465 643.581 254.155C643.302 253.846 643.089 253.484 642.94 253.069C642.792 252.649 642.718 252.197 642.718 251.714ZM650.229 248.373H651.677L654.443 252.819H654.461V248.373H655.826V255H654.368L651.612 250.564H651.593V255H650.229V248.373ZM657.108 248.373H661.768V249.598H658.566V251.13H661.341V252.262H658.566V255H657.108V248.373ZM662.61 248.373H664.067V255H662.61V248.373ZM670.136 254.248C669.877 254.582 669.589 254.817 669.273 254.954C668.958 255.084 668.639 255.149 668.317 255.149C667.81 255.149 667.352 255.062 666.944 254.889C666.542 254.709 666.201 254.465 665.923 254.155C665.644 253.846 665.431 253.484 665.282 253.069C665.134 252.649 665.06 252.197 665.06 251.714C665.06 251.219 665.134 250.762 665.282 250.341C665.431 249.914 665.644 249.543 665.923 249.227C666.201 248.911 666.542 248.664 666.944 248.485C667.352 248.305 667.81 248.215 668.317 248.215C668.658 248.215 668.986 248.268 669.301 248.373C669.623 248.472 669.911 248.621 670.164 248.819C670.424 249.017 670.638 249.261 670.805 249.552C670.972 249.843 671.074 250.177 671.111 250.554H669.719C669.632 250.183 669.465 249.905 669.218 249.719C668.97 249.533 668.67 249.441 668.317 249.441C667.989 249.441 667.711 249.505 667.482 249.635C667.253 249.759 667.067 249.929 666.925 250.146C666.783 250.356 666.678 250.598 666.61 250.87C666.548 251.142 666.517 251.424 666.517 251.714C666.517 251.993 666.548 252.265 666.61 252.531C666.678 252.791 666.783 253.026 666.925 253.237C667.067 253.447 667.253 253.617 667.482 253.747C667.711 253.871 667.989 253.933 668.317 253.933C668.8 253.933 669.171 253.812 669.431 253.571C669.697 253.323 669.852 252.967 669.895 252.503H668.429V251.417H671.213V255H670.285L670.136 254.248Z" fill="#373942"/>
<path id="OP" d="M125.029 166.714C125.029 166.993 125.06 167.265 125.122 167.531C125.19 167.791 125.295 168.026 125.437 168.237C125.58 168.447 125.765 168.617 125.994 168.747C126.223 168.871 126.502 168.933 126.83 168.933C127.157 168.933 127.436 168.871 127.665 168.747C127.894 168.617 128.079 168.447 128.222 168.237C128.364 168.026 128.466 167.791 128.528 167.531C128.596 167.265 128.63 166.993 128.63 166.714C128.63 166.424 128.596 166.142 128.528 165.87C128.466 165.598 128.364 165.356 128.222 165.146C128.079 164.929 127.894 164.759 127.665 164.635C127.436 164.505 127.157 164.441 126.83 164.441C126.502 164.441 126.223 164.505 125.994 164.635C125.765 164.759 125.58 164.929 125.437 165.146C125.295 165.356 125.19 165.598 125.122 165.87C125.06 166.142 125.029 166.424 125.029 166.714ZM123.572 166.714C123.572 166.219 123.646 165.762 123.795 165.341C123.943 164.914 124.157 164.543 124.435 164.227C124.713 163.911 125.054 163.664 125.456 163.485C125.864 163.305 126.322 163.215 126.83 163.215C127.343 163.215 127.801 163.305 128.203 163.485C128.605 163.664 128.946 163.911 129.224 164.227C129.503 164.543 129.716 164.914 129.864 165.341C130.013 165.762 130.087 166.219 130.087 166.714C130.087 167.197 130.013 167.649 129.864 168.069C129.716 168.484 129.503 168.846 129.224 169.155C128.946 169.465 128.605 169.709 128.203 169.889C127.801 170.062 127.343 170.149 126.83 170.149C126.322 170.149 125.864 170.062 125.456 169.889C125.054 169.709 124.713 169.465 124.435 169.155C124.157 168.846 123.943 168.484 123.795 168.069C123.646 167.649 123.572 167.197 123.572 166.714ZM132.54 166.492H133.673C133.84 166.492 134.001 166.479 134.155 166.455C134.31 166.43 134.446 166.383 134.564 166.315C134.681 166.241 134.774 166.139 134.842 166.009C134.916 165.879 134.954 165.709 134.954 165.499C134.954 165.288 134.916 165.118 134.842 164.988C134.774 164.858 134.681 164.759 134.564 164.691C134.446 164.617 134.31 164.567 134.155 164.543C134.001 164.518 133.84 164.505 133.673 164.505H132.54V166.492ZM131.083 163.373H134.072C134.486 163.373 134.839 163.435 135.13 163.559C135.421 163.676 135.656 163.834 135.835 164.032C136.021 164.23 136.154 164.456 136.234 164.71C136.321 164.963 136.364 165.226 136.364 165.499C136.364 165.765 136.321 166.028 136.234 166.287C136.154 166.541 136.021 166.767 135.835 166.965C135.656 167.163 135.421 167.324 135.13 167.448C134.839 167.565 134.486 167.624 134.072 167.624H132.54V170H131.083V163.373Z" fill="#373942"/>
<path id="E" d="M73.4082 163.373H78.3644V164.598H74.8653V166.018H78.0766V167.151H74.8653V168.775H78.4386V170H73.4082V163.373Z" fill="#E24329"/>
<path id="404" d="M125.089 251.155H125.061L123.382 253.411H125.089V251.155ZM125.089 254.496H122.342V253.29L125.164 249.503H126.342V253.411H127.205V254.496H126.342V256H125.089V254.496ZM128.864 252.724C128.864 252.909 128.87 253.135 128.882 253.401C128.895 253.661 128.932 253.915 128.994 254.162C129.062 254.404 129.167 254.611 129.309 254.784C129.451 254.957 129.656 255.044 129.922 255.044C130.194 255.044 130.401 254.957 130.544 254.784C130.692 254.611 130.797 254.404 130.859 254.162C130.927 253.915 130.967 253.661 130.98 253.401C130.992 253.135 130.998 252.909 130.998 252.724C130.998 252.612 130.995 252.479 130.989 252.325C130.989 252.164 130.977 252 130.952 251.833C130.933 251.666 130.902 251.502 130.859 251.341C130.822 251.174 130.763 251.025 130.683 250.895C130.602 250.765 130.5 250.66 130.376 250.58C130.253 250.499 130.101 250.459 129.922 250.459C129.742 250.459 129.591 250.499 129.467 250.58C129.349 250.66 129.25 250.765 129.17 250.895C129.096 251.025 129.037 251.174 128.994 251.341C128.95 251.502 128.919 251.666 128.901 251.833C128.882 252 128.87 252.164 128.864 252.325C128.864 252.479 128.864 252.612 128.864 252.724ZM127.546 252.724C127.546 252.093 127.608 251.564 127.731 251.137C127.861 250.703 128.035 250.357 128.251 250.097C128.468 249.837 128.718 249.652 129.003 249.54C129.294 249.429 129.6 249.373 129.922 249.373C130.25 249.373 130.556 249.429 130.841 249.54C131.131 249.652 131.385 249.837 131.602 250.097C131.824 250.357 131.998 250.703 132.121 251.137C132.251 251.564 132.316 252.093 132.316 252.724C132.316 253.373 132.251 253.918 132.121 254.357C131.998 254.79 131.824 255.137 131.602 255.397C131.385 255.657 131.131 255.842 130.841 255.954C130.556 256.065 130.25 256.121 129.922 256.121C129.6 256.121 129.294 256.065 129.003 255.954C128.718 255.842 128.468 255.657 128.251 255.397C128.035 255.137 127.861 254.79 127.731 254.357C127.608 253.918 127.546 253.373 127.546 252.724ZM135.404 251.155H135.376L133.696 253.411H135.404V251.155ZM135.404 254.496H132.657V253.29L135.478 249.503H136.657V253.411H137.52V254.496H136.657V256H135.404V254.496Z" fill="#E24329"/>
<path id="Line-14" d="M101.79 248.622L109.281 252.33L101.82 256.098L101.807 253.004L101.34 253.006L100.696 253.009L100.691 251.72L101.335 251.717L101.802 251.715L101.79 248.622ZM76.5062 250.048L76.7621 250.639C77.0253 251.247 77.5856 251.685 78.2435 251.787L78.8804 251.886L78.6831 253.159L78.0461 253.061C76.9482 252.891 76.0171 252.164 75.579 251.151L75.3231 250.56L76.5062 250.048ZM83.9329 251.788L83.9381 253.077L83.2936 253.08L80.7155 253.09L80.071 253.093L80.0657 251.804L80.7103 251.801L83.2884 251.791L83.9329 251.788ZM89.0891 251.767L89.0943 253.056L88.4498 253.059L85.8717 253.069L85.2272 253.072L85.2219 251.783L85.8665 251.78L88.4446 251.77L89.0891 251.767ZM94.2453 251.746L94.2505 253.035L93.606 253.038L91.0279 253.048L90.3834 253.051L90.3781 251.762L91.0227 251.759L94.2453 251.746ZM99.4015 251.725L99.4067 253.014L98.7622 253.017L95.5396 253.03L95.5344 251.741L98.757 251.728L99.4015 251.725ZM76.5805 245.113L76.5837 245.758L76.5963 248.336L76.5994 248.98L75.3104 248.987L75.3072 248.342L75.2946 245.764L75.2915 245.12L76.5805 245.113ZM76.5553 239.957L76.5585 240.602L76.5711 243.18L76.5742 243.824L75.2852 243.831L75.282 243.186L75.2694 240.608L75.2663 239.963L76.5553 239.957ZM76.5301 234.801L76.5333 235.445L76.5459 238.024L76.549 238.668L75.26 238.674L75.2568 238.03L75.2442 235.452L75.2411 234.807L76.5301 234.801ZM76.5049 229.645L76.5081 230.289L76.5207 232.867L76.5238 233.512L75.2348 233.518L75.2316 232.874L75.219 230.296L75.2159 229.651L76.5049 229.645ZM76.4797 224.489L76.4829 225.133L76.4955 227.711L76.4986 228.356L75.2096 228.362L75.2064 227.717L75.1938 225.139L75.1907 224.495L76.4797 224.489ZM76.4545 219.332L76.4577 219.977L76.4703 222.555L76.4734 223.2L75.1844 223.206L75.1812 222.561L75.1686 219.983L75.1655 219.339L76.4545 219.332ZM76.4293 214.176L76.4325 214.821L76.4451 217.399L76.4482 218.043L75.1592 218.05L75.156 217.405L75.1434 214.827L75.1403 214.182L76.4293 214.176ZM76.4041 209.02L76.4073 209.665L76.4199 212.243L76.423 212.887L75.134 212.893L75.1308 212.249L75.1182 209.671L75.1151 209.026L76.4041 209.02ZM76.3789 203.864L76.3821 204.508L76.3947 207.086L76.3978 207.731L75.1088 207.737L75.1056 207.093L75.093 204.515L75.0899 203.87L76.3789 203.864ZM76.3537 198.708L76.3569 199.352L76.3695 201.93L76.3726 202.575L75.0836 202.581L75.0804 201.937L75.0678 199.358L75.0647 198.714L76.3537 198.708ZM76.3285 193.551L76.3317 194.196L76.3443 196.774L76.3474 197.419L75.0584 197.425L75.0552 196.78L75.0426 194.202L75.0395 193.558L76.3285 193.551ZM76.3033 188.395L76.3065 189.04L76.3191 191.618L76.3222 192.262L75.0332 192.269L75.03 191.624L75.0174 189.046L75.0143 188.402L76.3033 188.395ZM76.2781 183.239L76.2813 183.884L76.2939 186.462L76.297 187.106L75.008 187.112L75.0048 186.468L74.9922 183.89L74.9891 183.245L76.2781 183.239Z" fill="#E24329"/>
<path id="Line-16" d="M127.457 222.559L132.484 227.328" stroke="#E24329" stroke-width="1.28906" stroke-linecap="square"/>
<path id="Line-16_2" d="M127.521 227.264L132.42 222.623" stroke="#E24329" stroke-width="1.28906" stroke-linecap="square"/>
<path id="Line-7_4" d="M390.549 83.2224L398.031 86.949L390.561 90.699L390.555 87.6051L318.106 87.7186C317.04 87.7203 316.176 88.5855 316.176 89.6522V164.431C316.176 166.206 314.74 167.647 312.965 167.654L279.311 167.773L278.666 167.776L278.662 166.487L279.306 166.484L312.96 166.365C314.025 166.361 314.887 165.496 314.887 164.431V89.6522C314.887 87.8744 316.326 86.4324 318.104 86.4296L390.554 86.316L390.549 83.2224Z" fill="#66A2FF"/>
<path id="DMZ" d="M327.627 300.845H328.926C329.137 300.845 329.341 300.811 329.539 300.743C329.737 300.675 329.913 300.564 330.068 300.409C330.222 300.248 330.346 300.041 330.439 299.787C330.532 299.533 330.578 299.224 330.578 298.859C330.578 298.525 330.544 298.225 330.476 297.959C330.414 297.686 330.309 297.454 330.161 297.263C330.012 297.071 329.814 296.925 329.567 296.826C329.325 296.721 329.025 296.669 328.666 296.669H327.627V300.845ZM326.17 295.443H329.028C329.455 295.443 329.851 295.512 330.216 295.648C330.588 295.784 330.906 295.988 331.172 296.26C331.444 296.532 331.655 296.873 331.803 297.281C331.958 297.69 332.035 298.169 332.035 298.72C332.035 299.202 331.974 299.648 331.85 300.056C331.726 300.465 331.537 300.817 331.284 301.114C331.036 301.411 330.724 301.646 330.346 301.82C329.975 301.987 329.536 302.07 329.028 302.07H326.17V295.443ZM333.049 295.443H335.1L336.65 300.001H336.669L338.135 295.443H340.186V302.07H338.822V297.374H338.803L337.179 302.07H336.056L334.432 297.42H334.413V302.07H333.049V295.443ZM341.042 300.919L344.597 296.669H341.321V295.443H346.537V296.594L342.982 300.845H346.63V302.07H341.042V300.919Z" fill="#373942"/>
<path id="Line-6_2" d="M240.895 148.796V151.918H239.605V148.796H240.895ZM240.895 143.64V147.507H239.605V143.64H240.895ZM240.895 138.484V142.351H239.605V138.484H240.895ZM240.895 133.327V137.195H239.605V133.327H240.895ZM240.895 128.171V132.038H239.605V128.171H240.895ZM240.895 123.015V126.882H239.605V123.015H240.895ZM240.895 117.859V121.726H239.605V117.859H240.895ZM240.895 112.702V116.57H239.605V112.702H240.895ZM240.895 107.546V111.413H239.605V107.546H240.895ZM240.895 102.39V106.257H239.605V102.39H240.895ZM240.895 97.2336V101.101H239.605V97.2336H240.895ZM240.895 92.0773V95.9445H239.605V92.0773H240.895ZM178.375 83.3398V86.4336H180.953V87.7227H178.375V90.8164L170.898 87.0781L178.375 83.3398ZM239.409 86.8664L239.879 87.3079C240.522 87.9127 240.895 88.7555 240.895 89.6562V90.7883H239.605V89.6562C239.605 89.1149 239.383 88.6107 238.996 88.2471L238.526 87.8056L239.409 86.8664ZM186.109 86.4336V87.7227H182.242V86.4336H186.109ZM191.266 86.4336V87.7227H187.398V86.4336H191.266ZM196.422 86.4336V87.7227H192.555V86.4336H196.422ZM201.578 86.4336V87.7227H197.711V86.4336H201.578ZM206.734 86.4336V87.7227H202.867V86.4336H206.734ZM211.891 86.4336V87.7227H208.023V86.4336H211.891ZM217.047 86.4336V87.7227H213.18V86.4336H217.047ZM222.203 86.4336V87.7227H218.336V86.4336H222.203ZM227.359 86.4336V87.7227H223.492V86.4336H227.359ZM232.516 86.4336V87.7227H228.648V86.4336H232.516ZM237.672 86.4336V87.7227H233.805V86.4336H237.672Z" fill="#66A2FF"/>
</g>
</svg>
