<?xml version="1.0" encoding="UTF-8"?>
<svg width="904.000046px" height="389.75px" viewBox="0 0 904.000046 389.75" version="1.1" xmlns="http://www.w3.org/2000/svg" xmlns:xlink="http://www.w3.org/1999/xlink">
    <title>deployment_exercise</title>
    <defs>
        <linearGradient x1="0%" y1="10000%" x2="10000%" y2="0%" id="linearGradient-1">
            <stop stop-color="#BD0816" offset="0%"></stop>
            <stop stop-color="#FF5252" offset="100%"></stop>
        </linearGradient>
    </defs>
    <g id="Page-1" stroke="none" stroke-width="1" fill="none" fill-rule="evenodd">
        <g id="deployment_exercise" transform="translate(-43, -13)">
            <rect id="Rectangle" fill-rule="nonzero" x="0" y="0" width="990" height="416"></rect>
            <g id="Group-2" transform="translate(118, 101)">
                <path d="M265.01,12.5 L263.595,12.5 L263.032,11.0366 L260.457,11.0366 L259.925,12.5 L258.545,12.5 L261.055,6.0576 L262.43,6.0576 L265.01,12.5 Z M262.615,9.9512 L261.727,7.5605 L260.857,9.9512 L262.615,9.9512 Z M266.626,12.5 L264.745,7.833 L266.042,7.833 L266.921,10.2148 L267.176,11.0103 C267.243,10.8081 267.286,10.6748 267.303,10.6104 C267.344,10.4785 267.388,10.3467 267.435,10.2148 L268.323,7.833 L269.593,7.833 L267.738,12.5 L266.626,12.5 Z M271.258,9.2568 L270.137,9.0547 C270.263,8.6035 270.48,8.2695 270.788,8.0527 C271.095,7.8359 271.552,7.7275 272.159,7.7275 C272.709,7.7275 273.12,7.7935 273.389,7.9253 C273.659,8.0542 273.848,8.2197 273.956,8.4219 C274.067,8.6211 274.123,8.9888 274.123,9.5249 L274.11,10.9663 C274.11,11.3765 274.129,11.6797 274.167,11.876 C274.208,12.0693 274.283,12.2773 274.391,12.5 L273.169,12.5 C273.137,12.418 273.098,12.2964 273.051,12.1353 C273.03,12.062 273.016,12.0137 273.007,11.9902 C272.796,12.1953 272.57,12.3491 272.33,12.4517 C272.09,12.5542 271.833,12.6055 271.561,12.6055 C271.081,12.6055 270.701,12.4751 270.423,12.2144 C270.147,11.9536 270.01,11.624 270.01,11.2256 C270.01,10.9619 270.073,10.7275 270.199,10.5225 C270.325,10.3145 270.5,10.1562 270.726,10.0479 C270.955,9.9365 271.283,9.8398 271.71,9.7578 C272.288,9.6494 272.687,9.5483 272.91,9.4546 L272.91,9.3315 C272.91,9.0942 272.852,8.9258 272.734,8.8262 C272.617,8.7236 272.396,8.6724 272.071,8.6724 C271.851,8.6724 271.68,8.7163 271.557,8.8042 C271.434,8.8892 271.334,9.04 271.258,9.2568 Z M272.91,10.2588 C272.752,10.3115 272.501,10.3745 272.159,10.4478 C271.816,10.521 271.592,10.5928 271.486,10.6631 C271.325,10.7773 271.245,10.9224 271.245,11.0981 C271.245,11.271 271.309,11.4204 271.438,11.5464 C271.567,11.6724 271.731,11.7354 271.93,11.7354 C272.153,11.7354 272.365,11.6621 272.567,11.5156 C272.717,11.4043 272.815,11.2681 272.862,11.1069 C272.894,11.0015 272.91,10.8008 272.91,10.5049 L272.91,10.2588 Z M275.327,7.2002 L275.327,6.0576 L276.562,6.0576 L276.562,7.2002 L275.327,7.2002 Z M275.327,12.5 L275.327,7.833 L276.562,7.833 L276.562,12.5 L275.327,12.5 Z M277.814,12.5 L277.814,6.0576 L279.048,6.0576 L279.048,12.5 L277.814,12.5 Z M281.223,9.2568 L280.103,9.0547 C280.229,8.6035 280.445,8.2695 280.753,8.0527 C281.061,7.8359 281.518,7.7275 282.124,7.7275 C282.675,7.7275 283.085,7.7935 283.355,7.9253 C283.624,8.0542 283.813,8.2197 283.922,8.4219 C284.033,8.6211 284.089,8.9888 284.089,9.5249 L284.075,10.9663 C284.075,11.3765 284.094,11.6797 284.132,11.876 C284.173,12.0693 284.248,12.2773 284.357,12.5 L283.135,12.5 C283.103,12.418 283.063,12.2964 283.016,12.1353 C282.996,12.062 282.981,12.0137 282.972,11.9902 C282.761,12.1953 282.536,12.3491 282.296,12.4517 C282.055,12.5542 281.799,12.6055 281.527,12.6055 C281.046,12.6055 280.667,12.4751 280.388,12.2144 C280.113,11.9536 279.975,11.624 279.975,11.2256 C279.975,10.9619 280.038,10.7275 280.164,10.5225 C280.29,10.3145 280.466,10.1562 280.692,10.0479 C280.92,9.9365 281.248,9.8398 281.676,9.7578 C282.253,9.6494 282.653,9.5483 282.876,9.4546 L282.876,9.3315 C282.876,9.0942 282.817,8.9258 282.7,8.8262 C282.583,8.7236 282.361,8.6724 282.036,8.6724 C281.817,8.6724 281.645,8.7163 281.522,8.8042 C281.399,8.8892 281.299,9.04 281.223,9.2568 Z M282.876,10.2588 C282.717,10.3115 282.467,10.3745 282.124,10.4478 C281.781,10.521 281.557,10.5928 281.452,10.6631 C281.291,10.7773 281.21,10.9224 281.21,11.0981 C281.21,11.271 281.275,11.4204 281.403,11.5464 C281.532,11.6724 281.696,11.7354 281.896,11.7354 C282.118,11.7354 282.331,11.6621 282.533,11.5156 C282.682,11.4043 282.78,11.2681 282.827,11.1069 C282.86,11.0015 282.876,10.8008 282.876,10.5049 L282.876,10.2588 Z M285.239,12.5 L285.239,6.0576 L286.474,6.0576 L286.474,8.3779 C286.855,7.9443 287.306,7.7275 287.828,7.7275 C288.396,7.7275 288.866,7.9341 289.239,8.3472 C289.611,8.7573 289.797,9.3477 289.797,10.1182 C289.797,10.915 289.606,11.5288 289.225,11.9595 C288.847,12.3901 288.387,12.6055 287.845,12.6055 C287.579,12.6055 287.315,12.5396 287.054,12.4077 C286.797,12.2729 286.574,12.0752 286.386,11.8145 L286.386,12.5 L285.239,12.5 Z M286.466,10.0654 C286.466,10.5488 286.542,10.9062 286.694,11.1377 C286.908,11.4658 287.192,11.6299 287.547,11.6299 C287.819,11.6299 288.051,11.5142 288.241,11.2827 C288.434,11.0483 288.531,10.6807 288.531,10.1797 C288.531,9.6465 288.434,9.2627 288.241,9.0283 C288.048,8.791 287.8,8.6724 287.498,8.6724 C287.202,8.6724 286.956,8.7881 286.76,9.0195 C286.564,9.248 286.466,9.5967 286.466,10.0654 Z M290.776,7.2002 L290.776,6.0576 L292.011,6.0576 L292.011,7.2002 L290.776,7.2002 Z M290.776,12.5 L290.776,7.833 L292.011,7.833 L292.011,12.5 L290.776,12.5 Z M293.263,12.5 L293.263,6.0576 L294.498,6.0576 L294.498,12.5 L293.263,12.5 Z M295.75,7.2002 L295.75,6.0576 L296.985,6.0576 L296.985,7.2002 L295.75,7.2002 Z M295.75,12.5 L295.75,7.833 L296.985,7.833 L296.985,12.5 L295.75,12.5 Z M300.377,7.833 L300.377,8.8174 L299.533,8.8174 L299.533,10.6982 C299.533,11.0791 299.541,11.3018 299.555,11.3662 C299.573,11.4277 299.609,11.479 299.665,11.52 C299.724,11.561 299.794,11.5815 299.876,11.5815 C299.99,11.5815 300.156,11.542 300.373,11.4629 L300.478,12.4209 C300.191,12.5439 299.866,12.6055 299.502,12.6055 C299.28,12.6055 299.079,12.5688 298.9,12.4956 C298.722,12.4194 298.59,12.3228 298.505,12.2056 C298.423,12.0854 298.366,11.9243 298.333,11.7222 C298.307,11.5786 298.294,11.2886 298.294,10.8521 L298.294,8.8174 L297.727,8.8174 L297.727,7.833 L298.294,7.833 L298.294,6.9058 L299.533,6.1851 L299.533,7.833 L300.377,7.833 Z M300.631,7.833 L301.945,7.833 L303.062,11.1465 L304.151,7.833 L305.43,7.833 L303.782,12.3242 L303.488,13.1372 C303.379,13.4097 303.275,13.6177 303.176,13.7612 C303.079,13.9048 302.966,14.0205 302.837,14.1084 C302.711,14.1992 302.555,14.2695 302.367,14.3193 C302.183,14.3691 301.973,14.394 301.739,14.394 C301.502,14.394 301.269,14.3691 301.04,14.3193 L300.93,13.3525 C301.124,13.3906 301.298,13.4097 301.453,13.4097 C301.74,13.4097 301.953,13.3247 302.09,13.1548 C302.228,12.9878 302.334,12.7739 302.407,12.5132 L300.631,7.833 Z M308.145,12.5 L308.145,11.3267 L311.529,7.1475 L308.528,7.1475 L308.528,6.0576 L313.243,6.0576 L313.243,7.0684 L309.714,11.4146 L313.379,11.4146 L313.379,12.5 L308.145,12.5 Z M313.893,10.1006 C313.893,9.6904 313.994,9.2935 314.196,8.9097 C314.398,8.5259 314.684,8.2329 315.053,8.0308 C315.425,7.8286 315.84,7.7275 316.297,7.7275 C317.003,7.7275 317.581,7.9575 318.032,8.4175 C318.484,8.8745 318.709,9.4531 318.709,10.1533 C318.709,10.8594 318.481,11.4453 318.024,11.9111 C317.57,12.374 316.997,12.6055 316.305,12.6055 C315.878,12.6055 315.469,12.5088 315.079,12.3154 C314.693,12.1221 314.398,11.8394 314.196,11.4673 C313.994,11.0923 313.893,10.6367 313.893,10.1006 Z M315.158,10.1665 C315.158,10.6294 315.268,10.9839 315.488,11.23 C315.708,11.4761 315.979,11.5991 316.301,11.5991 C316.623,11.5991 316.893,11.4761 317.11,11.23 C317.329,10.9839 317.439,10.6265 317.439,10.1577 C317.439,9.7007 317.329,9.3491 317.11,9.103 C316.893,8.8569 316.623,8.7339 316.301,8.7339 C315.979,8.7339 315.708,8.8569 315.488,9.103 C315.268,9.3491 315.158,9.7036 315.158,10.1665 Z M323.908,12.5 L322.673,12.5 L322.673,10.1182 C322.673,9.6143 322.646,9.2891 322.594,9.1426 C322.541,8.9932 322.454,8.8774 322.334,8.7954 C322.217,8.7134 322.075,8.6724 321.908,8.6724 C321.694,8.6724 321.502,8.731 321.332,8.8481 C321.162,8.9653 321.045,9.1206 320.981,9.314 C320.919,9.5073 320.889,9.8647 320.889,10.3862 L320.889,12.5 L319.654,12.5 L319.654,7.833 L320.801,7.833 L320.801,8.5186 C321.208,7.9912 321.721,7.7275 322.339,7.7275 C322.611,7.7275 322.86,7.7773 323.086,7.877 C323.311,7.9736 323.481,8.0981 323.596,8.2505 C323.713,8.4028 323.793,8.5757 323.837,8.769 C323.884,8.9624 323.908,9.2393 323.908,9.5996 L323.908,12.5 Z M327.849,11.0146 L329.079,11.2212 C328.921,11.6724 328.671,12.0166 328.328,12.2539 C327.988,12.4883 327.562,12.6055 327.049,12.6055 C326.238,12.6055 325.637,12.3403 325.247,11.8101 C324.94,11.3853 324.786,10.8491 324.786,10.2017 C324.786,9.4282 324.988,8.8232 325.392,8.3867 C325.797,7.9473 326.308,7.7275 326.926,7.7275 C327.621,7.7275 328.168,7.9575 328.57,8.4175 C328.971,8.8745 329.163,9.5762 329.145,10.5225 L326.052,10.5225 C326.06,10.8887 326.16,11.1743 326.35,11.3794 C326.541,11.5815 326.778,11.6826 327.062,11.6826 C327.256,11.6826 327.418,11.6299 327.55,11.5244 C327.682,11.4189 327.782,11.249 327.849,11.0146 Z M327.919,9.7666 C327.911,9.4092 327.818,9.1382 327.642,8.9536 C327.467,8.7661 327.253,8.6724 327.001,8.6724 C326.731,8.6724 326.509,8.7705 326.333,8.9668 C326.157,9.1631 326.071,9.4297 326.074,9.7666 L327.919,9.7666 Z M332.484,10.7817 L332.484,9.5469 L334.91,9.5469 L334.91,10.7817 L332.484,10.7817 Z M339.014,9.2568 L337.893,9.0547 C338.019,8.6035 338.236,8.2695 338.544,8.0527 C338.851,7.8359 339.308,7.7275 339.915,7.7275 C340.466,7.7275 340.876,7.7935 341.145,7.9253 C341.415,8.0542 341.604,8.2197 341.712,8.4219 C341.823,8.6211 341.879,8.9888 341.879,9.5249 L341.866,10.9663 C341.866,11.3765 341.885,11.6797 341.923,11.876 C341.964,12.0693 342.039,12.2773 342.147,12.5 L340.925,12.5 C340.893,12.418 340.854,12.2964 340.807,12.1353 C340.786,12.062 340.772,12.0137 340.763,11.9902 C340.552,12.1953 340.326,12.3491 340.086,12.4517 C339.846,12.5542 339.59,12.6055 339.317,12.6055 C338.837,12.6055 338.457,12.4751 338.179,12.2144 C337.903,11.9536 337.766,11.624 337.766,11.2256 C337.766,10.9619 337.829,10.7275 337.955,10.5225 C338.081,10.3145 338.257,10.1562 338.482,10.0479 C338.711,9.9365 339.039,9.8398 339.466,9.7578 C340.044,9.6494 340.444,9.5483 340.666,9.4546 L340.666,9.3315 C340.666,9.0942 340.608,8.9258 340.49,8.8262 C340.373,8.7236 340.152,8.6724 339.827,8.6724 C339.607,8.6724 339.436,8.7163 339.313,8.8042 C339.19,8.8892 339.09,9.04 339.014,9.2568 Z M340.666,10.2588 C340.508,10.3115 340.257,10.3745 339.915,10.4478 C339.572,10.521 339.348,10.5928 339.242,10.6631 C339.081,10.7773 339.001,10.9224 339.001,11.0981 C339.001,11.271 339.065,11.4204 339.194,11.5464 C339.323,11.6724 339.487,11.7354 339.686,11.7354 C339.909,11.7354 340.121,11.6621 340.323,11.5156 C340.473,11.4043 340.571,11.2681 340.618,11.1069 C340.65,11.0015 340.666,10.8008 340.666,10.5049 L340.666,10.2588 Z" id="Shape" fill="#1D1F25" fill-rule="nonzero"></path>
                <path d="M265.931,100.5 L265.931,94.058 L267.232,94.058 L267.232,96.593 L269.78,96.593 L269.78,94.058 L271.081,94.058 L271.081,100.5 L269.78,100.5 L269.78,97.683 L267.232,97.683 L267.232,100.5 L265.931,100.5 Z M273.863,100.5 L273.863,95.147 L271.951,95.147 L271.951,94.058 L277.071,94.058 L277.071,95.147 L275.163,95.147 L275.163,100.5 L273.863,100.5 Z M279.346,100.5 L279.346,95.147 L277.435,95.147 L277.435,94.058 L282.554,94.058 L282.554,95.147 L280.647,95.147 L280.647,100.5 L279.346,100.5 Z M283.38,100.5 L283.38,94.058 L285.468,94.058 C286.259,94.058 286.774,94.09 287.015,94.154 C287.384,94.251 287.693,94.462 287.942,94.787 C288.191,95.109 288.315,95.527 288.315,96.04 C288.315,96.435 288.244,96.768 288.1,97.037 C287.956,97.307 287.773,97.519 287.551,97.674 C287.331,97.827 287.107,97.928 286.878,97.978 C286.568,98.039 286.118,98.07 285.529,98.07 L284.681,98.07 L284.681,100.5 L283.38,100.5 Z M284.681,95.147 L284.681,96.976 L285.393,96.976 C285.906,96.976 286.248,96.942 286.421,96.875 C286.594,96.807 286.729,96.702 286.826,96.558 C286.925,96.415 286.975,96.248 286.975,96.057 C286.975,95.823 286.906,95.629 286.768,95.477 C286.631,95.325 286.456,95.229 286.245,95.191 C286.09,95.162 285.778,95.147 285.309,95.147 L284.681,95.147 Z" id="Shape" fill="#1D1F25" fill-rule="nonzero"></path>
                <path d="M323.441,97.024 C323.121,96.889 322.888,96.705 322.742,96.47 C322.598,96.233 322.527,95.974 322.527,95.692 C322.527,95.212 322.694,94.815 323.028,94.501 C323.364,94.188 323.842,94.031 324.46,94.031 C325.072,94.031 325.547,94.188 325.884,94.501 C326.224,94.815 326.394,95.212 326.394,95.692 C326.394,95.991 326.316,96.258 326.161,96.492 C326.006,96.724 325.787,96.901 325.506,97.024 C325.863,97.167 326.134,97.377 326.319,97.652 C326.507,97.928 326.6,98.246 326.6,98.606 C326.6,99.201 326.41,99.684 326.029,100.056 C325.651,100.428 325.147,100.614 324.517,100.614 C323.931,100.614 323.444,100.46 323.054,100.153 C322.594,99.79 322.364,99.292 322.364,98.659 C322.364,98.31 322.45,97.991 322.623,97.701 C322.796,97.408 323.069,97.182 323.441,97.024 Z M323.696,95.78 C323.696,96.026 323.764,96.218 323.902,96.356 C324.043,96.494 324.229,96.562 324.46,96.562 C324.695,96.562 324.882,96.494 325.023,96.356 C325.163,96.215 325.234,96.022 325.234,95.776 C325.234,95.544 325.163,95.36 325.023,95.222 C324.885,95.082 324.702,95.011 324.473,95.011 C324.236,95.011 324.047,95.082 323.906,95.222 C323.766,95.363 323.696,95.549 323.696,95.78 Z M323.581,98.54 C323.581,98.88 323.668,99.145 323.841,99.335 C324.016,99.526 324.235,99.621 324.495,99.621 C324.75,99.621 324.961,99.53 325.128,99.349 C325.295,99.164 325.379,98.899 325.379,98.553 C325.379,98.251 325.294,98.01 325.124,97.828 C324.954,97.644 324.738,97.551 324.478,97.551 C324.176,97.551 323.95,97.655 323.801,97.863 C323.655,98.071 323.581,98.297 323.581,98.54 Z M329.461,94.031 C330.085,94.031 330.573,94.254 330.924,94.699 C331.343,95.227 331.553,96.101 331.553,97.323 C331.553,98.542 331.342,99.417 330.92,99.951 C330.571,100.39 330.085,100.61 329.461,100.61 C328.834,100.61 328.328,100.37 327.945,99.889 C327.561,99.406 327.369,98.546 327.369,97.31 C327.369,96.097 327.58,95.224 328.002,94.69 C328.35,94.251 328.837,94.031 329.461,94.031 Z M329.461,95.055 C329.311,95.055 329.178,95.104 329.061,95.2 C328.944,95.294 328.853,95.464 328.788,95.71 C328.703,96.029 328.661,96.567 328.661,97.323 C328.661,98.079 328.699,98.599 328.775,98.883 C328.851,99.164 328.947,99.352 329.061,99.445 C329.178,99.539 329.311,99.586 329.461,99.586 C329.61,99.586 329.743,99.539 329.861,99.445 C329.978,99.349 330.069,99.177 330.133,98.931 C330.218,98.615 330.261,98.079 330.261,97.323 C330.261,96.567 330.222,96.048 330.146,95.767 C330.07,95.483 329.973,95.294 329.856,95.2 C329.742,95.104 329.61,95.055 329.461,95.055 Z" id="Shape" fill="#1D1F25" fill-rule="nonzero"></path>
                <path d="M268.088,118.404 L269.354,118.281 C269.43,118.706 269.584,119.018 269.815,119.217 C270.05,119.416 270.365,119.516 270.76,119.516 C271.179,119.516 271.494,119.428 271.705,119.252 C271.919,119.073 272.026,118.865 272.026,118.628 C272.026,118.476 271.98,118.347 271.89,118.241 C271.802,118.133 271.646,118.039 271.424,117.96 C271.271,117.907 270.924,117.813 270.382,117.679 C269.685,117.506 269.196,117.293 268.914,117.042 C268.519,116.687 268.321,116.255 268.321,115.745 C268.321,115.417 268.414,115.111 268.598,114.827 C268.786,114.54 269.054,114.321 269.402,114.172 C269.754,114.022 270.177,113.948 270.672,113.948 C271.481,113.948 272.089,114.125 272.496,114.479 C272.906,114.834 273.122,115.307 273.142,115.899 L271.841,115.956 C271.786,115.625 271.665,115.388 271.481,115.244 C271.299,115.098 271.025,115.024 270.659,115.024 C270.281,115.024 269.985,115.102 269.771,115.257 C269.634,115.357 269.565,115.49 269.565,115.657 C269.565,115.81 269.629,115.94 269.758,116.048 C269.922,116.186 270.321,116.33 270.954,116.479 C271.586,116.628 272.054,116.784 272.355,116.945 C272.66,117.103 272.897,117.321 273.067,117.6 C273.24,117.875 273.327,118.216 273.327,118.624 C273.327,118.993 273.224,119.338 273.019,119.661 C272.814,119.983 272.524,120.223 272.149,120.381 C271.774,120.537 271.307,120.614 270.747,120.614 C269.933,120.614 269.307,120.427 268.871,120.052 C268.434,119.674 268.173,119.125 268.088,118.404 Z M274.073,118.404 L275.339,118.281 C275.415,118.706 275.569,119.018 275.8,119.217 C276.035,119.416 276.35,119.516 276.745,119.516 C277.164,119.516 277.479,119.428 277.69,119.252 C277.904,119.073 278.011,118.865 278.011,118.628 C278.011,118.476 277.965,118.347 277.875,118.241 C277.787,118.133 277.631,118.039 277.409,117.96 C277.256,117.907 276.909,117.813 276.367,117.679 C275.67,117.506 275.181,117.293 274.899,117.042 C274.504,116.687 274.306,116.255 274.306,115.745 C274.306,115.417 274.398,115.111 274.583,114.827 C274.771,114.54 275.039,114.321 275.387,114.172 C275.739,114.022 276.162,113.948 276.657,113.948 C277.466,113.948 278.074,114.125 278.481,114.479 C278.891,114.834 279.106,115.307 279.127,115.899 L277.826,115.956 C277.771,115.625 277.65,115.388 277.466,115.244 C277.284,115.098 277.01,115.024 276.644,115.024 C276.266,115.024 275.97,115.102 275.756,115.257 C275.619,115.357 275.55,115.49 275.55,115.657 C275.55,115.81 275.614,115.94 275.743,116.048 C275.907,116.186 276.306,116.33 276.938,116.479 C277.571,116.628 278.039,116.784 278.34,116.945 C278.645,117.103 278.882,117.321 279.052,117.6 C279.225,117.875 279.312,118.216 279.312,118.624 C279.312,118.993 279.209,119.338 279.004,119.661 C278.799,119.983 278.509,120.223 278.134,120.381 C277.759,120.537 277.292,120.614 276.732,120.614 C275.917,120.614 275.292,120.427 274.855,120.052 C274.419,119.674 274.158,119.125 274.073,118.404 Z M280.392,120.5 L280.392,114.058 L281.693,114.058 L281.693,116.593 L284.242,116.593 L284.242,114.058 L285.543,114.058 L285.543,120.5 L284.242,120.5 L284.242,117.683 L281.693,117.683 L281.693,120.5 L280.392,120.5 Z" id="Shape" fill="#1D1F25" fill-rule="nonzero"></path>
                <path d="M326.552,119.353 L326.552,120.5 L322.223,120.5 C322.27,120.066 322.411,119.656 322.645,119.27 C322.88,118.88 323.342,118.364 324.034,117.723 C324.591,117.204 324.932,116.853 325.058,116.668 C325.228,116.413 325.313,116.161 325.313,115.912 C325.313,115.637 325.238,115.426 325.089,115.279 C324.942,115.13 324.738,115.055 324.478,115.055 C324.22,115.055 324.015,115.133 323.863,115.288 C323.71,115.443 323.622,115.701 323.599,116.062 L322.368,115.938 C322.442,115.259 322.672,114.771 323.058,114.475 C323.445,114.179 323.928,114.031 324.509,114.031 C325.144,114.031 325.644,114.203 326.007,114.545 C326.37,114.888 326.552,115.314 326.552,115.824 C326.552,116.114 326.499,116.391 326.394,116.655 C326.291,116.916 326.127,117.189 325.902,117.477 C325.752,117.667 325.483,117.941 325.093,118.298 C324.703,118.656 324.456,118.893 324.35,119.01 C324.248,119.127 324.164,119.242 324.1,119.353 L326.552,119.353 Z M331.544,119.353 L331.544,120.5 L327.215,120.5 C327.262,120.066 327.403,119.656 327.637,119.27 C327.871,118.88 328.334,118.364 329.026,117.723 C329.582,117.204 329.924,116.853 330.05,116.668 C330.22,116.413 330.304,116.161 330.304,115.912 C330.304,115.637 330.23,115.426 330.08,115.279 C329.934,115.13 329.73,115.055 329.47,115.055 C329.212,115.055 329.007,115.133 328.854,115.288 C328.702,115.443 328.614,115.701 328.591,116.062 L327.36,115.938 C327.433,115.259 327.663,114.771 328.05,114.475 C328.437,114.179 328.92,114.031 329.5,114.031 C330.136,114.031 330.636,114.203 330.999,114.545 C331.362,114.888 331.544,115.314 331.544,115.824 C331.544,116.114 331.491,116.391 331.386,116.655 C331.283,116.916 331.119,117.189 330.893,117.477 C330.744,117.667 330.474,117.941 330.085,118.298 C329.695,118.656 329.448,118.893 329.342,119.01 C329.24,119.127 329.156,119.242 329.092,119.353 L331.544,119.353 Z" id="Shape" fill="#1D1F25" fill-rule="nonzero"></path>
                <path d="M325.947,150.086 L324.915,149.286 C325.243,148.917 325.585,148.564 325.94,148.227 C326.082,148.09 326.171,148.003 326.207,147.967 C326.093,147.949 325.767,147.873 325.229,147.741 C324.842,147.646 324.587,147.575 324.464,147.529 L324.867,146.326 C325.464,146.568 325.997,146.834 326.467,147.126 C326.357,146.383 326.303,145.777 326.303,145.308 L327.52,145.308 C327.52,145.64 327.458,146.251 327.335,147.14 C327.426,147.103 327.622,147.014 327.923,146.873 C328.333,146.686 328.711,146.527 329.058,146.395 L329.42,147.632 C328.914,147.746 328.328,147.857 327.663,147.967 L328.483,148.89 C328.647,149.076 328.777,149.229 328.873,149.348 L327.827,150.038 L326.904,148.514 C326.626,149.006 326.307,149.53 325.947,150.086 Z" id="Path" fill="#1D1F25" fill-rule="nonzero"></path>
                <path d="M452.643,72.227 L461.099,72.227 L461.099,61.156 L452.643,61.156 L452.643,72.227 Z M431.729,72.227 L440.186,72.227 L440.186,61.156 L431.729,61.156 L431.729,72.227 Z M442.186,72.227 L450.643,72.227 L450.643,61.156 L442.186,61.156 L442.186,72.227 Z M462.099,59.156 L430.729,59.156 C430.176,59.156 429.729,59.604 429.729,60.156 L429.729,73.227 C429.729,73.779 430.176,74.227 430.729,74.227 L462.099,74.227 C462.651,74.227 463.099,73.779 463.099,73.227 L463.099,60.156 C463.099,59.604 462.651,59.156 462.099,59.156 L462.099,59.156 Z M452.643,53.928 L461.099,53.928 L461.099,45.471 L452.643,45.471 L452.643,53.928 Z M431.729,53.928 L440.186,53.928 L440.186,45.471 L431.729,45.471 L431.729,53.928 Z M442.186,53.928 L450.643,53.928 L450.643,45.471 L442.186,45.471 L442.186,53.928 Z M462.099,43.471 L430.729,43.471 C430.176,43.471 429.729,43.919 429.729,44.471 L429.729,54.928 C429.729,55.48 430.176,55.928 430.729,55.928 L462.099,55.928 C462.651,55.928 463.099,55.48 463.099,54.928 L463.099,44.471 C463.099,43.919 462.651,43.471 462.099,43.471 L462.099,43.471 Z M466.327,73.879 C466.327,76.332 464.332,78.327 461.88,78.327 L430.948,78.327 C428.495,78.327 426.5,76.332 426.5,73.879 L426.5,42.948 C426.5,40.495 428.495,38.5 430.948,38.5 L461.88,38.5 C464.332,38.5 466.327,40.495 466.327,42.948 L466.327,73.879 Z M461.88,36.5 L430.948,36.5 C427.393,36.5 424.5,39.392 424.5,42.948 L424.5,73.879 C424.5,77.434 427.393,80.327 430.948,80.327 L461.88,80.327 C465.435,80.327 468.327,77.434 468.327,73.879 L468.327,42.948 C468.327,39.392 465.435,36.5 461.88,36.5 L461.88,36.5 Z" id="Shape" fill="#D45B07"></path>
                <path d="M510.253,153.5 L540.253,153.5 L540.253,123.5 L510.253,123.5 L510.253,153.5 Z M547.253,127.5 L547.253,125.5 L542.253,125.5 L542.253,122.5 C542.253,121.948 541.805,121.5 541.253,121.5 L538.253,121.5 L538.253,116.5 L536.253,116.5 L536.253,121.5 L532.253,121.5 L532.253,116.5 L530.253,116.5 L530.253,121.5 L526.253,121.5 L526.253,116.5 L524.253,116.5 L524.253,121.5 L520.253,121.5 L520.253,116.5 L518.253,116.5 L518.253,121.5 L514.253,121.5 L514.253,116.5 L512.253,116.5 L512.253,121.5 L509.253,121.5 C508.7,121.5 508.253,121.948 508.253,122.5 L508.253,125.5 L503.253,125.5 L503.253,127.5 L508.253,127.5 L508.253,131.5 L503.253,131.5 L503.253,133.5 L508.253,133.5 L508.253,137.5 L503.253,137.5 L503.253,139.5 L508.253,139.5 L508.253,143.5 L503.253,143.5 L503.253,145.5 L508.253,145.5 L508.253,149.5 L503.253,149.5 L503.253,151.5 L508.253,151.5 L508.253,154.5 C508.253,155.053 508.7,155.5 509.253,155.5 L512.253,155.5 L512.253,160.5 L514.253,160.5 L514.253,155.5 L518.253,155.5 L518.253,160.5 L520.253,160.5 L520.253,155.5 L524.253,155.5 L524.253,160.5 L526.253,160.5 L526.253,155.5 L530.253,155.5 L530.253,160.5 L532.253,160.5 L532.253,155.5 L536.253,155.5 L536.253,160.5 L538.253,160.5 L538.253,155.5 L541.253,155.5 C541.805,155.5 542.253,155.053 542.253,154.5 L542.253,151.5 L547.253,151.5 L547.253,149.5 L542.253,149.5 L542.253,145.5 L547.253,145.5 L547.253,143.5 L542.253,143.5 L542.253,139.5 L547.253,139.5 L547.253,137.5 L542.253,137.5 L542.253,133.5 L547.253,133.5 L547.253,131.5 L542.253,131.5 L542.253,127.5 L547.253,127.5 Z" id="Shape" fill="#D45B07"></path>
                <path d="M578.5,153.5 L608.5,153.5 L608.5,123.5 L578.5,123.5 L578.5,153.5 Z M615.5,127.5 L615.5,125.5 L610.5,125.5 L610.5,122.5 C610.5,121.948 610.052,121.5 609.5,121.5 L606.5,121.5 L606.5,116.5 L604.5,116.5 L604.5,121.5 L600.5,121.5 L600.5,116.5 L598.5,116.5 L598.5,121.5 L594.5,121.5 L594.5,116.5 L592.5,116.5 L592.5,121.5 L588.5,121.5 L588.5,116.5 L586.5,116.5 L586.5,121.5 L582.5,121.5 L582.5,116.5 L580.5,116.5 L580.5,121.5 L577.5,121.5 C576.947,121.5 576.5,121.948 576.5,122.5 L576.5,125.5 L571.5,125.5 L571.5,127.5 L576.5,127.5 L576.5,131.5 L571.5,131.5 L571.5,133.5 L576.5,133.5 L576.5,137.5 L571.5,137.5 L571.5,139.5 L576.5,139.5 L576.5,143.5 L571.5,143.5 L571.5,145.5 L576.5,145.5 L576.5,149.5 L571.5,149.5 L571.5,151.5 L576.5,151.5 L576.5,154.5 C576.5,155.053 576.947,155.5 577.5,155.5 L580.5,155.5 L580.5,160.5 L582.5,160.5 L582.5,155.5 L586.5,155.5 L586.5,160.5 L588.5,160.5 L588.5,155.5 L592.5,155.5 L592.5,160.5 L594.5,160.5 L594.5,155.5 L598.5,155.5 L598.5,160.5 L600.5,160.5 L600.5,155.5 L604.5,155.5 L604.5,160.5 L606.5,160.5 L606.5,155.5 L609.5,155.5 C610.052,155.5 610.5,155.053 610.5,154.5 L610.5,151.5 L615.5,151.5 L615.5,149.5 L610.5,149.5 L610.5,145.5 L615.5,145.5 L615.5,143.5 L610.5,143.5 L610.5,139.5 L615.5,139.5 L615.5,137.5 L610.5,137.5 L610.5,133.5 L615.5,133.5 L615.5,131.5 L610.5,131.5 L610.5,127.5 L615.5,127.5 Z" id="Shape" fill="#D45B07"></path>
                <path d="M646.747,153.5 L676.747,153.5 L676.747,123.5 L646.747,123.5 L646.747,153.5 Z M683.747,127.5 L683.747,125.5 L678.747,125.5 L678.747,122.5 C678.747,121.948 678.299,121.5 677.747,121.5 L674.747,121.5 L674.747,116.5 L672.747,116.5 L672.747,121.5 L668.747,121.5 L668.747,116.5 L666.747,116.5 L666.747,121.5 L662.747,121.5 L662.747,116.5 L660.747,116.5 L660.747,121.5 L656.747,121.5 L656.747,116.5 L654.747,116.5 L654.747,121.5 L650.747,121.5 L650.747,116.5 L648.747,116.5 L648.747,121.5 L645.747,121.5 C645.194,121.5 644.747,121.948 644.747,122.5 L644.747,125.5 L639.747,125.5 L639.747,127.5 L644.747,127.5 L644.747,131.5 L639.747,131.5 L639.747,133.5 L644.747,133.5 L644.747,137.5 L639.747,137.5 L639.747,139.5 L644.747,139.5 L644.747,143.5 L639.747,143.5 L639.747,145.5 L644.747,145.5 L644.747,149.5 L639.747,149.5 L639.747,151.5 L644.747,151.5 L644.747,154.5 C644.747,155.053 645.194,155.5 645.747,155.5 L648.747,155.5 L648.747,160.5 L650.747,160.5 L650.747,155.5 L654.747,155.5 L654.747,160.5 L656.747,160.5 L656.747,155.5 L660.747,155.5 L660.747,160.5 L662.747,160.5 L662.747,155.5 L666.747,155.5 L666.747,160.5 L668.747,160.5 L668.747,155.5 L672.747,155.5 L672.747,160.5 L674.747,160.5 L674.747,155.5 L677.747,155.5 C678.299,155.5 678.747,155.053 678.747,154.5 L678.747,151.5 L683.747,151.5 L683.747,149.5 L678.747,149.5 L678.747,145.5 L683.747,145.5 L683.747,143.5 L678.747,143.5 L678.747,139.5 L683.747,139.5 L683.747,137.5 L678.747,137.5 L678.747,133.5 L683.747,133.5 L683.747,131.5 L678.747,131.5 L678.747,127.5 L683.747,127.5 Z" id="Shape" fill="#D45B07"></path>
                <path d="M714.995,153.5 L744.995,153.5 L744.995,123.5 L714.995,123.5 L714.995,153.5 Z M751.995,127.5 L751.995,125.5 L746.995,125.5 L746.995,122.5 C746.995,121.948 746.547,121.5 745.995,121.5 L742.995,121.5 L742.995,116.5 L740.995,116.5 L740.995,121.5 L736.995,121.5 L736.995,116.5 L734.995,116.5 L734.995,121.5 L730.995,121.5 L730.995,116.5 L728.995,116.5 L728.995,121.5 L724.995,121.5 L724.995,116.5 L722.995,116.5 L722.995,121.5 L718.995,121.5 L718.995,116.5 L716.995,116.5 L716.995,121.5 L713.995,121.5 C713.442,121.5 712.995,121.948 712.995,122.5 L712.995,125.5 L707.995,125.5 L707.995,127.5 L712.995,127.5 L712.995,131.5 L707.995,131.5 L707.995,133.5 L712.995,133.5 L712.995,137.5 L707.995,137.5 L707.995,139.5 L712.995,139.5 L712.995,143.5 L707.995,143.5 L707.995,145.5 L712.995,145.5 L712.995,149.5 L707.995,149.5 L707.995,151.5 L712.995,151.5 L712.995,154.5 C712.995,155.053 713.442,155.5 713.995,155.5 L716.995,155.5 L716.995,160.5 L718.995,160.5 L718.995,155.5 L722.995,155.5 L722.995,160.5 L724.995,160.5 L724.995,155.5 L728.995,155.5 L728.995,160.5 L730.995,160.5 L730.995,155.5 L734.995,155.5 L734.995,160.5 L736.995,160.5 L736.995,155.5 L740.995,155.5 L740.995,160.5 L742.995,160.5 L742.995,155.5 L745.995,155.5 C746.547,155.5 746.995,155.053 746.995,154.5 L746.995,151.5 L751.995,151.5 L751.995,149.5 L746.995,149.5 L746.995,145.5 L751.995,145.5 L751.995,143.5 L746.995,143.5 L746.995,139.5 L751.995,139.5 L751.995,137.5 L746.995,137.5 L746.995,133.5 L751.995,133.5 L751.995,131.5 L746.995,131.5 L746.995,127.5 L751.995,127.5 Z" id="Shape" fill="#D45B07"></path>
                <path d="M524.5,108.5 L527.387,103.5 L521.613,103.5 L524.5,108.5 Z M525,103 L525,99.333 L524,99.333 L524,103 L525,103 Z M525,95.667 L525,92 L524,92 L524,95.667 L525,95.667 Z M525,88.333 L525,84.667 L524,84.667 L524,88.333 L525,88.333 Z M525,81 L525,77.333 L524,77.333 L524,81 L525,81 Z M525,73.667 L525,70 L524,70 L524,73.667 L525,73.667 Z M525,66.333 L525,64.5 L524,64.5 L524,66.333 L525,66.333 Z M525,64.5 C525,63.755 524.852,63.044 524.582,62.395 L523.659,62.778 C523.878,63.307 524,63.889 524,64.5 L525,64.5 Z M521.605,59.418 C520.956,59.148 520.245,59 519.5,59 L519.5,60 C520.111,60 520.693,60.122 521.222,60.341 L521.605,59.418 Z M519.5,59 L517.646,59 L517.646,60 L519.5,60 L519.5,59 Z M513.938,59 L510.229,59 L510.229,60 L513.938,60 L513.938,59 Z M506.521,59 L502.813,59 L502.813,60 L506.521,60 L506.521,59 Z M499.104,59 L495.396,59 L495.396,60 L499.104,60 L499.104,59 Z M491.687,59 L487.979,59 L487.979,60 L491.687,60 L491.687,59 Z M484.271,59 L480.563,59 L480.563,60 L484.271,60 L484.271,59 Z M476.854,59 L475,59 L475,60 L476.854,60 L476.854,59 Z" id="Shape" fill="#979797" fill-rule="nonzero"></path>
                <rect id="Rectangle" stroke-opacity="0.5" stroke="#D45B07" x="390" y="20" width="399" height="174" rx="1.5"></rect>
                <g id="Group" transform="translate(254.5, 29.5)">
                    <path d="M0,2 C0,0.8954 0.895,0 2,0 L38,0 C39.105,0 40,0.8954 40,2 L40,38 C40,39.105 39.105,40 38,40 L2,40 C0.895,40 0,39.105 0,38 L0,2 Z" id="Path" fill="url(#linearGradient-1)"></path>
                    <path d="M31.5,20 C30.673,20 30,19.327 30,18.5 C30,17.673 30.673,17 31.5,17 C32.327,17 33,17.673 33,18.5 C33,19.327 32.327,20 31.5,20 Z M34,18.5 C34,17.122 32.879,16 31.5,16 C31.466,16 31.434,16.009 31.399,16.01 C31.115,15.226 30.751,14.4732 30.314,13.763 L29.467,14.292 C29.848,14.903 30.159,15.567 30.421,16.255 C29.997,16.4573 29.638,16.7754 29.387,17.173 C29.135,17.57 29.001,18.03 29,18.5 C29,19.753 29.93,20.784 31.135,20.963 C31.008,23.144 30.246,25.241 28.943,26.995 L29.746,27.59 C31.188,25.649 32.021,23.323 32.137,20.908 C32.669,20.768 33.141,20.456 33.478,20.021 C33.815,19.585 33.998,19.051 34,18.5 Z M27.5,13 C26.673,13 26,12.327 26,11.5 C26,10.673 26.673,10 27.5,10 C28.327,10 29,10.673 29,11.5 C29,12.327 28.327,13 27.5,13 Z M30,11.5 C30,10.122 28.879,9 27.5,9 C26.837,9.0008 26.202,9.2644 25.733,9.7331 C25.264,10.2018 25.001,10.8372 25,11.5 C25,12.878 26.121,14 27.5,14 C28.879,14 30,12.878 30,11.5 Z M15.5,8 C16.327,8 17,8.673 17,9.5 C17,10.327 16.327,11 15.5,11 C14.673,11 14,10.327 14,9.5 C14,8.673 14.673,8 15.5,8 Z M15.5,12 C16.879,12 18,10.878 18,9.5 C18,8.122 16.879,7 15.5,7 C14.837,7.0008 14.202,7.2644 13.733,7.7331 C13.264,8.2018 13.001,8.8372 13,9.5 C13,10.878 14.121,12 15.5,12 Z M19.023,8.935 L18.953,7.937 C21.114,7.7867 23.276,8.2071 25.223,9.156 L24.781,10.053 C22.993,9.1804 21.007,8.7947 19.023,8.935 Z M8.5,19 C7.673,19 7,18.327 7,17.5 C7,16.673 7.673,16 8.5,16 C9.327,16 10,16.673 10,17.5 C10,18.327 9.327,19 8.5,19 Z M12.703,11.419 L12.078,10.639 C10.62,11.8186 9.452,13.3162 8.662,15.017 C8.607,15.013 8.556,15 8.5,15 C7.837,15.0008 7.202,15.2644 6.733,15.7331 C6.264,16.2018 6.001,16.8372 6,17.5 C6.001,17.982 6.141,18.454 6.404,18.859 C6.667,19.263 7.041,19.583 7.482,19.779 C7.477,19.938 7.466,20.095 7.466,20.255 C7.466,23.828 9.016,27.225 11.718,29.576 L12.374,28.821 C11.148,27.756 10.164,26.44 9.49,24.962 C8.816,23.484 8.467,21.879 8.466,20.255 C8.466,20.168 8.473,20.084 8.476,19.998 L8.5,20 C9.879,20 11,18.878 11,17.5 C11,16.534 10.443,15.703 9.639,15.287 C10.362,13.7871 11.408,12.4661 12.703,11.419 Z M25.759,27.831 C24.948,30.957 21.052,31.775 19.849,31.956 C19.551,30.95 18.876,27.995 20.194,25.157 C20.277,24.98 20.365,24.804 20.462,24.63 C21.212,23.29 21.817,22.038 21.62,20.296 C21.524,19.456 21.006,18.319 20.497,17.372 C21.905,18.537 23.574,20.759 22.968,24.534 C22.952,24.634 22.967,24.736 23.01,24.827 C23.054,24.918 23.124,24.994 23.211,25.045 C23.298,25.095 23.399,25.118 23.5,25.111 C23.6,25.103 23.696,25.065 23.775,25.002 C23.824,24.963 24.825,24.135 25.263,22.109 C25.866,22.883 26.6,24.569 25.759,27.831 Z M14.802,24.612 C14.848,24.535 14.894,24.458 14.945,24.378 C15.972,22.769 15.6,20.526 15.271,19.294 C16.205,19.799 17.053,21.066 17.354,21.626 C17.399,21.712 17.469,21.783 17.554,21.83 C17.64,21.876 17.737,21.896 17.834,21.887 C17.931,21.879 18.023,21.844 18.1,21.785 C18.177,21.726 18.235,21.646 18.267,21.555 C19.202,18.895 18.608,16.955 17.929,15.781 C18.194,15.906 18.434,16.057 18.658,16.226 C19.206,17.064 20.493,19.237 20.626,20.409 C20.791,21.857 20.277,22.913 19.588,24.145 C19.48,24.339 19.383,24.534 19.289,24.732 C18.02,27.464 18.389,30.22 18.733,31.658 C17.741,31.239 16.818,30.748 16.112,30.256 C14.298,28.995 13.721,26.519 14.802,24.612 Z M25.154,20.677 C25.082,20.637 25.001,20.615 24.918,20.614 C24.835,20.613 24.754,20.633 24.681,20.671 C24.608,20.709 24.545,20.765 24.499,20.834 C24.453,20.903 24.425,20.982 24.417,21.064 C24.366,21.587 24.257,22.102 24.092,22.601 C23.902,17.642 19.903,15.704 19.257,15.422 C18.542,14.887 17.685,14.533 16.634,14.349 C16.526,14.3317 16.415,14.3501 16.319,14.4015 C16.222,14.4529 16.145,14.5345 16.099,14.6338 C16.053,14.7331 16.041,14.8447 16.064,14.9516 C16.087,15.0585 16.145,15.1548 16.228,15.226 C16.319,15.302 18.262,16.982 17.614,20.177 C16.956,19.271 15.84,18.081 14.523,18.081 C14.442,18.081 14.362,18.101 14.29,18.139 C14.218,18.177 14.157,18.232 14.111,18.299 C14.065,18.366 14.037,18.443 14.027,18.524 C14.018,18.605 14.029,18.686 14.058,18.762 C14.069,18.794 15.286,21.983 14.104,23.837 C14.047,23.925 13.994,24.015 13.929,24.125 C12.598,26.47 13.307,29.524 15.541,31.077 C16.124,31.483 17.39,32.268 19.322,32.963 C19.325,32.965 19.329,32.966 19.333,32.967 L19.342,32.971 L19.343,32.969 C19.397,32.989 19.454,32.999 19.511,33 C19.525,33 19.541,33 19.557,32.998 C20.175,32.941 25.627,32.324 26.728,28.082 C28.188,22.412 25.278,20.745 25.154,20.677 Z" id="Shape" fill="#FFFFFF"></path>
                </g>
                <line x1="259.5" y1="134.5" x2="344" y2="134.5" id="Path" stroke="#6F7682" stroke-dasharray="2"></line>
                <rect id="Rectangle" stroke-opacity="0.5" stroke="#D45B07" x="225" y="0" width="584" height="214" rx="1.5"></rect>
                <rect id="Rectangle" stroke-opacity="0.5" stroke="#D45B07" x="245" y="20" width="114" height="174" rx="1.5"></rect>
                <path d="M275.447,147.586 L274.415,146.786 C274.743,146.417 275.085,146.064 275.44,145.727 C275.582,145.59 275.671,145.503 275.707,145.467 C275.593,145.449 275.267,145.373 274.729,145.241 C274.342,145.146 274.087,145.075 273.964,145.029 L274.367,143.826 C274.964,144.068 275.497,144.334 275.967,144.626 C275.857,143.883 275.803,143.277 275.803,142.808 L277.02,142.808 C277.02,143.14 276.958,143.751 276.835,144.64 C276.926,144.603 277.122,144.514 277.423,144.373 C277.833,144.186 278.211,144.027 278.558,143.895 L278.92,145.132 C278.414,145.246 277.828,145.357 277.163,145.467 L277.983,146.39 C278.147,146.576 278.277,146.729 278.373,146.848 L277.327,147.538 L276.404,146.014 C276.126,146.506 275.807,147.03 275.447,147.586 Z" id="Path" fill="#1D1F25" fill-rule="nonzero"></path>
                <g id="Group-6" transform="translate(0, 55)">
                    <g id="Group-5" transform="translate(84.5, 36.613)" fill="#222222" fill-rule="nonzero">
                        <path d="M35,27.887 L30,25 L30,30.774 L35,27.887 Z M28.438,27.387 L24.063,27.387 L24.063,28.387 L28.438,28.387 L28.438,27.387 Z M19.688,27.387 L15.313,27.387 L15.313,28.387 L19.688,28.387 L19.688,27.387 Z M10.938,27.387 L6.563,27.387 L6.563,28.387 L10.938,28.387 L10.938,27.387 Z M2.188,27.387 L0,27.387 L0,28.387 L2.188,28.387 L2.188,27.387 Z" id="Shape"></path>
                        <path d="M0,2.887 L5,5.774 L5,0 L0,2.887 Z M35,2.387 L32.813,2.387 L32.813,3.387 L35,3.387 L35,2.387 Z M28.438,2.387 L24.063,2.387 L24.063,3.387 L28.438,3.387 L28.438,2.387 Z M19.688,2.387 L15.313,2.387 L15.313,3.387 L19.688,3.387 L19.688,2.387 Z M10.938,2.387 L6.563,2.387 L6.563,3.387 L10.938,3.387 L10.938,2.387 Z" id="Shape"></path>
                    </g>
                    <g id="Group-4">
                        <path d="M56.931,63.678 L55.433,63.678 L55.433,46.002 C55.433,45.81 55.377,45.621 55.273,45.46 C55.168,45.298 55.019,45.17 54.844,45.091 L54.752,45.049 C52.743,44.142 50.664,43.203 47.676,43.203 C44.553,43.203 42.261,44.212 39.996,45.337 C39.829,45.42 39.689,45.547 39.59,45.706 C39.492,45.864 39.44,46.047 39.44,46.233 L39.44,63.678 L37.977,63.678 L37.977,44.812 C40.411,42.832 43.92,41.705 47.687,41.705 C51.187,41.705 54.525,42.702 56.931,44.453 L56.931,63.678 Z M47.686,39.705 C43.261,39.705 39.117,41.124 36.316,43.6 C36.209,43.694 36.124,43.809 36.066,43.938 C36.007,44.067 35.977,44.207 35.977,44.349 L35.977,64.678 C35.977,64.943 36.082,65.198 36.27,65.385 C36.457,65.573 36.712,65.678 36.977,65.678 L40.44,65.678 C40.705,65.678 40.96,65.573 41.147,65.385 C41.335,65.198 41.44,64.943 41.44,64.678 L41.44,46.856 C43.36,45.929 45.22,45.203 47.676,45.203 C50.011,45.203 51.709,45.878 53.433,46.649 L53.433,64.678 C53.433,64.943 53.538,65.198 53.726,65.385 C53.913,65.573 54.168,65.678 54.433,65.678 L57.931,65.678 C58.196,65.678 58.451,65.573 58.638,65.385 C58.826,65.198 58.931,64.943 58.931,64.678 L58.931,43.958 C58.931,43.654 58.792,43.366 58.553,43.175 C55.779,40.97 51.818,39.705 47.686,39.705 Z M47.454,72.409 C36.452,72.409 27.5,63.457 27.5,52.454 C27.5,41.45 36.452,32.5 47.454,32.5 C58.457,32.5 67.41,41.45 67.41,52.454 C67.41,63.457 58.457,72.409 47.454,72.409 Z M47.454,30.499 C35.348,30.5 25.5,40.35 25.5,52.455 C25.5,64.562 35.35,74.41 47.455,74.41 C59.561,74.41 69.41,64.562 69.41,52.455 C69.41,40.349 59.56,30.5 47.454,30.5 L47.454,30.499 Z" id="Shape" fill="#4D27AA"></path>
                        <rect id="Rectangle" stroke-opacity="0.5" stroke="#4D27AA" x="0" y="0" width="94" height="104" rx="1.5"></rect>
                    </g>
                    <g id="Group-3" transform="translate(110, 0)">
                        <path d="M27.5,71.57 L67.444,71.57 L67.444,62.211 L27.5,62.211 L27.5,71.57 Z M69.444,61.211 L69.444,72.57 C69.444,72.835 69.339,73.09 69.151,73.277 C68.964,73.465 68.709,73.57 68.444,73.57 L26.5,73.57 C26.235,73.57 25.98,73.465 25.793,73.277 C25.605,73.09 25.5,72.835 25.5,72.57 L25.5,61.211 C25.5,60.946 25.605,60.691 25.793,60.504 C25.98,60.316 26.235,60.211 26.5,60.211 L68.444,60.211 C68.709,60.211 68.964,60.316 69.151,60.504 C69.339,60.691 69.444,60.946 69.444,61.211 Z M27.5,56.714 L67.444,56.714 L67.444,47.355 L27.5,47.355 L27.5,56.714 Z M69.444,46.355 L69.444,57.715 C69.444,57.98 69.339,58.235 69.151,58.422 C68.964,58.61 68.709,58.715 68.444,58.715 L26.5,58.715 C26.235,58.715 25.98,58.61 25.793,58.422 C25.605,58.235 25.5,57.98 25.5,57.715 L25.5,46.355 C25.5,46.09 25.605,45.835 25.793,45.648 C25.98,45.46 26.235,45.355 26.5,45.355 L68.444,45.355 C68.709,45.355 68.964,45.46 69.151,45.648 C69.339,45.835 69.444,46.09 69.444,46.355 Z M27.5,41.859 L67.444,41.859 L67.444,32.5 L27.5,32.5 L27.5,41.859 Z M69.444,31.5 L69.444,42.859 C69.444,43.124 69.339,43.379 69.151,43.566 C68.964,43.754 68.709,43.859 68.444,43.859 L26.5,43.859 C26.235,43.859 25.98,43.754 25.793,43.566 C25.605,43.379 25.5,43.124 25.5,42.859 L25.5,31.5 C25.5,31.235 25.605,30.98 25.793,30.793 C25.98,30.605 26.235,30.5 26.5,30.5 L68.444,30.5 C68.709,30.5 68.964,30.605 69.151,30.793 C69.339,30.98 69.444,31.235 69.444,31.5 Z M62.899,66.917 C62.899,67.773 62.979,68.393 63.14,68.778 C63.301,69.163 63.558,69.354 63.911,69.354 C64.263,69.354 64.52,69.163 64.681,68.778 C64.842,68.393 64.922,67.773 64.922,66.917 C64.922,66.066 64.842,65.449 64.681,65.064 C64.52,64.679 64.263,64.487 63.911,64.487 C63.558,64.487 63.301,64.679 63.14,65.064 C62.979,65.449 62.899,66.066 62.899,66.917 Z M62.486,69.258 C62.161,68.722 61.999,67.942 61.999,66.917 C61.999,65.891 62.161,65.112 62.486,64.579 C62.811,64.046 63.286,63.779 63.911,63.779 C64.536,63.779 65.011,64.046 65.335,64.579 C65.661,65.112 65.823,65.891 65.823,66.917 C65.823,67.948 65.661,68.73 65.335,69.262 C65.011,69.796 64.536,70.062 63.911,70.062 C63.286,70.062 62.811,69.795 62.486,69.258 Z M60.607,70.036 C60.681,70.039 60.755,70.027 60.824,70.001 C60.894,69.975 60.957,69.935 61.01,69.883 C61.062,69.829 61.103,69.766 61.129,69.696 C61.155,69.626 61.167,69.552 61.164,69.477 C61.167,69.402 61.155,69.328 61.129,69.258 C61.102,69.188 61.062,69.125 61.01,69.071 C60.957,69.019 60.894,68.979 60.824,68.953 C60.755,68.926 60.681,68.914 60.607,68.918 C60.533,68.914 60.459,68.926 60.389,68.952 C60.32,68.979 60.256,69.019 60.203,69.071 C60.151,69.125 60.111,69.188 60.085,69.258 C60.058,69.328 60.047,69.402 60.05,69.477 C60.05,69.646 60.101,69.782 60.203,69.883 C60.256,69.935 60.32,69.975 60.389,70.001 C60.459,70.028 60.533,70.039 60.607,70.036 Z M59.084,69.223 L56.559,69.223 C57.277,68.349 57.785,67.702 58.082,67.279 C58.378,66.857 58.583,66.503 58.694,66.217 C58.801,65.953 58.858,65.672 58.862,65.387 C58.862,64.881 58.728,64.486 58.461,64.203 C58.196,63.921 57.825,63.779 57.349,63.779 C57.076,63.779 56.81,63.825 56.55,63.915 C56.291,64.005 56.021,64.149 55.743,64.347 L55.743,65.091 C56.33,64.717 56.816,64.531 57.2,64.531 C57.702,64.531 57.952,64.834 57.952,65.44 C57.952,65.714 57.88,66.002 57.739,66.305 C57.595,66.608 57.361,66.988 57.033,67.445 C56.572,68.074 56.096,68.69 55.603,69.294 L55.603,69.949 L59.084,69.949 L59.084,69.223 Z M53.998,70.036 C54.072,70.039 54.146,70.027 54.216,70.001 C54.285,69.975 54.349,69.935 54.402,69.883 C54.454,69.829 54.494,69.766 54.52,69.696 C54.547,69.626 54.558,69.552 54.555,69.477 C54.558,69.403 54.546,69.328 54.52,69.258 C54.494,69.189 54.454,69.125 54.402,69.071 C54.349,69.019 54.285,68.979 54.216,68.953 C54.146,68.926 54.072,68.915 53.998,68.918 C53.924,68.915 53.85,68.926 53.78,68.953 C53.711,68.979 53.647,69.019 53.594,69.071 C53.542,69.125 53.502,69.188 53.476,69.258 C53.449,69.328 53.438,69.402 53.441,69.477 C53.441,69.646 53.492,69.782 53.594,69.883 C53.647,69.935 53.711,69.975 53.78,70.001 C53.85,70.027 53.924,70.039 53.998,70.036 Z M49.755,67.284 C49.755,68.007 49.837,68.535 50.002,68.87 C50.166,69.205 50.423,69.372 50.776,69.372 C51.365,69.372 51.659,68.962 51.659,68.14 C51.659,67.761 51.582,67.471 51.426,67.27 C51.272,67.07 51.043,66.968 50.74,66.968 C50.418,66.968 50.09,67.05 49.755,67.214 L49.755,67.284 Z M49.342,69.341 C49.036,68.861 48.883,68.12 48.883,67.118 C48.883,66.04 49.068,65.214 49.436,64.64 C49.804,64.066 50.328,63.779 51.008,63.779 C51.425,63.78 51.835,63.879 52.206,64.068 L52.206,64.706 C52.036,64.631 51.859,64.574 51.677,64.536 C51.494,64.493 51.308,64.471 51.12,64.469 C50.681,64.469 50.353,64.643 50.136,64.99 C49.919,65.337 49.795,65.888 49.765,66.646 C50.161,66.413 50.57,66.296 50.991,66.296 C51.46,66.296 51.836,66.46 52.118,66.786 C52.4,67.112 52.541,67.546 52.541,68.088 C52.541,68.694 52.378,69.174 52.058,69.529 C51.736,69.884 51.299,70.062 50.75,70.062 C50.118,70.062 49.649,69.822 49.342,69.341 Z M46.135,69.949 L47.017,69.949 L47.017,63.893 L46.21,63.893 L44.752,64.723 L44.752,65.44 L46.135,64.784 L46.135,69.949 Z M42.877,70.036 C42.951,70.039 43.026,70.027 43.095,70.001 C43.165,69.975 43.228,69.935 43.282,69.883 C43.334,69.829 43.374,69.766 43.4,69.696 C43.427,69.626 43.438,69.552 43.435,69.477 C43.438,69.403 43.426,69.328 43.4,69.258 C43.374,69.189 43.334,69.125 43.282,69.071 C43.228,69.019 43.165,68.979 43.095,68.953 C43.026,68.926 42.951,68.915 42.877,68.918 C42.803,68.915 42.729,68.926 42.66,68.953 C42.59,68.979 42.527,69.019 42.474,69.071 C42.422,69.125 42.382,69.188 42.356,69.258 C42.329,69.328 42.318,69.402 42.321,69.477 C42.321,69.646 42.372,69.782 42.474,69.883 C42.527,69.935 42.59,69.975 42.66,70.001 C42.729,70.027 42.803,70.039 42.877,70.036 Z M41.355,69.223 L38.831,69.223 C39.548,68.349 40.056,67.702 40.352,67.279 C40.65,66.857 40.854,66.503 40.965,66.217 C41.073,65.953 41.13,65.672 41.133,65.387 C41.133,64.881 41,64.486 40.733,64.203 C40.467,63.921 40.096,63.779 39.621,63.779 C39.347,63.779 39.082,63.825 38.822,63.915 C38.561,64.005 38.293,64.149 38.014,64.347 L38.014,65.091 C38.601,64.717 39.087,64.531 39.471,64.531 C39.973,64.531 40.223,64.834 40.223,65.44 C40.223,65.714 40.152,66.002 40.01,66.305 C39.867,66.608 39.632,66.988 39.304,67.445 C38.844,68.074 38.367,68.69 37.875,69.294 L37.875,69.949 L41.355,69.949 L41.355,69.223 Z M33.929,69.949 L34.839,69.949 L36.78,64.54 L36.78,63.893 L33.234,63.893 L33.234,64.618 L35.898,64.618 L33.929,69.949 Z M30.504,69.949 L31.386,69.949 L31.386,63.893 L30.579,63.893 L29.121,64.723 L29.121,65.44 L30.504,64.784 L30.504,69.949 Z M62.899,51.737 C62.899,52.593 62.979,53.215 63.14,53.599 C63.301,53.983 63.558,54.175 63.911,54.175 C64.263,54.175 64.52,53.983 64.681,53.599 C64.842,53.215 64.922,52.593 64.922,51.737 C64.922,50.887 64.842,50.269 64.681,49.885 C64.52,49.501 64.263,49.308 63.911,49.308 C63.558,49.308 63.301,49.501 63.14,49.885 C62.979,50.269 62.899,50.887 62.899,51.737 Z M62.486,54.08 C62.161,53.544 61.999,52.763 61.999,51.737 C61.999,50.713 62.161,49.933 62.486,49.4 C62.811,48.867 63.286,48.6 63.911,48.6 C64.536,48.6 65.011,48.867 65.335,49.4 C65.661,49.933 65.823,50.713 65.823,51.737 C65.823,52.768 65.661,53.55 65.335,54.084 C65.011,54.617 64.536,54.883 63.911,54.883 C63.286,54.883 62.811,54.616 62.486,54.08 Z M60.607,54.857 C60.681,54.86 60.755,54.848 60.824,54.822 C60.894,54.796 60.957,54.756 61.01,54.704 C61.062,54.65 61.102,54.587 61.129,54.517 C61.155,54.447 61.167,54.373 61.164,54.298 C61.167,54.223 61.155,54.149 61.129,54.079 C61.102,54.009 61.062,53.945 61.01,53.891 C60.957,53.84 60.893,53.8 60.824,53.774 C60.755,53.748 60.681,53.736 60.607,53.739 C60.533,53.736 60.459,53.747 60.389,53.774 C60.32,53.8 60.257,53.84 60.203,53.891 C60.151,53.945 60.111,54.009 60.085,54.079 C60.058,54.149 60.047,54.223 60.05,54.298 C60.05,54.467 60.101,54.602 60.203,54.704 C60.256,54.756 60.32,54.796 60.389,54.822 C60.459,54.849 60.533,54.86 60.607,54.857 Z M57.255,54.77 L58.137,54.77 L58.137,48.714 L57.33,48.714 L55.873,49.545 L55.873,50.26 L57.255,49.605 L57.255,54.77 Z M53.998,54.857 C54.072,54.86 54.146,54.848 54.216,54.822 C54.285,54.796 54.349,54.756 54.402,54.704 C54.454,54.65 54.494,54.586 54.52,54.517 C54.546,54.447 54.558,54.372 54.555,54.298 C54.558,54.223 54.546,54.149 54.52,54.079 C54.494,54.009 54.454,53.945 54.402,53.891 C54.348,53.84 54.285,53.8 54.215,53.774 C54.146,53.748 54.072,53.736 53.998,53.739 C53.924,53.736 53.85,53.748 53.78,53.774 C53.711,53.8 53.648,53.84 53.594,53.891 C53.542,53.945 53.502,54.009 53.476,54.079 C53.449,54.149 53.438,54.223 53.441,54.298 C53.441,54.467 53.492,54.602 53.594,54.704 C53.647,54.756 53.711,54.796 53.78,54.822 C53.85,54.848 53.924,54.86 53.998,54.857 Z M49.755,52.105 C49.755,52.827 49.837,53.356 50.002,53.691 C50.166,54.026 50.423,54.193 50.776,54.193 C51.365,54.193 51.659,53.783 51.659,52.962 C51.659,52.583 51.582,52.293 51.426,52.091 C51.272,51.89 51.043,51.79 50.74,51.79 C50.418,51.79 50.09,51.872 49.755,52.035 L49.755,52.105 Z M49.342,54.163 C49.036,53.682 48.883,52.941 48.883,51.938 C48.883,50.861 49.068,50.035 49.436,49.461 C49.804,48.887 50.328,48.6 51.008,48.6 C51.424,48.603 51.834,48.701 52.206,48.889 L52.206,49.527 C52.036,49.452 51.859,49.395 51.677,49.356 C51.494,49.314 51.307,49.292 51.12,49.291 C50.681,49.291 50.353,49.464 50.136,49.811 C49.919,50.157 49.795,50.71 49.765,51.466 C50.135,51.241 50.558,51.121 50.991,51.117 C51.46,51.117 51.836,51.28 52.118,51.606 C52.4,51.933 52.541,52.367 52.541,52.909 C52.541,53.514 52.378,53.995 52.058,54.35 C51.736,54.706 51.299,54.883 50.75,54.883 C50.118,54.883 49.649,54.643 49.342,54.163 Z M46.135,54.77 L47.017,54.77 L47.017,48.714 L46.21,48.714 L44.752,49.545 L44.752,50.26 L46.135,49.605 L46.135,54.77 Z M42.877,54.857 C42.951,54.86 43.026,54.848 43.095,54.822 C43.165,54.796 43.228,54.756 43.282,54.704 C43.334,54.65 43.374,54.586 43.4,54.517 C43.426,54.447 43.438,54.372 43.435,54.298 C43.438,54.223 43.426,54.149 43.4,54.079 C43.374,54.009 43.334,53.945 43.282,53.891 C43.228,53.84 43.165,53.8 43.095,53.774 C43.025,53.748 42.951,53.736 42.877,53.739 C42.803,53.736 42.729,53.748 42.66,53.774 C42.591,53.8 42.527,53.84 42.474,53.891 C42.422,53.945 42.382,54.009 42.356,54.079 C42.329,54.149 42.318,54.223 42.321,54.298 C42.321,54.467 42.372,54.602 42.474,54.704 C42.527,54.756 42.59,54.796 42.66,54.822 C42.729,54.848 42.803,54.86 42.877,54.857 Z M41.355,54.045 L38.831,54.045 C39.548,53.171 40.056,52.522 40.352,52.1 C40.65,51.678 40.854,51.324 40.965,51.039 C41.077,50.753 41.133,50.476 41.133,50.208 C41.133,49.702 41,49.307 40.733,49.024 C40.467,48.742 40.096,48.6 39.621,48.6 C39.347,48.6 39.082,48.645 38.822,48.736 C38.561,48.826 38.293,48.97 38.014,49.169 L38.014,49.911 C38.601,49.539 39.087,49.352 39.471,49.352 C39.973,49.352 40.223,49.655 40.223,50.26 C40.223,50.535 40.152,50.823 40.01,51.126 C39.867,51.429 39.632,51.809 39.304,52.266 C38.844,52.895 38.368,53.511 37.875,54.115 L37.875,54.77 L41.355,54.77 L41.355,54.045 Z M33.929,54.77 L34.839,54.77 L36.78,49.361 L36.78,48.714 L33.234,48.714 L33.234,49.439 L35.898,49.439 L33.929,54.77 Z M30.504,54.77 L31.386,54.77 L31.386,48.714 L30.579,48.714 L29.121,49.545 L29.121,50.26 L30.504,49.605 L30.504,54.77 Z M62.899,37.417 C62.899,38.273 62.979,38.894 63.14,39.279 C63.301,39.663 63.558,39.855 63.911,39.855 C64.263,39.855 64.52,39.663 64.681,39.279 C64.842,38.894 64.922,38.273 64.922,37.417 C64.922,36.567 64.842,35.949 64.681,35.565 C64.52,35.18 64.263,34.988 63.911,34.988 C63.558,34.988 63.301,35.18 63.14,35.565 C62.979,35.949 62.899,36.567 62.899,37.417 Z M62.486,39.759 C62.161,39.223 61.999,38.443 61.999,37.417 C61.999,36.392 62.161,35.613 62.486,35.08 C62.811,34.547 63.286,34.28 63.911,34.28 C64.536,34.28 65.011,34.547 65.335,35.08 C65.661,35.613 65.823,36.392 65.823,37.417 C65.823,38.448 65.661,39.23 65.335,39.763 C65.011,40.297 64.536,40.563 63.911,40.563 C63.286,40.563 62.811,40.295 62.486,39.759 Z M60.607,40.537 C60.681,40.54 60.755,40.528 60.825,40.502 C60.894,40.475 60.957,40.435 61.01,40.383 C61.062,40.329 61.103,40.266 61.129,40.196 C61.155,40.126 61.167,40.052 61.164,39.977 C61.167,39.902 61.155,39.828 61.129,39.758 C61.102,39.688 61.062,39.625 61.01,39.571 C60.957,39.52 60.893,39.48 60.824,39.453 C60.755,39.427 60.681,39.416 60.607,39.419 C60.533,39.415 60.459,39.427 60.389,39.453 C60.32,39.479 60.256,39.519 60.203,39.571 C60.151,39.625 60.111,39.688 60.085,39.758 C60.058,39.828 60.047,39.902 60.05,39.977 C60.05,40.146 60.101,40.282 60.203,40.383 C60.256,40.435 60.319,40.476 60.389,40.502 C60.458,40.529 60.533,40.54 60.607,40.537 Z M56.291,37.417 C56.291,38.273 56.371,38.894 56.531,39.279 C56.693,39.663 56.949,39.855 57.301,39.855 C57.654,39.855 57.912,39.663 58.072,39.279 C58.234,38.894 58.313,38.273 58.313,37.417 C58.313,36.567 58.234,35.949 58.072,35.565 C57.912,35.18 57.654,34.988 57.301,34.988 C56.949,34.988 56.693,35.18 56.531,35.565 C56.371,35.949 56.291,36.567 56.291,37.417 Z M55.877,39.759 C55.552,39.223 55.39,38.443 55.39,37.417 C55.39,36.392 55.552,35.613 55.877,35.08 C56.203,34.547 56.677,34.28 57.301,34.28 C57.927,34.28 58.402,34.547 58.726,35.08 C59.052,35.613 59.214,36.392 59.214,37.417 C59.214,38.448 59.052,39.23 58.726,39.763 C58.402,40.297 57.927,40.563 57.301,40.563 C56.677,40.563 56.203,40.295 55.877,39.759 Z M53.998,40.537 C54.072,40.54 54.146,40.528 54.216,40.502 C54.285,40.475 54.349,40.435 54.402,40.383 C54.454,40.329 54.494,40.266 54.52,40.196 C54.547,40.126 54.558,40.052 54.555,39.977 C54.558,39.903 54.546,39.828 54.52,39.758 C54.494,39.689 54.454,39.625 54.402,39.571 C54.348,39.52 54.285,39.48 54.216,39.454 C54.146,39.427 54.072,39.416 53.998,39.419 C53.924,39.416 53.85,39.427 53.78,39.453 C53.711,39.48 53.647,39.52 53.594,39.571 C53.542,39.625 53.502,39.688 53.476,39.758 C53.449,39.828 53.438,39.902 53.441,39.977 C53.441,40.146 53.492,40.282 53.594,40.383 C53.647,40.435 53.711,40.475 53.78,40.502 C53.85,40.528 53.924,40.54 53.998,40.537 Z M49.755,37.784 C49.755,38.507 49.837,39.036 50.002,39.371 C50.166,39.706 50.423,39.873 50.776,39.873 C51.365,39.873 51.659,39.462 51.659,38.64 C51.659,38.261 51.582,37.972 51.426,37.771 C51.272,37.57 51.043,37.469 50.74,37.469 C50.418,37.469 50.09,37.551 49.755,37.715 L49.755,37.784 Z M49.342,39.842 C49.036,39.361 48.883,38.62 48.883,37.618 C48.883,36.541 49.068,35.715 49.436,35.14 C49.804,34.567 50.328,34.28 51.008,34.28 C51.218,34.28 51.431,34.306 51.645,34.358 C51.858,34.411 52.045,34.481 52.206,34.568 L52.206,35.207 C52.036,35.132 51.859,35.074 51.677,35.036 C51.494,34.994 51.308,34.972 51.12,34.97 C50.681,34.97 50.353,35.143 50.136,35.491 C49.919,35.837 49.795,36.389 49.765,37.146 C50.135,36.921 50.558,36.801 50.991,36.797 C51.46,36.797 51.836,36.96 52.118,37.286 C52.4,37.612 52.541,38.047 52.541,38.589 C52.541,39.194 52.378,39.674 52.058,40.03 C51.736,40.385 51.299,40.563 50.75,40.563 C50.118,40.563 49.649,40.323 49.342,39.842 Z M46.135,40.45 L47.017,40.45 L47.017,34.393 L46.21,34.393 L44.752,35.223 L44.752,35.94 L46.135,35.285 L46.135,40.45 Z M42.877,40.537 C42.951,40.54 43.026,40.528 43.095,40.502 C43.165,40.475 43.229,40.435 43.282,40.383 C43.334,40.329 43.374,40.266 43.4,40.196 C43.427,40.126 43.438,40.052 43.435,39.977 C43.438,39.903 43.426,39.828 43.4,39.758 C43.374,39.689 43.334,39.625 43.282,39.571 C43.228,39.52 43.165,39.48 43.095,39.454 C43.025,39.427 42.951,39.416 42.877,39.419 C42.803,39.416 42.729,39.427 42.66,39.453 C42.591,39.48 42.527,39.52 42.474,39.571 C42.422,39.625 42.382,39.688 42.356,39.758 C42.329,39.828 42.318,39.902 42.321,39.977 C42.321,40.146 42.372,40.282 42.474,40.383 C42.527,40.435 42.59,40.475 42.66,40.502 C42.729,40.528 42.803,40.54 42.877,40.537 Z M41.355,39.724 L38.831,39.724 C39.548,38.85 40.056,38.202 40.352,37.78 C40.65,37.358 40.854,37.004 40.965,36.718 C41.077,36.432 41.133,36.156 41.133,35.887 C41.133,35.382 41,34.987 40.733,34.704 C40.467,34.422 40.096,34.28 39.621,34.28 C39.347,34.28 39.082,34.325 38.822,34.416 C38.561,34.506 38.293,34.65 38.014,34.848 L38.014,35.591 C38.601,35.218 39.087,35.032 39.471,35.032 C39.973,35.032 40.223,35.335 40.223,35.94 C40.223,36.215 40.152,36.503 40.01,36.805 C39.867,37.108 39.632,37.489 39.304,37.946 C38.844,38.575 38.368,39.191 37.875,39.794 L37.875,40.45 L41.355,40.45 L41.355,39.724 Z M33.929,40.45 L34.839,40.45 L36.78,35.041 L36.78,34.393 L33.234,34.393 L33.234,35.119 L35.898,35.119 L33.929,40.45 Z M30.504,35.285 L29.121,35.94 L29.121,35.223 L30.579,34.393 L31.386,34.393 L31.386,40.45 L30.504,40.45 L30.504,35.285 Z" id="Shape" fill="#4D27AA"></path>
                        <rect id="Rectangle" stroke-opacity="0.5" stroke="#4D27AA" x="0" y="0" width="94" height="104" rx="1.5"></rect>
                    </g>
                </g>
                <path d="M158,74.5 L160.887,69.5 L155.113,69.5 L158,74.5 Z M238,49 L160,49 L160,50 L238,50 L238,49 Z M157.5,51.5 L157.5,70 L158.5,70 L158.5,51.5 L157.5,51.5 Z M160,49 C158.619,49 157.5,50.119 157.5,51.5 L158.5,51.5 C158.5,50.672 159.172,50 160,50 L160,49 Z" id="Shape" fill="#222222" fill-rule="nonzero"></path>
                <path d="M259,107 L249,101.226 L249,112.774 L259,107 Z M229,108 L250,108 L250,106 L229,106 L229,108 Z" id="Shape" fill="#222222" fill-rule="nonzero"></path>
                <path d="M229,145 L239,150.774 L239,139.226 L229,145 Z M238,146 L259,146 L259,144 L238,144 L238,146 Z" id="Shape" fill="#222222" fill-rule="nonzero"></path>
                <text id="Ubuntu-AMI" font-family="HelveticaNeue-Bold, Helvetica Neue" font-size="10" font-weight="bold" fill="#000000">
                    <tspan x="428.585" y="95">Ubuntu </tspan>
                    <tspan x="436.565" y="107">AMI</tspan>
                </text>
                <text id="AWS-EC2-CLI" font-family="HelveticaNeue-Bold, Helvetica Neue" font-size="10" font-weight="bold" fill="#000000">
                    <tspan x="513.73" y="176">AWS </tspan>
                    <tspan x="505.74" y="188">EC2 CLI</tspan>
                </text>
                <text id="Cloud-Formation" font-family="HelveticaNeue-Bold, Helvetica Neue" font-size="10" font-weight="bold" fill="#000000">
                    <tspan x="579.93" y="176">Cloud </tspan>
                    <tspan x="569.565" y="188">Formation</tspan>
                </text>
                <text id="Terraform-IAC" font-family="HelveticaNeue-Bold, Helvetica Neue" font-size="10" font-weight="bold" fill="#000000">
                    <tspan x="638.675" y="176">Terraform </tspan>
                    <tspan x="653.395" y="188">IAC</tspan>
                </text>
                <text id="Pulumi-AI" font-family="HelveticaNeue-Bold, Helvetica Neue" font-size="10" font-weight="bold" fill="#000000">
                    <tspan x="713.625" y="176">Pulumi</tspan>
                    <tspan x="725.1" y="188">AI</tspan>
                </text>
            </g>
            <rect id="Rectangle" stroke="#D45B07" x="102.5" y="37.5" width="844" height="364.75" rx="1.5"></rect>
            <rect id="Rectangle" fill="#FFFFFF" fill-rule="nonzero" x="118" y="23" width="38" height="36.1"></rect>
            <path d="M145.121,40.7815 C145.587,40.8899 146.071,40.943 146.555,40.943 C147.03,40.943 147.468,40.8807 147.886,40.755 C148.287,40.6384 148.632,40.4758 148.92,40.252 C149.209,40.0363 149.432,39.7663 149.6,39.4607 C149.758,39.1561 149.842,38.8054 149.842,38.419 C149.842,37.9518 149.703,37.5296 149.413,37.1616 C149.125,36.7936 148.642,36.5064 147.97,36.2999 L146.648,35.895 C146.155,35.7427 145.81,35.572 145.624,35.4012 C145.437,35.2305 145.344,35.0148 145.344,34.7633 C145.344,34.3953 145.493,34.1346 145.782,33.9639 C146.071,33.7932 146.49,33.7124 147.02,33.7124 C147.682,33.7124 148.278,33.8289 148.809,34.0631 C148.967,34.1346 149.088,34.1704 149.162,34.1704 C149.302,34.1704 149.376,34.0723 149.376,33.8831 L149.376,33.4609 C149.376,33.3352 149.349,33.236 149.292,33.1645 C149.237,33.0837 149.144,33.0122 149.014,32.9407 C148.92,32.8864 148.79,32.8322 148.622,32.778 C148.455,32.7249 148.278,32.68 148.091,32.635 C147.896,32.5992 147.7,32.5634 147.486,32.5358 C147.281,32.5092 147.067,32.5 146.862,32.5 C146.453,32.5 146.062,32.545 145.688,32.6523 C145.316,32.7607 145,32.913 144.72,33.1195 C144.442,33.3179 144.218,33.5694 144.05,33.8566 C143.883,34.1438 143.799,34.4761 143.799,34.8533 C143.799,35.3205 143.957,35.76 144.264,36.1557 C144.572,36.5594 145.075,36.8651 145.754,37.0716 L147.104,37.4765 C147.561,37.6196 147.877,37.773 148.044,37.9437 C148.213,38.1144 148.297,38.3209 148.297,38.5724 C148.297,38.9404 148.128,39.2276 147.812,39.4249 C147.495,39.6233 147.039,39.7214 146.453,39.7214 C146.08,39.7214 145.717,39.6856 145.344,39.6141 C144.981,39.5426 144.637,39.4341 144.319,39.2992 C144.287,39.2867 144.256,39.2742 144.227,39.2625 C144.172,39.2406 144.124,39.2212 144.087,39.2092 C144.031,39.1919 143.975,39.1826 143.92,39.1826 C143.78,39.1826 143.706,39.2726 143.706,39.4607 L143.706,39.9198 C143.706,40.0005 143.724,40.0905 143.761,40.1713 C143.799,40.252 143.901,40.342 144.05,40.4227 C144.292,40.5565 144.656,40.6742 145.121,40.7815 Z M130.993,39.1654 C130.929,38.967 130.892,38.6982 130.892,38.3659 L130.872,38.3659 L130.872,35.4555 C130.872,34.4669 130.612,33.7309 130.099,33.2452 C129.579,32.7607 128.768,32.5185 127.66,32.5185 C127.147,32.5185 126.664,32.5716 126.207,32.6892 C125.751,32.7965 125.36,32.9315 125.034,33.093 C124.904,33.1553 124.82,33.2187 124.773,33.281 C124.727,33.3444 124.708,33.4517 124.708,33.5959 L124.708,34.0354 C124.708,34.2246 124.773,34.3146 124.904,34.3146 C124.941,34.3146 124.988,34.3054 125.052,34.2869 C125.118,34.2696 125.229,34.2338 125.379,34.1704 C125.704,34.0447 126.039,33.9466 126.384,33.8659 C126.729,33.784 127.064,33.7482 127.39,33.7482 C128.107,33.7482 128.61,33.8832 128.908,34.1612 C129.196,34.4403 129.346,34.9168 129.346,35.5985 L129.346,36.2549 C128.973,36.1742 128.619,36.1015 128.275,36.0565 C127.93,36.0115 127.605,35.985 127.287,35.985 C126.328,35.985 125.574,36.2191 125.006,36.6852 C124.438,37.1524 124.158,37.773 124.158,38.5355 C124.158,39.2542 124.392,39.8298 124.848,40.2601 C125.304,40.6915 125.928,40.9073 126.71,40.9073 C127.809,40.9073 128.722,40.4943 129.448,39.6683 C129.55,39.8748 129.644,40.0455 129.737,40.1978 C129.83,40.342 129.941,40.4851 130.072,40.62 C130.165,40.7008 130.259,40.7458 130.351,40.7458 C130.426,40.7458 130.51,40.7192 130.594,40.665 L131.18,40.2878 C131.301,40.1978 131.357,40.1078 131.357,40.0179 C131.357,39.9556 131.338,39.8829 131.292,39.8114 C131.162,39.5783 131.069,39.3626 130.993,39.1654 Z M128.07,39.569 C127.735,39.6763 127.418,39.7305 127.11,39.7305 C126.682,39.7305 126.357,39.6233 126.133,39.3983 C125.899,39.1826 125.788,38.8688 125.788,38.4466 C125.788,37.9967 125.938,37.6553 126.244,37.413 C126.552,37.1708 127.009,37.0542 127.632,37.0542 C127.92,37.0542 128.209,37.0716 128.508,37.1073 C128.806,37.1442 129.094,37.1973 129.365,37.2607 L129.365,37.638 C129.365,37.9437 129.326,38.2032 129.271,38.4189 C129.215,38.6346 129.104,38.8238 128.954,38.9946 C128.703,39.2633 128.405,39.4606 128.07,39.569 Z M134.589,40.7007 C134.42,40.7007 134.309,40.6742 134.235,40.6107 C134.161,40.5565 134.095,40.4308 134.039,40.26 L131.85,33.3178 C131.795,33.1379 131.766,33.0214 131.766,32.9579 C131.766,32.8149 131.842,32.733 131.99,32.733 L132.903,32.733 C133.08,32.733 133.201,32.7607 133.266,32.823 C133.341,32.8772 133.396,33.0029 133.452,33.1736 L135.017,39.1203 L136.47,33.1736 C136.517,32.9937 136.572,32.8772 136.647,32.823 C136.721,32.7699 136.852,32.733 137.019,32.733 L137.763,32.733 C137.941,32.733 138.061,32.7607 138.137,32.823 C138.211,32.8772 138.276,33.0029 138.314,33.1736 L139.784,39.1918 L141.396,33.1736 C141.451,32.9937 141.517,32.8772 141.582,32.823 C141.657,32.7699 141.778,32.733 141.945,32.733 L142.812,32.733 C142.96,32.733 143.044,32.8057 143.044,32.9579 C143.044,32.9929 143.038,33.028 143.032,33.0673 L143.026,33.1021 C143.016,33.1552 142.997,33.2279 142.96,33.3259 L140.717,40.2693 C140.66,40.4492 140.595,40.5657 140.52,40.6199 C140.446,40.6742 140.325,40.7099 140.166,40.7099 L139.366,40.7099 C139.189,40.7099 139.068,40.6822 138.994,40.6199 C138.918,40.5565 138.854,40.44 138.816,40.26 L137.373,34.4668 L135.939,40.252 C135.892,40.4308 135.836,40.5484 135.762,40.6107 C135.687,40.6742 135.557,40.7007 135.389,40.7007 L134.589,40.7007 Z" id="Shape" fill="#252F3E"></path>
            <path d="M148.315,45.3082 C145.25,47.4919 140.799,48.6501 136.971,48.6501 C131.608,48.6501 126.774,46.7363 123.125,43.557 C122.835,43.3056 123.096,42.9641 123.44,43.1614 C127.389,45.3716 132.259,46.7098 137.298,46.7098 C140.696,46.7098 144.431,46.0268 147.867,44.6264 C148.379,44.4015 148.817,44.9494 148.315,45.3082 Z" id="Path" fill="#FF9900"></path>
            <path d="M149.59,43.9077 C149.199,43.422 147.001,43.6735 146.005,43.7912 C145.707,43.8269 145.661,43.5754 145.93,43.3863 C147.681,42.2004 150.558,42.5418 150.893,42.9375 C151.23,43.3413 150.801,46.1168 149.162,47.4468 C148.911,47.6533 148.668,47.5449 148.78,47.2761 C149.152,46.3867 149.982,44.3829 149.59,43.9077 Z" id="Path" fill="#FF9900"></path>
            <path d="M102,367.5 L102,388 M49.5,383 L53,383" id="Shape" stroke="#FFFFFF" stroke-width="5"></path>
            <line x1="102" y1="367" x2="102" y2="388" id="Path" stroke="#FFFFFF" stroke-width="5"></line>
            <path d="M90.9031,371.514 L97.0909,375.453 C97.099,375.458 97.1082,375.46 97.1167,375.465 C97.1791,375.502 97.2436,375.532 97.3109,375.553 C97.3161,375.554 97.3214,375.558 97.3266,375.559 C97.3979,375.579 97.4711,375.588 97.5444,375.59 C97.5516,375.591 97.5584,375.593 97.5653,375.593 C97.5781,375.593 97.5902,375.589 97.6029,375.588 C97.6582,375.586 97.7128,375.578 97.7671,375.565 C97.7863,375.56 97.805,375.557 97.8236,375.551 C97.8871,375.531 97.9482,375.505 98.0077,375.471 C98.0139,375.467 98.0208,375.465 98.027,375.461 C98.0832,375.427 98.1372,375.386 98.1875,375.338 C98.1947,375.331 98.2006,375.323 98.2078,375.316 C98.2157,375.308 98.2229,375.299 98.2304,375.291 C99.2973,374.238 99.828,372.598 99.5801,371.088 C99.555,370.932 99.5416,370.771 99.5416,370.61 C99.5416,369.133 100.643,367.931 101.997,367.931 C103.354,367.931 104.458,369.133 104.458,370.61 C104.458,370.771 104.445,370.932 104.419,371.089 C104.171,372.599 104.701,374.238 105.767,375.291 C105.775,375.299 105.783,375.309 105.791,375.317 C105.799,375.324 105.804,375.332 105.811,375.339 C105.859,375.385 105.911,375.424 105.965,375.457 C105.977,375.465 105.99,375.47 106.003,375.477 C106.056,375.507 106.111,375.53 106.167,375.548 C106.185,375.554 106.203,375.559 106.222,375.564 C106.291,375.581 106.36,375.593 106.431,375.593 C106.432,375.593 106.433,375.593 106.433,375.593 C106.437,375.593 106.442,375.592 106.446,375.592 C106.515,375.59 106.584,375.58 106.652,375.562 C106.674,375.556 106.696,375.547 106.719,375.539 C106.771,375.521 106.821,375.498 106.87,375.47 C106.882,375.463 106.896,375.461 106.908,375.453 L113.097,371.513 C113.383,371.331 113.559,370.999 113.559,370.639 L113.559,364.014 C113.559,363.454 113.139,363 112.621,363 C112.104,363 111.684,363.454 111.684,364.014 L111.684,370.061 L106.633,373.276 C106.314,372.728 106.166,372.047 106.265,371.446 C106.31,371.173 106.334,370.892 106.334,370.611 C106.334,368.016 104.388,365.905 101.997,365.905 C99.6092,365.905 97.6667,368.016 97.6667,370.611 C97.6667,370.89 97.6896,371.169 97.734,371.443 C97.8328,372.045 97.6847,372.727 97.3652,373.275 L92.3164,370.061 L92.3164,364.014 C92.3164,363.454 91.8965,363 91.379,363 C90.8613,363 90.4415,363.454 90.4415,364.014 L90.4415,370.641 C90.4415,370.999 90.6171,371.332 90.9032,371.514 L90.9031,371.514 Z" id="Path" fill="#000000" fill-rule="nonzero"></path>
            <path d="M116.063,377.415 L107.973,377.415 C107.863,377.414 107.752,377.437 107.643,377.481 C107.628,377.486 107.612,377.49 107.598,377.496 C107.595,377.498 107.591,377.499 107.588,377.5 C107.558,377.515 107.532,377.534 107.504,377.552 C107.481,377.565 107.458,377.577 107.436,377.593 C107.405,377.616 107.378,377.643 107.351,377.669 C107.333,377.686 107.314,377.702 107.297,377.721 C107.273,377.747 107.253,377.776 107.233,377.804 C107.216,377.828 107.197,377.85 107.182,377.875 C107.167,377.901 107.155,377.928 107.142,377.955 C107.126,377.987 107.11,378.018 107.098,378.051 C107.089,378.075 107.084,378.101 107.076,378.125 C107.065,378.164 107.053,378.201 107.047,378.24 C107.042,378.267 107.042,378.293 107.039,378.32 C107.035,378.356 107.029,378.391 107.029,378.428 C107.029,378.432 107.03,378.436 107.03,378.44 C107.031,378.456 107.034,378.471 107.034,378.487 C107.041,378.612 107.066,378.731 107.111,378.839 C107.317,379.342 107.458,379.872 107.531,380.415 C107.571,380.711 107.592,381.014 107.592,381.314 C107.592,381.491 107.585,381.668 107.571,381.843 C107.325,384.964 104.877,387.41 101.997,387.41 C99.12,387.41 96.6742,384.965 96.4287,381.844 C96.415,381.669 96.4081,381.492 96.4081,381.314 C96.4081,380.452 96.5699,379.619 96.8894,378.838 C96.8897,378.838 96.8897,378.837 96.8897,378.837 C96.9149,378.776 96.9345,378.711 96.9479,378.644 C96.9479,378.644 96.9483,378.644 96.9483,378.643 C96.9574,378.597 96.9604,378.55 96.9636,378.502 C96.9649,378.481 96.9689,378.461 96.9692,378.44 C96.9692,378.437 96.9705,378.433 96.9705,378.428 C96.9705,378.39 96.964,378.354 96.96,378.317 C96.9574,378.292 96.9574,378.267 96.9532,378.243 C96.9453,378.198 96.9326,378.156 96.9195,378.113 C96.9136,378.094 96.9097,378.074 96.9025,378.055 C96.8874,378.014 96.8681,377.977 96.8489,377.939 C96.8387,377.919 96.8302,377.898 96.8188,377.879 C96.7988,377.846 96.7753,377.816 96.7517,377.785 C96.7364,377.765 96.7223,377.744 96.7056,377.725 C96.6801,377.697 96.6514,377.672 96.6232,377.647 C96.6046,377.63 96.5873,377.612 96.5673,377.597 C96.5314,377.57 96.4924,377.548 96.4532,377.526 C96.4388,377.519 96.4264,377.508 96.411,377.501 C96.4094,377.5 96.4074,377.5 96.4058,377.499 C96.3688,377.482 96.3293,377.47 96.2901,377.458 C96.2681,377.452 96.2469,377.442 96.225,377.436 C96.209,377.433 96.1913,377.433 96.175,377.43 C96.1285,377.422 96.0824,377.415 96.0363,377.415 C96.035,377.415 96.0337,377.414 96.0324,377.414 L87.9374,377.413 C87.4198,377.413 87,377.867 87,378.427 L87,387.766 C87,388.326 87.4198,388.78 87.9374,388.78 C88.455,388.78 88.8748,388.326 88.8748,387.766 L88.8748,379.44 L94.7395,379.44 C94.6136,380.019 94.5439,380.612 94.5377,381.216 L91.3248,382.434 C91.0861,382.525 90.8916,382.716 90.785,382.964 C90.6787,383.212 90.6689,383.496 90.7585,383.751 L93.7719,392.345 C93.9138,392.751 94.2706,393 94.6489,393 C94.7594,393 94.8716,392.979 94.9811,392.934 C95.4651,392.735 95.709,392.15 95.5252,391.626 L92.8528,384.004 L94.7633,383.28 C95.5821,386.817 98.555,389.436 101.997,389.436 C105.443,389.436 108.418,386.817 109.237,383.28 L111.148,384.004 L108.475,391.626 C108.292,392.15 108.536,392.735 109.019,392.934 C109.129,392.979 109.241,393 109.352,393 C109.73,393 110.086,392.751 110.228,392.345 L113.241,383.751 C113.331,383.495 113.322,383.211 113.215,382.964 C113.108,382.716 112.914,382.525 112.675,382.434 L109.464,381.216 C109.46,380.85 109.436,380.481 109.386,380.119 C109.355,379.891 109.312,379.665 109.263,379.44 L115.125,379.441 L115.125,387.767 C115.125,388.326 115.545,388.78 116.063,388.78 C116.58,388.78 117,388.326 117,387.767 L117,378.427 C117,377.869 116.58,377.415 116.063,377.415 L116.063,377.415 Z" id="Path" fill="#000000" fill-rule="nonzero"></path>
            <path d="M238.846,37.6947 L233.87,30.6174 C233.69,30.3891 233.421,30.2367 233.063,30.1988 L225.576,29.7423 L225.576,23.8824 L229.297,22.056 L229.297,16.0058 L223.11,13 L216.924,16.0058 L216.924,22.0558 L220.421,23.768 L220.421,29.7799 L212.934,30.2367 C212.62,30.2747 212.307,30.427 212.128,30.6553 L207.151,37.6946 C207.017,37.8849 206.972,38.1131 207.017,38.3414 C207.061,38.5697 207.241,38.76 207.465,38.8741 C207.51,38.8741 207.51,38.912 207.555,38.912 C207.689,38.9882 207.869,38.9882 208.003,38.9882 C208.362,38.9882 208.676,38.8361 208.855,38.5697 L213.607,31.9108 L218.672,31.6064 L213.293,34.2699 C213.024,34.422 212.845,34.6505 212.8,34.9546 L211.993,43.1735 C211.948,43.63 212.352,44.0486 212.935,44.0868 L213.024,44.0868 C213.562,44.0868 213.966,43.7444 214.011,43.2876 L214.773,35.5253 L218.673,33.5848 L216.431,36.3244 C216.297,36.4765 216.252,36.6289 216.252,36.8192 L216.252,44.1629 C216.252,44.6194 216.7,45 217.238,45 C217.776,45 218.224,44.6194 218.224,44.1629 L218.224,37.0855 L220.6,34.1938 C221.003,34.993 221.9,35.5636 222.976,35.5636 C224.052,35.5636 224.993,34.9929 225.352,34.1938 L227.728,37.0855 L227.728,44.1629 C227.728,44.6194 228.176,45 228.714,45 C229.252,45 229.7,44.6194 229.7,44.1629 L229.7,36.8192 C229.7,36.6289 229.656,36.4768 229.521,36.3244 L227.28,33.5848 L231.18,35.5253 L231.942,43.2876 C231.987,43.7441 232.435,44.0868 232.928,44.0868 L233.018,44.0868 C233.287,44.0868 233.511,43.9726 233.69,43.7823 C233.869,43.592 233.959,43.4017 233.914,43.1735 L233.108,34.9546 C233.063,34.6881 232.883,34.4219 232.614,34.2698 L227.235,31.6064 L232.301,31.9108 L237.053,38.5696 C237.232,38.8361 237.59,38.9882 237.904,38.9882 C238.039,38.9882 238.218,38.9502 238.353,38.912 C238.398,38.912 238.398,38.8741 238.443,38.8741 C238.98,38.6078 239.159,38.0751 238.846,37.6948 L238.846,37.6947 Z M224.231,32.7861 L224.231,33.3567 C224.231,33.9274 223.693,34.4221 222.976,34.4221 C222.259,34.4221 221.721,33.9656 221.721,33.3567 L221.721,24.453 L223.066,25.0998 L224.187,24.5671 L224.187,32.786 L224.231,32.7861 Z M218.269,17.4518 L221.094,19.164 L221.631,19.5064 L221.721,19.5444 L221.497,19.6205 L220.466,20.0011 L218.225,20.8383 L218.224,17.4518 L218.269,17.4518 Z M222.438,14.636 L222.438,18.5552 L222.394,18.5552 L218.852,16.4245 L222.438,14.636 Z M227.37,16.3865 L223.783,18.5555 L223.783,14.636 L227.37,16.3865 Z M225.576,22.5887 L224.232,23.2735 L223.783,23.5018 L223.783,20.5718 L224.232,20.7239 L225.576,21.2569 L227.145,21.8657 L225.576,22.5887 Z M227.952,20.8763 L225.397,19.887 L224.456,19.5446 L224.949,19.2402 L227.907,17.4518 L227.907,20.8762 L227.952,20.8763 Z M220.421,21.2948 L222.438,20.4954 L222.438,23.4253 L220.421,22.3982 L219.076,21.7513 L220.421,21.2948 Z" id="Shape" fill="#FFFFFF" fill-rule="nonzero"></path>
            <path d="M236.865,37.6947 L232.511,30.6174 C232.354,30.3891 232.119,30.2367 231.805,30.1988 L225.254,29.7423 L225.254,23.8824 L228.51,22.056 L228.51,16.0058 L223.097,13 L217.683,16.0058 L217.683,22.0558 L220.743,23.768 L220.743,29.7799 L214.193,30.2367 C213.918,30.2747 213.643,30.427 213.487,30.6553 L209.132,37.6946 C209.015,37.8849 208.976,38.1131 209.015,38.3414 C209.054,38.5697 209.211,38.76 209.407,38.8741 C209.446,38.8741 209.446,38.912 209.486,38.912 C209.603,38.9882 209.76,38.9882 209.878,38.9882 C210.192,38.9882 210.466,38.8361 210.623,38.5697 L214.781,31.9108 L219.213,31.6064 L214.506,34.2699 C214.271,34.422 214.114,34.6505 214.075,34.9546 L213.369,43.1735 C213.33,43.63 213.683,44.0486 214.193,44.0868 L214.271,44.0868 C214.742,44.0868 215.095,43.7444 215.134,43.2876 L215.801,35.5253 L219.214,33.5848 L217.252,36.3244 C217.135,36.4765 217.095,36.6289 217.095,36.8192 L217.095,44.1629 C217.095,44.6194 217.488,45 217.958,45 C218.429,45 218.821,44.6194 218.821,44.1629 L218.821,37.0855 L220.9,34.1938 C221.253,34.993 222.037,35.5636 222.979,35.5636 C223.92,35.5636 224.744,34.9929 225.058,34.1938 L227.137,37.0855 L227.137,44.1629 C227.137,44.6194 227.529,45 228,45 C228.47,45 228.863,44.6194 228.863,44.1629 L228.863,36.8192 C228.863,36.6289 228.824,36.4768 228.706,36.3244 L226.745,33.5848 L230.157,35.5253 L230.824,43.2876 C230.863,43.7441 231.256,44.0868 231.687,44.0868 L231.766,44.0868 C232.001,44.0868 232.197,43.9726 232.354,43.7823 C232.511,43.592 232.589,43.4017 232.55,43.1735 L231.844,34.9546 C231.805,34.6881 231.648,34.4219 231.413,34.2698 L226.706,31.6064 L231.138,31.9108 L235.296,38.5696 C235.453,38.8361 235.767,38.9882 236.041,38.9882 C236.159,38.9882 236.316,38.9502 236.434,38.912 C236.473,38.912 236.473,38.8741 236.512,38.8741 C236.983,38.6078 237.139,38.0751 236.865,37.6948 L236.865,37.6947 Z M224.077,32.7861 L224.077,33.3567 C224.077,33.9274 223.607,34.4221 222.979,34.4221 C222.351,34.4221 221.881,33.9656 221.881,33.3567 L221.881,24.453 L223.058,25.0998 L224.038,24.5671 L224.038,32.786 L224.077,32.7861 Z M218.861,17.4518 L221.332,19.164 L221.803,19.5064 L221.881,19.5444 L221.685,19.6205 L220.783,20.0011 L218.821,20.8383 L218.821,17.4518 L218.861,17.4518 Z M222.508,14.636 L222.508,18.5552 L222.469,18.5552 L219.371,16.4245 L222.508,14.636 Z M226.823,16.3865 L223.685,18.5555 L223.685,14.636 L226.823,16.3865 Z M225.254,22.5887 L224.078,23.2735 L223.685,23.5018 L223.685,20.5718 L224.078,20.7239 L225.254,21.2569 L226.627,21.8657 L225.254,22.5887 Z M227.333,20.8763 L225.097,19.887 L224.274,19.5446 L224.705,19.2402 L227.294,17.4518 L227.294,20.8762 L227.333,20.8763 Z M220.743,21.2948 L222.508,20.4954 L222.508,23.4253 L220.743,22.3982 L219.567,21.7513 L220.743,21.2948 Z" id="Shape" fill="#FFFFFF" fill-rule="nonzero"></path>
            <path d="M237.855,37.1513 L233.19,30.5163 C233.022,30.3023 232.77,30.1595 232.434,30.1239 L225.415,29.6959 L225.415,24.2022 L228.903,22.49 L228.903,16.818 L223.103,14 L217.304,16.818 L217.304,22.4898 L220.582,24.095 L220.582,29.7312 L213.563,30.1594 C213.269,30.195 212.975,30.3378 212.807,30.5518 L208.142,37.1512 C208.016,37.3296 207.974,37.5436 208.016,37.7576 C208.058,37.9716 208.226,38.15 208.436,38.257 C208.478,38.257 208.478,38.2925 208.52,38.2925 C208.646,38.364 208.815,38.364 208.941,38.364 C209.277,38.364 209.571,38.2214 209.739,37.9715 L214.194,31.7289 L218.943,31.4435 L213.9,33.9405 C213.648,34.0831 213.479,34.2973 213.437,34.5825 L212.681,42.2877 C212.639,42.7156 213.017,43.1081 213.564,43.1439 L213.648,43.1439 C214.152,43.1439 214.531,42.8229 214.573,42.3946 L215.287,35.1175 L218.943,33.2983 L216.842,35.8667 C216.716,36.0092 216.674,36.1521 216.674,36.3305 L216.674,43.2152 C216.674,43.6432 217.094,44 217.598,44 C218.102,44 218.523,43.6432 218.523,43.2152 L218.523,36.5802 L220.75,33.8692 C221.128,34.6184 221.969,35.1534 222.977,35.1534 C223.986,35.1534 224.869,34.6184 225.205,33.8692 L227.432,36.5802 L227.432,43.2152 C227.432,43.6432 227.853,44 228.357,44 C228.861,44 229.282,43.6432 229.282,43.2152 L229.282,36.3305 C229.282,36.1521 229.24,36.0095 229.114,35.8667 L227.012,33.2983 L230.669,35.1175 L231.383,42.3946 C231.425,42.8226 231.845,43.1439 232.308,43.1439 L232.392,43.1439 C232.644,43.1439 232.854,43.0369 233.022,42.8584 C233.19,42.68 233.274,42.5016 233.232,42.2876 L232.476,34.5824 C232.434,34.3326 232.266,34.083 232.013,33.9405 L226.97,31.4435 L231.719,31.7289 L236.174,37.9715 C236.342,38.2213 236.679,38.3639 236.973,38.3639 C237.099,38.3639 237.267,38.3283 237.393,38.2925 C237.435,38.2925 237.435,38.2569 237.477,38.2569 C237.981,38.0074 238.149,37.5079 237.855,37.1514 L237.855,37.1513 Z M224.154,32.5495 L224.154,33.0844 C224.154,33.6194 223.65,34.0833 222.978,34.0833 C222.305,34.0833 221.801,33.6553 221.801,33.0844 L221.801,24.7372 L223.062,25.3436 L224.112,24.8442 L224.112,32.5493 L224.154,32.5495 Z M218.565,18.1736 L221.213,19.7788 L221.717,20.0998 L221.801,20.1353 L221.591,20.2068 L220.624,20.5636 L218.523,21.3484 L218.523,18.1735 L218.565,18.1736 Z M222.473,15.5338 L222.473,19.208 L222.431,19.208 L219.111,17.2104 L222.473,15.5338 Z M227.097,17.1748 L223.734,19.2083 L223.734,15.5338 L227.097,17.1748 Z M225.415,22.9894 L224.155,23.6314 L223.734,23.8454 L223.734,21.0986 L224.155,21.2412 L225.415,21.7408 L226.886,22.3116 L225.415,22.9894 Z M227.643,21.384 L225.247,20.4566 L224.365,20.1356 L224.827,19.8502 L227.601,18.1736 L227.601,21.384 L227.643,21.384 Z M220.582,21.7764 L222.473,21.0269 L222.473,23.7737 L220.582,22.8108 L219.321,22.2044 L220.582,21.7764 Z" id="Shape" fill="#000000" fill-rule="nonzero"></path>
            <path d="M72.6274,223.429 L64.8984,222.797 L64.3367,223.543 L72.5595,224.216 C72.5711,224.217 72.5827,224.218 72.594,224.218 C72.8116,224.218 72.9904,224.051 72.9996,223.839 C73.0086,223.628 72.8447,223.447 72.6279,223.429 L72.6274,223.429 Z" id="Path" fill="#000000" fill-rule="nonzero"></path>
            <path d="M71.0663,228.876 C71.2797,228.943 71.5084,228.829 71.5772,228.621 C71.6459,228.413 71.5287,228.191 71.3152,228.124 L62.8789,225.48 L62.3738,226.152 L71.0663,228.876 Z" id="Path" fill="#000000" fill-rule="nonzero"></path>
            <path d="M43.3721,223.429 C43.1553,223.447 42.9914,223.628 43.0003,223.839 C43.0095,224.051 43.1884,224.218 43.4059,224.218 C43.4173,224.218 43.4289,224.217 43.4405,224.216 L51.6633,223.543 L51.1016,222.797 L43.3721,223.429 Z" id="Path" fill="#000000" fill-rule="nonzero"></path>
            <path d="M44.6837,228.124 C44.4703,228.191 44.3531,228.414 44.4217,228.621 C44.4906,228.829 44.7193,228.943 44.9327,228.876 L53.6251,226.152 L53.12,225.481 L44.6837,228.124 Z" id="Path" fill="#000000" fill-rule="nonzero"></path>
            <path d="M53.1691,216.391 C53.1691,216.702 52.9095,216.955 52.5895,216.955 C52.2695,216.955 52.0101,216.702 52.0101,216.391 C52.0101,216.08 52.2695,215.827 52.5895,215.827 C52.9095,215.827 53.1691,216.08 53.1691,216.391 Z" id="Path" fill="#000000" fill-rule="nonzero"></path>
            <path d="M58.8872,232.137 C58.8872,232.614 58.4898,233 57.9996,233 C57.5094,233 57.1121,232.614 57.1121,232.137 C57.1121,231.66 57.5094,231.274 57.9996,231.274 C58.4898,231.274 58.8872,231.66 58.8872,232.137 Z" id="Path" fill="#000000" fill-rule="nonzero"></path>
            <path d="M62.6714,223.01 C62.6903,222.793 62.8868,222.632 63.1104,222.65 L64.8987,222.797 L65.3802,222.157 L65.38,222.157 C67.0492,219.948 67.7586,217.189 67.3555,214.476 C67.2363,213.66 67.1012,213.042 66.9641,212.689 L66.9644,212.689 C66.9235,212.583 66.9308,212.466 66.9847,212.366 C67.0386,212.266 67.1338,212.194 67.2462,212.166 C68.5749,211.845 69.8465,210.847 70.6478,209.497 C72.0392,207.153 71.6874,204.413 69.8627,203.388 C68.038,202.364 65.422,203.437 64.0303,205.782 L64.0305,205.782 C63.7393,206.27 63.5169,206.794 63.3694,207.341 C63.3368,207.462 63.2464,207.562 63.1263,207.608 C63.0059,207.655 62.8701,207.642 62.7603,207.576 C61.3382,206.694 59.6865,206.225 57.9997,206.225 C56.3128,206.225 54.6612,206.694 53.239,207.576 C53.1292,207.642 52.9934,207.655 52.873,207.608 C52.7527,207.562 52.6623,207.462 52.6299,207.341 C52.4824,206.794 52.2601,206.27 51.9688,205.782 C50.5775,203.438 47.9613,202.364 46.1369,203.388 C44.3125,204.413 43.9606,207.153 45.3518,209.497 C46.153,210.847 47.4247,211.845 48.7533,212.167 L48.7533,212.167 C48.8657,212.194 48.961,212.266 49.0149,212.366 C49.0688,212.466 49.0763,212.584 49.0352,212.689 C48.8984,213.042 48.763,213.66 48.6439,214.476 L48.6441,214.476 C48.2409,217.189 48.9503,219.948 50.6196,222.157 L51.1011,222.797 L52.8894,222.651 C52.9977,222.64 53.1062,222.671 53.1903,222.739 C53.2742,222.807 53.3269,222.904 53.3361,223.01 C53.3453,223.116 53.3102,223.22 53.2392,223.301 C53.1681,223.381 53.0666,223.43 52.9578,223.437 L51.6627,223.543 L53.1203,225.48 L53.7008,225.298 C53.9138,225.233 54.1415,225.347 54.2101,225.554 C54.2785,225.761 54.1622,225.983 53.9498,226.05 L53.6257,226.152 L57.0828,230.746 L57.0825,230.746 C57.3559,230.575 57.6745,230.484 57.9998,230.484 C58.3251,230.484 58.6434,230.575 58.9171,230.746 L62.3742,226.152 L62.0501,226.05 L62.0498,226.05 C61.8374,225.983 61.7209,225.761 61.7895,225.554 C61.8579,225.347 62.0856,225.233 62.2988,225.298 L62.8794,225.48 L64.3369,223.543 L63.0418,223.437 C62.9345,223.429 62.8351,223.379 62.7658,223.299 C62.6961,223.219 62.6623,223.115 62.6712,223.01 L62.6714,223.01 Z M52.5892,217.745 C52.2201,217.745 51.8663,217.602 51.6053,217.348 C51.3442,217.094 51.1977,216.75 51.1977,216.391 C51.1977,216.032 51.3442,215.688 51.6053,215.434 C51.8663,215.181 52.2202,215.038 52.5892,215.038 C52.9583,215.038 53.3124,215.181 53.5732,215.434 C53.8342,215.688 53.981,216.032 53.9807005,216.391 C53.9805,216.75 53.8338,217.094 53.5727,217.348 C53.3119,217.601 52.9583,217.744 52.5892,217.745 L52.5892,217.745 Z M62.1832,216.391 L62.1835,216.391 C62.1835,216.032 62.3299,215.688 62.591,215.434 C62.852,215.181 63.2059,215.038 63.575,215.038 C63.944,215.038 64.2979,215.18 64.5589,215.434 C64.8199,215.688 64.9664005,216.032 64.9664005,216.391 C64.9667,216.75 64.82,217.094 64.5589,217.348 C64.2981,217.602 63.944,217.745 63.575,217.745 C63.2061,217.744 62.8522,217.601 62.5914,217.348 C62.3306,217.094 62.1839,216.75 62.1834,216.391 L62.1832,216.391 Z" id="Shape" fill="#000000" fill-rule="nonzero"></path>
            <path d="M64.154,216.391 C64.154,216.702 63.8946,216.955 63.5746,216.955 C63.2546,216.955 62.9952,216.702 62.9952,216.391 C62.9952,216.08 63.2546,215.827 63.5746,215.827 C63.8946,215.827 64.154,216.08 64.154,216.391 Z" id="Path" fill="#000000" fill-rule="nonzero"></path>
        </g>
    </g>
</svg>