<?xml version="1.0" encoding="UTF-8"?>
<svg width="500px" height="500px" viewBox="0 0 500 500" version="1.1" xmlns="http://www.w3.org/2000/svg" xmlns:xlink="http://www.w3.org/1999/xlink">

    <defs>
        <linearGradient x1="50%" y1="0%" x2="50%" y2="100%" id="linearGradient-1">
            <stop stop-color="#FCA326" offset="0%"></stop>
            <stop stop-color="#FC6D26" offset="32.7775862%"></stop>
            <stop stop-color="#E24329" offset="78.8208861%"></stop>
            <stop stop-color="#FC6D26" offset="100%"></stop>
        </linearGradient>
    </defs>

    <g id="Page-1" stroke="none" stroke-width="1" fill="none" fill-rule="evenodd">
        <g id="gitlab-logo-500" transform="translate(2.500000, 2.500000)" fill-rule="nonzero">
            <!-- <rect id="rect" stroke="url(#linearGradient-1)" stroke-width="5" fill="#FFFFFF" x="5" y="5" width="480" height="480" rx="20"></rect> -->
            <g id="logo" transform="translate(47.500000, 47.500000)">
                <path d="M393.335026,158.310321 L392.772702,156.818312 L338.331491,9.30399453 C337.223845,6.4127889 335.262574,3.96016763 332.729087,2.29803751 C327.536584,-1.04860036 320.884734,-0.677389119 316.06766,3.22784045 C313.741982,5.18918641 312.054844,7.84688484 311.235847,10.8392505 L274.476575,127.605201 L125.627556,127.605201 L88.8682839,10.8392505 C88.0710518,7.83058444 86.3802642,5.15957129 84.0364702,3.20621713 C79.2193961,-0.699012443 72.567547,-1.07022369 67.3750437,2.27641419 C64.8472421,3.94525571 62.8876854,6.39573381 61.7726391,9.2823712 L7.22729423,156.731818 L6.68579787,158.223828 C-9.41432612,201.899787 4.25895058,251.366136 40.2169186,279.530676 L40.4043597,279.682039 L40.9042025,280.049636 L123.836453,344.530388 L164.865215,376.770765 L189.857355,396.361496 C195.865261,401.09751 204.176389,401.09751 210.184295,396.361496 L235.176435,376.770765 L276.205198,344.530388 L359.637291,279.660416 L359.845558,279.487429 C395.719423,251.320357 409.366406,201.940595 393.335026,158.310321 Z" id="top-head" fill="#E24329"></path>
                <path d="M393.335026,158.310321 L392.772702,156.818312 C366.245483,162.471557 341.248158,174.137653 319.56656,190.983164 L199.999998,284.850014 C240.716359,316.83091 276.163544,344.616882 276.163544,344.616882 L359.595637,279.746909 L359.803905,279.573923 C395.730783,251.406631 409.399433,201.97465 393.335026,158.310321 Z" id="right-cheek" style="--order: 2" fill="#FC6D26"></path>
                <path d="M123.836453,344.616882 L164.865215,376.857258 L189.857355,396.447989 C195.865261,401.184004 204.176389,401.184004 210.184295,396.447989 L235.176435,376.857258 L276.205198,344.616882 C276.205198,344.616882 240.716359,316.744417 199.999998,284.850014 C159.283637,316.744417 123.836453,344.616882 123.836453,344.616882 Z" id="bottom-mouth" fill="#FCA326"></path>
                <path d="M80.4126099,190.983164 C58.7484566,174.102938 33.7564897,162.406487 7.22729423,156.731818 L6.68579787,158.223828 C-9.41432612,201.899787 4.25895058,251.366136 40.2169186,279.530676 L40.4043597,279.682039 L40.9042025,280.049636 L123.836453,344.530388 C123.836453,344.530388 159.241984,316.744417 200,284.76352 L80.4126099,190.983164 Z" id="left-cheek" style="--order: 3" fill="#FC6D26"></path>
            </g>
        </g>
    </g>
</svg>