<?xml version="1.0" encoding="UTF-8"?>
<svg width="500px" height="500px" viewBox="0 0 500 500" version="1.1" xmlns="http://www.w3.org/2000/svg" xmlns:xlink="http://www.w3.org/1999/xlink">
    <title>image-500-500</title>
    <defs>
        <linearGradient x1="50%" y1="99.8%" x2="50%" y2="-0.6%" id="linearGradient-1">
            <stop stop-color="#49E4A3" stop-opacity="0.702" offset="31.3%"></stop>
            <stop stop-color="#49E4A5" stop-opacity="0.667" offset="39.5%"></stop>
            <stop stop-color="#4BE7AE" stop-opacity="0.573" offset="52.1%"></stop>
            <stop stop-color="#4EEBBB" stop-opacity="0.416" offset="67.6%"></stop>
            <stop stop-color="#52F1CE" stop-opacity="0.204" offset="85.1%"></stop>
            <stop stop-color="#57F7E0" stop-opacity="0" offset="100%"></stop>
        </linearGradient>
    </defs>
    <g id="Page-1" stroke="none" stroke-width="1" fill="none" fill-rule="evenodd">
        <g id="image-500-500" transform="translate(-0.000001, -0.000000)" fill-rule="nonzero">
            <g id="_10" transform="translate(249.414348, 250.000000) scale(-1, 1) translate(-249.414348, -250.000000) ">
                <g id="Group_56950" transform="translate(0.000000, 186.873435)">
                    <g id="Group_56944" transform="translate(0.405908, 144.255038)" fill="#F3B2A1">
                        <path d="M497.991457,1.43745935 L497.949791,25.3951152 C497.845628,62.0555369 473.747351,98.6638767 425.608087,126.642252 C328.735826,182.947952 171.052785,182.947952 73.4982522,126.642252 C24.4110986,98.2993037 -0.103833182,61.0868143 0,23.9316149 L0.0472042135,0 C-0.0569595076,37.1551993 24.4579723,74.3676887 73.5451259,102.705429 C171.099659,159.031961 328.746243,159.031961 425.654961,102.705429 C473.794224,74.711429 497.887293,38.1030892 497.991457,1.43745935 Z" id="Path_24062"></path>
                    </g>
                    <g id="Group_56946" transform="translate(262.351956, 145.671664)" fill="#E99B8A">
                        <path d="M163.724537,101.273178 C118.340404,127.642224 59.623314,141.662661 0,143.32928 L0,167.260895 C59.6076894,165.589068 118.303946,151.568631 163.677663,125.204793 C211.816927,97.2264173 235.915204,60.6232857 236.019368,23.9576559 L236.061033,-1.18420441e-12 C235.941245,36.6864626 211.848176,73.2948024 163.724537,101.273178 Z" id="Path_24063"></path>
                    </g>
                    <g id="Group_56948" fill="#FDC8B8">
                        <ellipse id="Ellipse_429" transform="translate(249.415364, 144.961588) rotate(-89.828000) translate(-249.415364, -144.961588) " cx="249.415364" cy="144.961588" rx="144.214545" ry="248.981526"></ellipse>
                    </g>
                </g>
                <g id="Group_57166" transform="translate(80.039403, 0.000000)">
                    <g id="Group_57050" transform="translate(117.324807, 0.000000)">
                        <g id="Group_57042">
                            <g id="Group_56959">
                                <g id="Group_56953" transform="translate(0.000000, 71.724350)" fill="#CBDBF4">
                                    <path d="M0,0 L0.651023257,231.373666 C0.521536151,232.70449 1.11853457,234.001967 2.21347907,234.769403 L94.1796285,288.215808 C93.084684,287.448372 92.4876856,286.150896 92.6171727,284.820071 L91.9661494,53.4464053 L0,0 Z" id="Path_24064"></path>
                                </g>
                                <g id="Group_56955" fill="#EBF2FF">
                                    <path d="M0,71.7243502 L91.9661494,125.170756 C92.1625762,121.472017 94.1106412,118.088535 97.2107928,116.061638 L204.442136,54.1623468 C205.529937,53.3502023 206.978891,53.2097219 208.202446,53.7977738 L116.236296,0.346160298 C115.008953,-0.224000033 113.568757,-0.0823741165 112.475986,0.715941508 L5.24464336,62.6152328 C2.14449183,64.64213 0.196426741,68.0256115 0,71.7243502 Z" id="Path_24065"></path>
                                </g>
                                <g id="Group_56957" transform="translate(91.966149, 53.437206)" fill="#DBE6FA">
                                    <path d="M5.24985155,62.6296399 C2.14570859,64.6462037 0.194153891,68.0265753 0,71.7231328 L0.656231443,303.102007 C0.656231443,306.45087 3.0259561,307.789374 5.93733211,306.127963 L113.173883,244.218255 C116.281073,242.197301 118.232803,238.810817 118.423735,235.109138 L117.767503,3.73026379 C117.767503,0.397024717 115.402987,-0.957103658 112.486402,0.719932253 L5.24985155,62.6296399 Z" id="Path_24066"></path>
                                </g>
                            </g>
                            <g id="Group_57040" transform="translate(104.361632, 71.724350)">
                                <g id="Group_56997">
                                    <g id="Group_56982">
                                        <g id="Group_56968">
                                            <g id="Group_56962" fill="#CBDBF4">
                                                <polygon id="Path_24067" points="96.2993602 0 95.7785416 185.208304 0 240.868189 0.520818606 55.6598844"></polygon>
                                            </g>
                                            <g id="Group_56966" transform="translate(7.150839, 16.296414)" fill="#BBCFEF">
                                                <path d="M0.093747349,90.1589088 L0,47.3476195 L81.877893,-1.18420441e-12 L81.9716404,42.8217058 L0.093747349,90.1589088 Z M2.60409303,48.8423689 L2.68742401,85.6538279 L79.3675473,41.31654 L79.2842164,4.50508094 L2.60409303,48.8423689 Z" id="Path_24068"></path>
                                            </g>
                                            <g id="Group_56967" transform="translate(7.150839, 68.570978)" fill="#BBCFEF">
                                                <path d="M0.093747349,90.1589088 L0,47.3372031 L81.877893,-1.18420441e-12 L81.9716404,42.8112894 L0.093747349,90.1589088 Z M2.60409303,48.8423689 L2.68742401,85.6486197 L79.3675473,41.31654 L79.2842164,4.50508094 L2.60409303,48.8423689 Z" id="Path_24069"></path>
                                            </g>
                                        </g>
                                        <g id="Group_56969" transform="translate(8.442470, 123.048604)" fill="#4F91FF">
                                            <polygon id="Path_24070" points="79.3727555 39.7749169 79.3727555 38.2124611 0.109371907 84.0444984 0 45.8476619 44.8945638 19.8536053 79.2685918 -1.18420441e-12"></polygon>
                                        </g>
                                        <g id="Group_56970" transform="translate(53.337033, 123.059020)" fill="#457AEF">
                                            <polygon id="Path_24071" points="34.4781917 39.7645006 0 19.8536053 34.374028 1.18420441e-12"></polygon>
                                        </g>
                                        <g id="Group_56979" transform="translate(52.003738, 127.913050)">
                                            <g id="Group_56971" transform="translate(0.000000, 1.609329)" fill="#BBCFEF">
                                                <polygon id="Path_24072" points="95.2316821 40.8009296 95.1535593 69.1022126 -1.18420441e-12 14.1662661 24.5618054 0"></polygon>
                                            </g>
                                            <g id="Group_56973" transform="translate(93.976509, 40.800930)" fill="#A9B1C1">
                                                <polygon id="Path_24073" points="4.02592782 0 3.94780503 28.301283 1.18225824 29.9106125 1.26038103 1.60932949"></polygon>
                                            </g>
                                            <g id="Group_56975" transform="translate(17.556795, 85.205924)" fill="#A9B1C1">
                                                <polygon id="Path_24074" points="4.03113601 -1.18420441e-12 3.95301322 28.301283 1.17705005 29.9158207 1.25517284 1.61453768"></polygon>
                                            </g>
                                            <g id="Group_56977" transform="translate(24.567014, 0.000000)" fill="#EBF2FF">
                                                <polygon id="Path_24075" points="73.4354234 40.8009296 70.6698766 42.4102591 0 1.60932949 2.7655468 0"></polygon>
                                            </g>
                                        </g>
                                        <g id="Group_56981" transform="translate(8.452886, 143.688645)" fill="#4F575F">
                                            <polygon id="Path_24076" points="114.335309 40.8582196 65.1439912 69.4407447 0 31.8116004 0 25.2180369 43.5612682 0"></polygon>
                                        </g>
                                    </g>
                                    <g id="Group_56996" transform="translate(8.447678, 166.479667)">
                                        <g id="Group_56985" transform="translate(0.000000, 9.030995)" fill="#EBF2FF">
                                            <polygon id="Path_24077" points="65.1439912 37.6083115 62.368028 39.2228492 0.0260409303 3.22907536 -1.18420441e-12 0"></polygon>
                                        </g>
                                        <g id="Group_56987" transform="translate(0.026041, 12.260070)" fill="#BBCFEF">
                                            <polygon id="Path_24078" points="62.3419871 35.9937738 62.2638643 64.2950569 0.0781227909 28.3898222 0 0"></polygon>
                                        </g>
                                        <g id="Group_56995" transform="translate(58.019193, 0.000000)">
                                            <g id="Group_56989" transform="translate(0.499986, 0.000000)" fill="#EBF2FF">
                                                <polygon id="Path_24079" points="91.1745051 2.47388838 4.28633713 52.9932931 1.18420441e-12 50.5194048 86.888168 0"></polygon>
                                            </g>
                                            <g id="Group_56991" transform="translate(4.702992, 2.473888)" fill="#BBCFEF">
                                                <polygon id="Path_24080" points="86.971499 0 86.888168 28.301283 0 78.8206878 0.0781227909 50.5194048"></polygon>
                                            </g>
                                            <g id="Group_56993" transform="translate(-0.000000, 50.493364)" fill="#CBDBF4">
                                                <polygon id="Path_24081" points="4.78632299 2.47388838 4.7082002 30.7751714 0.421863071 28.301283 0.499985862 -1.18420441e-12"></polygon>
                                            </g>
                                        </g>
                                    </g>
                                </g>
                                <g id="Group_57010" transform="translate(35.608368, 42.708872)">
                                    <g id="Group_56998" transform="translate(19.608821, 0.000000)" fill="#2A3134">
                                        <path d="M2.61971759,2.32631297 L3.56760745,2.87838069 C3.25006943,2.73020678 2.87712091,2.76610557 2.59367666,2.97212804 L1.64057861,2.42006032 C1.92604352,2.21418694 2.30037442,2.17834675 2.61971759,2.32631297 Z" id="Path_24082"></path>
                                    </g>
                                    <g id="Group_57000" transform="translate(0.197911, 17.440469)" fill="#2A3134">
                                        <path d="M3.28115722,3.3228227 C2.6509667,2.85408596 1.93223703,2.86971052 1.92702884,1.88536335 L2.88012689,2.43743108 C2.84424208,2.78330463 2.99750625,3.12168007 3.28115722,3.3228227 L3.28115722,3.3228227 Z" id="Path_24083"></path>
                                    </g>
                                    <g id="Group_57002" transform="translate(0.000000, 14.870229)" fill="#2A3134">
                                        <polygon id="Path_24084" points="3.07803796 5.00767089 2.1301481 4.45560317 2.1301481 0.200515163 3.07803796 0.752582885"></polygon>
                                    </g>
                                    <g id="Group_57004" transform="translate(3.489485, 2.425269)" fill="#2A3134">
                                        <polygon id="Path_24085" points="0.947889863 10.8069861 0 10.2549183 17.7651226 -1.18420441e-12 18.7130125 0.552067722"></polygon>
                                    </g>
                                    <g id="Group_57006" transform="translate(0.671856, 11.544802)" fill="#2A3134">
                                        <path d="M2.3905574,4.07800968 L1.44266754,3.52594196 C1.48816035,2.55376353 1.99769838,1.66255633 2.81242047,1.13017637 L3.76551852,1.68745228 C2.95025645,2.21760627 2.43886435,3.10673118 2.3905574,4.07800968 Z" id="Path_24086"></path>
                                    </g>
                                    <g id="Group_57008" transform="translate(3.067622, 2.785022)" fill="#4F575F">
                                        <path d="M19.1348756,0.187106528 C19.8952707,-0.2503811 20.5098367,0.103775552 20.5150449,0.994375367 L20.5150449,5.24425519 C20.4671633,6.21156261 19.9575962,7.0970082 19.1452919,7.62439622 L1.38016931,17.8793146 C0.619774141,18.3220104 0,17.9678537 0,17.0928785 L0,12.8377905 C0.0483069461,11.866512 0.559699049,10.9773871 1.37496112,10.4472331 L19.1348756,0.187106528 Z" id="Path_24087"></path>
                                    </g>
                                </g>
                                <g id="Group_57024" transform="translate(35.608368, 95.467797)">
                                    <g id="Group_57012" transform="translate(19.608821, 0.000000)" fill="#2A3134">
                                        <path d="M2.61971759,2.32631297 L3.56760745,2.87838069 C3.25006943,2.73020678 2.87712091,2.76610557 2.59367666,2.97212804 L1.64057861,2.42006032 C1.92604352,2.21418694 2.30037442,2.17834675 2.61971759,2.32631297 Z" id="Path_24088"></path>
                                    </g>
                                    <g id="Group_57014" transform="translate(0.197911, 17.432657)" fill="#2A3134">
                                        <path d="M3.28115722,3.32021861 C2.6509667,2.85148187 1.93223703,2.87231461 1.92702884,1.88796745 L2.88012689,2.44003517 C2.84279196,2.78468919 2.99658401,3.12223279 3.28115722,3.32021861 L3.28115722,3.32021861 Z" id="Path_24089"></path>
                                    </g>
                                    <g id="Group_57016" transform="translate(0.000000, 14.865021)" fill="#2A3134">
                                        <polygon id="Path_24090" points="3.07803796 5.00767089 2.1301481 4.45560317 2.1301481 0.200515163 3.07803796 0.752582885"></polygon>
                                    </g>
                                    <g id="Group_57018" transform="translate(3.489485, 2.414852)" fill="#2A3134">
                                        <polygon id="Path_24091" points="0.947889863 10.8069861 0 10.2549183 17.7651226 0 18.7130125 0.552067722"></polygon>
                                    </g>
                                    <g id="Group_57020" transform="translate(0.671856, 11.539594)" fill="#2A3134">
                                        <path d="M2.3905574,4.07800968 L1.44266754,3.52594196 C1.4864642,2.55327096 1.99641346,1.6613445 2.81242047,1.13017637 L3.76551852,1.6822441 C2.95008768,2.2146634 2.43890897,3.10535358 2.3905574,4.07800968 Z" id="Path_24092"></path>
                                    </g>
                                    <g id="Group_57022" transform="translate(3.067622, 2.778749)" fill="#4F575F">
                                        <path d="M19.1348756,0.188170416 C19.8952707,-0.249317213 20.5098367,0.099631253 20.5150449,0.990231069 L20.5150449,5.24531908 C20.4654822,6.21213165 19.9563237,7.09686716 19.1452919,7.62546011 L1.38016931,17.8803785 C0.619774141,18.3178661 0,17.9637094 0,17.0939424 L0,12.8388544 C0.0483515686,11.8661983 0.559530283,10.9755081 1.37496112,10.4430888 L19.1348756,0.188170416 Z" id="Path_24093"></path>
                                    </g>
                                </g>
                                <g id="Group_57038" transform="translate(101.804413, 193.295884)">
                                    <g id="Group_57026" transform="translate(19.608821, 0.000000)" fill="#2A3134">
                                        <path d="M2.6145094,2.32358426 L3.56760745,2.87565198 C3.24772341,2.72690004 2.87212117,2.76485984 2.58846847,2.97460752 L1.64057861,2.4225398 C1.9221871,2.21261387 2.29643297,2.17458889 2.6145094,2.32358426 L2.6145094,2.32358426 Z" id="Path_24094"></path>
                                    </g>
                                    <g id="Group_57028" transform="translate(0.195473, 17.437740)" fill="#2A3134">
                                        <path d="M3.2835949,3.3228227 L2.33049685,2.77075498 C2.04771791,2.56889431 1.89469657,2.231055 1.92946652,1.88536335 L2.88256457,2.43743108 C2.84554895,2.78348731 2.9990608,3.12240958 3.2835949,3.3228227 Z" id="Path_24095"></path>
                                    </g>
                                    <g id="Group_57030" transform="translate(0.000000, 14.867500)" fill="#2A3134">
                                        <polygon id="Path_24096" points="3.07803796 5.00767089 2.1301481 4.45560317 2.1301481 0.200515163 3.07803796 0.752582885"></polygon>
                                    </g>
                                    <g id="Group_57032" transform="translate(3.489485, 2.422540)" fill="#2A3134">
                                        <polygon id="Path_24097" points="0.947889863 10.8069861 0 10.2549183 17.7651226 -1.18420441e-12 18.7130125 0.552067722"></polygon>
                                    </g>
                                    <g id="Group_57034" transform="translate(0.671856, 11.547282)" fill="#2A3134">
                                        <path d="M2.3905574,4.07800968 L1.44266754,3.52594196 C1.4864642,2.55327096 1.99641346,1.6613445 2.81242047,1.13017637 L3.76551852,1.6822441 C2.95008768,2.2146634 2.43890897,3.10535358 2.3905574,4.07800968 L2.3905574,4.07800968 Z" id="Path_24098"></path>
                                    </g>
                                    <g id="Group_57036" transform="translate(3.067622, 2.784151)" fill="#4F575F">
                                        <path d="M19.1296674,0.190456704 C19.8900626,-0.252239111 20.5098367,0.101917541 20.5150449,0.992517356 L20.5150449,5.24760537 C20.4668957,6.21476635 19.9548503,7.09920833 19.1400838,7.62253821 L1.38016931,17.8826647 C0.619774141,18.3201524 0,17.9659957 0,17.0910205 L0,12.8411406 C0.0483515686,11.8684845 0.559530283,10.9777944 1.37496112,10.4453751 L19.1296674,0.190456704 Z" id="Path_24099"></path>
                                    </g>
                                </g>
                            </g>
                        </g>
                        <g id="Group_57048" transform="translate(104.356424, 307.169704)" fill="#FF6161">
                            <path d="M30.6085095,0.240690162 C31.5720239,-0.316585747 32.3480436,0.126110068 32.3532518,1.2354537 L32.3949173,15.1673514 C32.3309095,16.3874589 31.6860039,17.5029713 30.6605913,18.1672666 L1.78119963,34.833462 C0.822893397,35.3907379 0.0416654885,34.9480421 0.0416654885,33.8439066 L-1.18420441e-12,19.9068007 C0.0656813613,18.6871902 0.710179143,17.5723832 1.73432596,16.9068855 L30.6085095,0.240690162 Z" id="Path_24100"></path>
                        </g>
                    </g>
                    <g id="Group_57051" transform="translate(139.189384, 33.452985)" fill="#4F575F">
                        <path d="M69.8724129,9.54821951 C70.5807262,9.95445802 70.6119753,10.5898567 69.8724129,11.0377607 L19.1186398,40.5317184 C18.3013979,40.9516545 17.3317886,40.9516545 16.5145467,40.5317184 L0.530623733,31.3028127 C0.212848058,31.1918295 0,30.8920366 0,30.555438 C0,30.2188393 0.212848058,29.9190464 0.530623733,29.8080633 L51.2843969,0.314105625 C52.0927208,-0.104701875 53.0541251,-0.104701875 53.862449,0.314105625 L69.8724129,9.54821951 Z" id="Path_24101"></path>
                    </g>
                    <g id="Group_57164" transform="translate(0.000000, 172.028806)">
                        <g id="Group_57158" transform="translate(0.000000, 16.648612)">
                            <g id="Group_57145">
                                <g id="Group_57053" transform="translate(0.000000, 153.789277)" fill="#E99B8A">
                                    <path d="M24.2180652,81.3674908 C8.593507,72.3573289 0.0156245582,60.3003782 0,47.4049095 C0,34.59798 8.45288597,22.619152 23.848284,13.6714884 C55.2171886,-4.5571628 106.408449,-4.5571628 137.949224,13.6714884 C153.573782,22.6816503 162.167289,34.738601 162.182914,47.6340697 C162.182914,60.4462074 153.72482,72.4302435 138.313797,81.3831153 C107.007391,99.5701011 55.8265464,99.6117665 24.2180652,81.3674908 Z M25.2597024,16.1037113 C10.7601124,24.5253481 2.79158773,35.6396172 2.80718935,47.4049095 C2.80718935,59.2483246 10.9267743,70.4459246 25.6190672,78.9300597 C56.404655,96.7108069 106.31991,96.7003905 136.891962,78.9300597 C151.396761,70.4980065 159.38091,59.3785292 159.365308,47.6132369 C159.349661,35.8479446 151.240515,24.5670136 136.543014,16.0828785 L136.543014,16.0828785 C105.825133,-1.65099498 55.899461,-1.69786865 25.2649106,16.1089195 L25.2597024,16.1037113 Z" id="Path_24102"></path>
                                </g>
                                <g id="Group_57143" transform="translate(1.348827, 0.000000)">
                                    <g id="Group_57059" transform="translate(0.000000, 121.683404)">
                                        <g id="Group_57055" transform="translate(0.000000, 45.928399)" fill="#A46EF2">
                                            <path d="M159.427876,0.437487629 L159.370586,19.6244451 C159.339337,31.3636964 151.620806,43.0612823 136.199367,52.0454033 C105.195035,70.0605189 54.753753,70.0709352 23.5202612,52.0454033 C7.81237209,42.9727432 -0.0311561129,31.072038 0,19.1869574 L0.05738305,0 C0.0209257476,11.8850806 7.86966214,23.7857857 23.5723431,32.8532377 C54.8214594,50.889186 105.252325,50.8787696 136.256657,32.8532377 C151.672887,23.8951576 159.396627,12.1819472 159.427876,0.437487629 Z" id="Path_24103"></path>
                                        </g>
                                        <g id="Group_57057" transform="translate(0.050496, 0.000000)" fill="#B785FF">
                                            <path d="M135.852004,13.5022325 C167.10112,31.5329726 167.236533,60.7508964 136.20616,78.7868448 C105.175788,96.8227931 54.7553386,96.8123767 23.5218468,78.7868448 C-7.71164495,60.7613128 -7.84705778,31.543389 23.1572738,13.5282734 C54.1616054,-4.48684213 104.628928,-4.52329943 135.852004,13.5022325 Z" id="Path_24104"></path>
                                        </g>
                                    </g>
                                    <g id="Group_57072" transform="translate(0.000000, 81.117498)">
                                        <g id="Group_57062" transform="translate(5.015477, 64.229309)" fill="#FFCA6C">
                                            <path d="M149.396916,0.411446699 L149.344834,18.390105 C149.313585,29.3950021 142.053374,40.3790665 127.631907,48.7746624 C98.5754368,65.6596016 51.3059401,65.6648098 22.0411426,48.7746624 C7.31760065,40.2749028 -0.0311498777,29.1189683 0,17.9838665 L0.0521810992,0 C0.0209319828,11.14031 7.36968251,22.2962445 22.0880163,30.790796 C51.358022,47.6913597 98.6483514,47.6861515 127.683989,30.790796 C142.131497,22.3952 149.365667,11.4111357 149.396916,0.411446699 Z" id="Path_24105"></path>
                                        </g>
                                        <g id="Group_57070">
                                            <g id="Group_57066" transform="translate(0.000000, 45.932952)" fill="#A46EF2">
                                                <path d="M159.427876,0.437487629 L159.370586,19.6244451 C159.339337,31.3636964 151.620806,43.0873233 136.199367,52.0454033 C105.195035,70.065727 54.753753,70.0709352 23.5202612,52.0454033 C7.81237209,42.9779514 -0.0311561129,31.072038 0,19.1869574 L0.05738305,0 C0.0209257476,11.8850806 7.86966214,23.7909939 23.5723431,32.8584458 C54.8214594,50.889186 105.252325,50.8839778 136.256657,32.8584458 C151.672887,23.9003658 159.396627,12.176739 159.427876,0.437487629 Z" id="Path_24106"></path>
                                            </g>
                                            <g id="Group_57068" transform="translate(0.050496, 0.000000)" fill="#B785FF">
                                                <path d="M135.852004,13.5067852 C167.10112,31.5427336 167.236533,60.7606573 136.20616,78.7913975 C105.175788,96.8221376 54.7553386,96.8169294 23.5218468,78.7913975 C-7.71164495,60.7658655 -7.84705778,31.5479417 23.1572738,13.527618 C54.1616054,-4.49270578 104.628928,-4.51874671 135.852004,13.5067852 Z" id="Path_24107"></path>
                                            </g>
                                        </g>
                                    </g>
                                    <g id="Group_57087" transform="translate(0.000000, 81.117498)">
                                        <g id="Group_57073" transform="translate(5.015477, 64.229309)" fill="#FFCA6C">
                                            <path d="M149.396916,0.411446699 L149.344834,18.390105 C149.313585,29.3950021 142.053374,40.3790665 127.631907,48.7746624 C98.5754368,65.6596016 51.3059401,65.6648098 22.0411426,48.7746624 C7.31760065,40.2749028 -0.0311498777,29.1189683 0,17.9838665 L0.0521810992,0 C0.0209319828,11.14031 7.36968251,22.2962445 22.0880163,30.790796 C51.358022,47.6913597 98.6483514,47.6861515 127.683989,30.790796 C142.131497,22.3952 149.365667,11.4111357 149.396916,0.411446699 Z" id="Path_24108"></path>
                                        </g>
                                        <g id="Group_57077" transform="translate(83.388360, 64.645964)" fill="#FFB63C">
                                            <path d="M49.3267302,30.3845575 C34.1569654,38.5376426 17.2216333,42.8523883 0,42.9519104 L0,60.9305687 C17.2041507,60.8238225 34.1208959,56.5092568 49.2746483,48.3632157 C63.7221564,39.9676198 70.9563269,28.9835554 70.987576,17.9786583 L71.0396578,0 C70.9927842,10.9944808 63.7586137,21.9785452 49.3267302,30.3845575 Z" id="Path_24109"></path>
                                        </g>
                                        <g id="Group_57085">
                                            <g id="Group_57081" transform="translate(0.000000, 45.932952)" fill="#A46EF2">
                                                <path d="M159.427876,0.437487629 L159.370586,19.6244451 C159.339337,31.3636964 151.620806,43.0873233 136.199367,52.0454033 C105.195035,70.065727 54.753753,70.0709352 23.5202612,52.0454033 C7.81237209,42.9779514 -0.0311561129,31.072038 0,19.1869574 L0.05738305,0 C0.0209257476,11.8850806 7.86966214,23.7909939 23.5723431,32.8584458 C54.8214594,50.889186 105.252325,50.8839778 136.256657,32.8584458 C151.672887,23.9003658 159.396627,12.176739 159.427876,0.437487629 Z" id="Path_24110"></path>
                                            </g>
                                            <g id="Group_57083" transform="translate(0.050496, 0.000000)" fill="#B785FF">
                                                <path d="M135.852004,13.5067852 C167.10112,31.5427336 167.236533,60.7606573 136.20616,78.7913975 C105.175788,96.8221376 54.7553386,96.8169294 23.5218468,78.7913975 C-7.71164495,60.7658655 -7.84705778,31.5479417 23.1572738,13.527618 C54.1616054,-4.49270578 104.628928,-4.51874671 135.852004,13.5067852 Z" id="Path_24111"></path>
                                            </g>
                                        </g>
                                    </g>
                                    <g id="Group_57098" transform="translate(0.000000, 40.567860)">
                                        <g id="Group_57088" transform="translate(5.015477, 64.222802)" fill="#FFCA6C">
                                            <path d="M149.396916,0.411446699 L149.344834,18.390105 C149.313585,29.3897939 142.053374,40.3738583 127.631907,48.7694542 C98.5754368,65.6543934 51.3059401,65.6648098 22.0411426,48.7694542 C7.31760065,40.2696946 -0.0311498777,29.1189683 0,17.9786583 L0.0521810992,0 C0.0209319828,11.1351018 7.36968251,22.2910363 22.0880163,30.790796 C51.358022,47.6913597 98.6483514,47.6809434 127.683989,30.790796 C142.131497,22.4004082 149.365667,11.4111357 149.396916,0.411446699 Z" id="Path_24112"></path>
                                        </g>
                                        <g id="Group_57096" transform="translate(0.000000, 0.000000)">
                                            <g id="Group_57092" transform="translate(0.000000, 45.931652)" fill="#A46EF2">
                                                <path d="M159.427876,0.432279443 L159.370586,19.6192369 C159.339337,31.3584883 151.620806,43.0560741 136.199367,52.0401951 C105.195035,70.0553107 54.753753,70.065727 23.5202612,52.0401951 C7.81237209,42.9727432 -0.0311561129,31.072038 0,19.1869574 L0.05738305,0 C0.0209257476,11.8850806 7.86966214,23.7857857 23.5723431,32.8532377 C54.8214594,50.889186 105.252325,50.8787696 136.256657,32.8532377 C151.672887,23.8899494 159.396627,12.1715308 159.427876,0.432279443 Z" id="Path_24113"></path>
                                            </g>
                                            <g id="Group_57094" transform="translate(0.050496, 0.000000)" fill="#B785FF">
                                                <path d="M135.852004,13.5002778 C167.10112,31.531018 167.236533,60.7489417 136.20616,78.7848901 C105.175788,96.8208384 54.7553386,96.810422 23.5218468,78.7848901 C-7.71164495,60.7593581 -7.84705778,31.5414343 23.1572738,13.5263188 C54.1616054,-4.48879682 104.628928,-4.52004594 135.852004,13.5002778 Z" id="Path_24114"></path>
                                            </g>
                                        </g>
                                    </g>
                                    <g id="Group_57113" transform="translate(0.000000, 40.567860)">
                                        <g id="Group_57099" transform="translate(5.015477, 64.222802)" fill="#FFCA6C">
                                            <path d="M149.396916,0.411446699 L149.344834,18.390105 C149.313585,29.3897939 142.053374,40.3738583 127.631907,48.7694542 C98.5754368,65.6543934 51.3059401,65.6648098 22.0411426,48.7694542 C7.31760065,40.2696946 -0.0311498777,29.1189683 0,17.9786583 L0.0521810992,0 C0.0209319828,11.1351018 7.36968251,22.2910363 22.0880163,30.790796 C51.358022,47.6913597 98.6483514,47.6809434 127.683989,30.790796 C142.131497,22.4004082 149.365667,11.4111357 149.396916,0.411446699 Z" id="Path_24115"></path>
                                        </g>
                                        <g id="Group_57103" transform="translate(83.976885, 64.634249)" fill="#FFB63C">
                                            <path d="M48.7382051,30.3793493 C33.7478157,38.4477765 17.0228985,42.7567929 0,42.9362859 L0,60.9149441 C17.0053756,60.7280779 33.7116772,56.4192533 48.6861233,48.3580075 C63.1336314,39.9624116 70.3678018,28.9783472 70.3990509,17.9786583 L70.4511328,-1.18420441e-12 C70.4042591,10.999689 63.1700887,21.9889615 48.7382051,30.3793493 Z" id="Path_24116"></path>
                                        </g>
                                        <g id="Group_57111" transform="translate(0.000000, 0.000000)">
                                            <g id="Group_57107" transform="translate(0.000000, 45.931652)" fill="#A46EF2">
                                                <path d="M159.427876,0.432279443 L159.370586,19.6192369 C159.339337,31.3584883 151.620806,43.0560741 136.199367,52.0401951 C105.195035,70.0553107 54.753753,70.065727 23.5202612,52.0401951 C7.81237209,42.9727432 -0.0311561129,31.072038 0,19.1869574 L0.05738305,0 C0.0209257476,11.8850806 7.86966214,23.7857857 23.5723431,32.8532377 C54.8214594,50.889186 105.252325,50.8787696 136.256657,32.8532377 C151.672887,23.8899494 159.396627,12.1715308 159.427876,0.432279443 Z" id="Path_24117"></path>
                                            </g>
                                            <g id="Group_57109" transform="translate(0.050496, 0.000000)" fill="#B785FF">
                                                <path d="M135.852004,13.5002778 C167.10112,31.531018 167.236533,60.7489417 136.20616,78.7848901 C105.175788,96.8208384 54.7553386,96.810422 23.5218468,78.7848901 C-7.71164495,60.7593581 -7.84705778,31.5414343 23.1572738,13.5263188 C54.1616054,-4.48879682 104.628928,-4.52004594 135.852004,13.5002778 Z" id="Path_24118"></path>
                                            </g>
                                        </g>
                                    </g>
                                    <g id="Group_57136">
                                        <g id="Group_57114" transform="translate(5.015477, 64.229309)" fill="#FFCA6C">
                                            <path d="M149.396916,0.411446699 L149.344834,18.390105 C149.313585,29.3950021 142.053374,40.3790665 127.631907,48.7746624 C98.5754368,65.6596016 51.3059401,65.6648098 22.0411426,48.7746624 C7.31760065,40.2749028 -0.0311498777,29.1189683 0,17.9838665 L0.0521810992,0 C0.0209319828,11.14031 7.36968251,22.2962445 22.0880163,30.790796 C51.358022,47.6913597 98.6483514,47.6861515 127.683989,30.790796 C142.131497,22.3952 149.365667,11.4007193 149.396916,0.411446699 Z" id="Path_24119"></path>
                                        </g>
                                        <g id="Group_57118" transform="translate(83.482107, 64.640756)" fill="#FFB63C">
                                            <path d="M49.2329828,30.3845575 C34.090977,38.522237 17.189789,42.836483 0,42.9519104 L0,60.9305687 C17.1726029,60.8102424 34.0557563,56.4960362 49.1809009,48.3632157 C63.6284091,39.9676198 70.8625795,28.9835554 70.8938286,17.9786583 L70.9459105,1.18420441e-12 C70.8990368,10.9892726 63.6648664,21.9837534 49.2329828,30.3845575 Z" id="Path_24120"></path>
                                        </g>
                                        <g id="Group_57134">
                                            <g id="Group_57122" transform="translate(0.000000, 45.932952)" fill="#A46EF2">
                                                <path d="M159.427876,0.437487629 L159.370586,19.6244451 C159.339337,31.3636964 151.620806,43.0873233 136.199367,52.0454033 C105.195035,70.065727 54.753753,70.0709352 23.5202612,52.0454033 C7.81237209,42.9779514 -0.0311561129,31.072038 0,19.1869574 L0.05738305,-1.18420441e-12 C0.0209257476,11.8850806 7.86966214,23.7909939 23.5723431,32.8584458 C54.8214594,50.889186 105.252325,50.8839778 136.256657,32.8584458 C151.672887,23.9003658 159.396627,12.176739 159.427876,0.437487629 Z" id="Path_24121"></path>
                                            </g>
                                            <g id="Group_57124" transform="translate(83.445650, 168.049290)" fill="#9156E5">
                                                <path d="M52.8110066,32.4209582 C36.5704647,41.1479418 18.4365957,45.7565198 0,45.8424537 L0,65.0242029 C18.4172372,64.9343255 36.5312043,60.3275944 52.7537166,51.6079156 C68.1751555,42.6446274 75.8936872,30.9262088 75.9301445,19.1869574 L75.9822264,0 C75.9509773,11.7444596 68.2272374,23.45767 52.8110066,32.4209582 Z" id="Path_24122"></path>
                                            </g>
                                            <g id="Group_57126" transform="translate(83.716476, 127.487937)" fill="#9156E5">
                                                <path d="M52.540181,32.4209582 C36.3822642,41.1090402 18.3451918,45.7148588 0,45.8372455 L0,65.0189947 C18.3257213,64.8918313 36.3426952,60.2879107 52.4828909,51.6079156 C67.9043298,42.6498356 75.6228616,30.9262088 75.6593189,19.1869574 L75.7114007,0 C75.6801516,11.7392514 67.9564117,23.4628782 52.540181,32.4209582 Z" id="Path_24123"></path>
                                            </g>
                                            <g id="Group_57128" transform="translate(83.992510, 86.931792)" fill="#9156E5">
                                                <path d="M52.2641471,32.4209582 C36.188894,41.0648893 18.251176,45.6659542 0,45.8268291 L0,65.0085784 C18.2318107,64.8437789 36.1496334,60.2445612 52.206857,51.6079156 C67.628296,42.6446274 75.3468277,30.9262088 75.383285,19.1869574 L75.4353669,0 C75.4041177,11.7392514 67.6803778,23.45767 52.2641471,32.4209582 Z" id="Path_24124"></path>
                                            </g>
                                            <g id="Group_57130" transform="translate(83.992510, 46.370439)" fill="#9156E5">
                                                <path d="M52.2641471,32.4209582 C36.1897365,41.0670469 18.2514761,45.6682509 0,45.8268291 L0,65.0137866 C18.2322474,64.8473849 36.1500956,60.2463732 52.206857,51.6079156 C67.628296,42.6498356 75.3468277,30.9262088 75.383285,19.1869574 L75.4353669,0 C75.4041177,11.7392514 67.6803778,23.4628782 52.2641471,32.4209582 Z" id="Path_24125"></path>
                                            </g>
                                            <g id="Group_57132" transform="translate(0.050496, 0.000000)" fill="#B785FF">
                                                <path d="M135.852004,13.5067852 C167.10112,31.5427336 167.236533,60.7606573 136.20616,78.7913975 C105.175788,96.8221376 54.7553386,96.8169294 23.5218468,78.7913975 C-7.71164495,60.7658655 -7.84705778,31.5479417 23.1572738,13.527618 C54.1616054,-4.49270578 104.628928,-4.51874671 135.852004,13.5067852 Z" id="Path_24126"></path>
                                            </g>
                                        </g>
                                    </g>
                                    <g id="Group_57141" transform="translate(38.472898, 9.396464)">
                                        <g id="Group_57137" transform="translate(0.000000, 23.776432)" fill="#9156E5">
                                            <path d="M82.4977323,0.229160187 L82.4716914,10.1559628 C81.7889671,17.4974473 77.214308,23.905948 70.4928634,26.9367383 C44.8633798,41.8321504 -0.0624330937,31.2907818 0,9.92680263 L0.0261060692,0 C0.698007265,7.45657639 5.35603346,13.9642595 12.1976369,17.0047275 C30.5224455,26.33412 52.2045122,26.33412 70.5293207,17.0047275 C77.2444853,13.9710868 81.8141541,7.56599404 82.4977323,0.229160187 Z" id="Path_24127"></path>
                                        </g>
                                        <g id="Group_57139" transform="translate(0.010911, 0.000000)" fill="#A46EF2">
                                            <path d="M70.3100827,6.99565629 C86.4554594,16.3287257 86.554415,31.4741308 70.4975774,40.7863674 C52.1727688,50.1157599 30.4907021,50.1157599 12.1658935,40.7863674 C-3.97948328,31.4585062 -4.06802244,16.307893 11.9783988,7.00607266 C30.3003186,-2.33168401 51.9848292,-2.33555624 70.3100827,6.99565629 L70.3100827,6.99565629 Z" id="Path_24128"></path>
                                        </g>
                                    </g>
                                </g>
                            </g>
                            <g id="Group_57146" transform="translate(139.225230, 78.649125)" fill="#FFFFFF">
                                <path d="M8.68725434,3.06927343 C8.53320473,6.11932891 6.92298812,8.90959595 4.35925173,10.5690614 C1.97390252,11.9492307 -1.18420441e-12,10.8503034 -1.18420441e-12,8.08996479 C0.167385113,5.04525083 1.77456024,2.26218825 4.32800261,0.595385054 C6.74460095,-0.784784251 8.68725434,0.314143007 8.68725434,3.06927343 Z" id="Path_24129"></path>
                            </g>
                            <g id="Group_57148" transform="translate(139.225230, 119.272029)" fill="#FFFFFF">
                                <path d="M8.68725434,3.07022053 C8.53494907,6.1194026 6.92410135,8.90882483 4.35925173,10.5648003 C1.97390252,11.9449696 -1.18420441e-12,10.8512505 -1.18420441e-12,8.09091189 C0.167385113,5.04619793 1.77456024,2.26313535 4.32800261,0.596332151 C6.74460095,-0.783837155 8.68725434,0.309881918 8.68725434,3.07022053 Z" id="Path_24130"></path>
                            </g>
                            <g id="Group_57150" transform="translate(139.225230, 159.891749)" fill="#FFFFFF">
                                <path d="M8.68725434,3.07435126 C8.53325499,6.12303343 6.92282162,8.91173814 4.35925173,10.568931 C1.97390252,11.9491003 -1.18420441e-12,10.8553812 -1.18420441e-12,8.09504262 C0.167417349,5.04894774 1.77438391,2.26431254 4.32800261,0.595254695 C6.74460095,-0.784914611 8.68725434,0.314012648 8.68725434,3.07435126 Z" id="Path_24131"></path>
                            </g>
                            <g id="Group_57152" transform="translate(139.225230, 200.515601)" fill="#FFFFFF">
                                <path d="M8.68725434,3.07435126 C8.53325499,6.12303343 6.92282162,8.91173814 4.35925173,10.568931 C1.97390252,11.9491003 0,10.850173 0,8.08983443 C0.168212007,5.04536667 1.77518678,2.26265103 4.32800261,0.595254695 C6.74460095,-0.784914611 8.68725434,0.314012648 8.68725434,3.07435126 Z" id="Path_24132"></path>
                            </g>
                            <g id="Group_57154" transform="translate(230.389318, 134.981703)" fill="#FFFFFF">
                                <path d="M6.39565248,2.26116707 C6.28230496,4.50535869 5.09610787,6.55794484 3.20824261,7.77663611 C1.4582921,8.79223239 0,7.98496355 0,5.95377099 C0.124227147,3.71280784 1.30777388,1.66480786 3.18740987,0.438301953 C4.96340131,-0.577294328 6.39565248,0.229974511 6.39565248,2.26116707 Z" id="Path_24133"></path>
                            </g>
                            <g id="Group_57156" transform="translate(240.305705, 129.257906)" fill="#FFFFFF">
                                <path d="M6.39044429,2.26116707 C6.27911469,4.50463367 5.09476222,6.55738207 3.20824261,7.77663611 C1.45308391,8.79223239 -1.18420441e-12,7.98496355 -1.18420441e-12,5.95377099 C0.12222066,3.71352685 1.30392292,1.66537187 3.18220168,0.438301953 C4.95819313,-0.577294328 6.39044429,0.229974511 6.39044429,2.26116707 Z" id="Path_24134"></path>
                            </g>
                        </g>
                        <g id="Group_57163" transform="translate(55.453548, 0.000000)">
                            <g id="Group_57159" transform="translate(0.000000, 34.214054)" fill="#FFFFFF">
                                <path d="M25.7212403,28.3779257 C19.2881945,28.5168071 12.9272549,27.0014437 7.24780436,23.9770084 C-2.27796794,18.4927885 -2.51233631,9.99302888 7.12801608,4.39422886 C18.7156238,-1.46474295 32.3987411,-1.46474295 43.9863488,4.39422886 C60.2879712,13.8210456 47.2310487,28.3518847 25.7212403,28.3518847" id="Path_24135"></path>
                            </g>
                            <g id="Group_57160" transform="translate(6.164502, 37.787206)" fill="#49E4A3">
                                <path d="M38.9155662,10.6489241 C38.9155662,20.0236591 17.7130408,24.836023 5.50505266,17.9091355 C2.48303282,16.6320951 0.380533238,13.8294254 0,10.5708014 C0.358727927,7.34146483 2.42837523,4.55540115 5.4165135,3.27934088 C14.2319754,-1.09311363 24.5846353,-1.09311363 33.4000972,3.27934088 C36.4323305,4.56241442 38.5395028,7.37794679 38.9155662,10.6489241 Z" id="Path_24136"></path>
                            </g>
                            <g id="Group_57161" transform="translate(6.164502, 37.782079)" fill="#39C988">
                                <path d="M38.9155662,10.6540517 C38.9137473,11.405925 38.7669753,12.1503952 38.4832868,12.846698 C35.1604641,21.1797957 16.2026668,24.0026326 5.51026085,17.9142631 C3.28265034,16.8192982 1.49374757,14.9991723 0.437487629,12.7529507 C0.14883415,12.0616134 0,11.319899 0,10.5707207 C0.358727927,7.3413842 2.42837523,4.55532052 5.4165135,3.27926025 C14.2301692,-1.09308675 24.5812333,-1.09308675 33.394889,3.27926025 C36.4292432,4.56354964 38.5381888,7.38078253 38.9155662,10.6540517 Z" id="Path_24137"></path>
                            </g>
                            <g id="Group_57162" transform="translate(6.664629, 42.167371)" fill="#49E4A3">
                                <path d="M37.9831599,8.44578082 C34.6603372,16.7788785 15.7025399,19.6017154 5.01013394,13.5133459 C2.24415911,13.4541638 0.0255609134,11.2082578 0,8.44176602 C-0.0251229063,5.6752742 2.15196008,3.38910244 4.91638659,3.27926025 C13.7300423,-1.09308675 24.0811064,-1.09308675 32.8947621,3.27926025 C35.1229725,4.38113108 36.9153643,6.20104175 37.9831599,8.44578082 Z" id="Path_24138"></path>
                            </g>
                            <path d="M5.95096603,0 L5.95096603,47.6184451 C6.28001172,51.1391956 8.48182535,54.2089936 11.7112198,55.649468 C23.8254606,62.6388537 45.2988117,57.8473225 45.2988117,47.6184451 L45.2988117,0 L5.95096603,0 Z" id="Path_24139" fill="url(#linearGradient-1)" opacity="0.5"></path>
                        </g>
                    </g>
                    <g id="Group_57165" transform="translate(142.846513, 326.487061)" fill="#4F91FF">
                        <path d="M45.5752418,125.018216 L13.3678192,106.268746 C12.9686081,106.037026 12.7226548,105.610574 12.7220041,105.148986 L12.7220041,77.4935185 L0.644220633,70.4520509 C0.025885147,70.0898998 -0.183600814,69.2961807 0.175483888,68.6760595 C0.345408314,68.3732812 0.630940081,68.1524313 0.966709948,68.0640708 C1.30247981,67.9757103 1.6597341,68.027406 1.95668352,68.2073227 L14.6802821,75.6237797 C15.0794931,75.8555004 15.3254464,76.2819516 15.3260971,76.7435397 L15.3260971,104.399008 L46.2314732,122.382874 L136.603918,69.8531095 L103.391315,50.5411556 C102.991279,50.3077213 102.745363,49.8793508 102.7455,49.4161874 L102.7455,9.76626696 L90.089608,2.40189187 C89.4988668,2.02732881 89.3096223,1.25294414 89.661025,0.648139447 C90.0124277,0.0433347579 90.778902,-0.175759593 91.3968627,0.151955495 L104.703778,7.89652816 C105.103814,8.12996251 105.34973,8.55833295 105.349593,9.02149635 L105.349593,48.6714168 L139.921532,68.7698068 C140.321635,69.0367402 140.543678,69.5011425 140.500231,69.9801495 C140.456784,70.4591565 140.154806,70.8760284 139.713205,71.0666169 L46.8877046,125.013008 C46.4834538,125.252338 45.9813793,125.254331 45.5752418,125.018216 Z" id="Path_24140"></path>
                    </g>
                </g>
            </g>
        </g>
    </g>
</svg>